%TF.GenerationSoftware,KiCad,Pcbnew,8.0.5*%
%TF.CreationDate,2024-09-25T17:40:38-05:00*%
%TF.ProjectId,Front Panel,46726f6e-7420-4506-916e-656c2e6b6963,rev?*%
%TF.SameCoordinates,Original*%
%TF.FileFunction,Drillmap*%
%TF.FilePolarity,Positive*%
%FSLAX45Y45*%
G04 Gerber Fmt 4.5, Leading zero omitted, Abs format (unit mm)*
G04 Created by KiCad (PCBNEW 8.0.5) date 2024-09-25 17:40:38*
%MOMM*%
%LPD*%
G01*
G04 APERTURE LIST*
%ADD10C,0.100000*%
%ADD11C,0.200000*%
G04 APERTURE END LIST*
D10*
X6005110Y-5937360D02*
X6005110Y-4637360D01*
X6005110Y-4637360D02*
G75*
G02*
X6155110Y-4487360I150000J0D01*
G01*
X6155110Y-4487360D02*
X8605110Y-4487360D01*
X8605110Y-4487360D02*
G75*
G02*
X8755110Y-4637360I0J-150000D01*
G01*
X8755110Y-4637360D02*
X8755110Y-5937360D01*
X8755110Y-5937360D02*
G75*
G02*
X8605110Y-6087360I-150000J0D01*
G01*
X8605110Y-6087360D02*
X6155110Y-6087360D01*
X6155110Y-6087360D02*
G75*
G02*
X6005110Y-5937360I0J150000D01*
G01*
X9122610Y-10782360D02*
G75*
G02*
X8487610Y-10782360I-317500J0D01*
G01*
X8487610Y-10782360D02*
G75*
G02*
X9122610Y-10782360I317500J0D01*
G01*
X6444110Y-10782360D02*
G75*
G02*
X5466110Y-10782360I-489000J0D01*
G01*
X5466110Y-10782360D02*
G75*
G02*
X6444110Y-10782360I489000J0D01*
G01*
X9351110Y-13241360D02*
G75*
G02*
X8513110Y-13241360I-419000J0D01*
G01*
X8513110Y-13241360D02*
G75*
G02*
X9351110Y-13241360I419000J0D01*
G01*
X7799110Y-13241360D02*
G75*
G02*
X6961110Y-13241360I-419000J0D01*
G01*
X6961110Y-13241360D02*
G75*
G02*
X7799110Y-13241360I419000J0D01*
G01*
X6272110Y-13241360D02*
G75*
G02*
X5434110Y-13241360I-419000J0D01*
G01*
X5434110Y-13241360D02*
G75*
G02*
X6272110Y-13241360I419000J0D01*
G01*
X9374110Y-8557360D02*
G75*
G02*
X8536110Y-8557360I-419000J0D01*
G01*
X8536110Y-8557360D02*
G75*
G02*
X9374110Y-8557360I419000J0D01*
G01*
X7799110Y-8557360D02*
G75*
G02*
X6961110Y-8557360I-419000J0D01*
G01*
X6961110Y-8557360D02*
G75*
G02*
X7799110Y-8557360I419000J0D01*
G01*
X6224110Y-8557360D02*
G75*
G02*
X5386110Y-8557360I-419000J0D01*
G01*
X5386110Y-8557360D02*
G75*
G02*
X6224110Y-8557360I419000J0D01*
G01*
X5440110Y-4132360D02*
G75*
G02*
X5150110Y-4132360I-145000J0D01*
G01*
X5150110Y-4132360D02*
G75*
G02*
X5440110Y-4132360I145000J0D01*
G01*
X9306110Y-2850000D02*
G75*
G02*
X9006110Y-2850000I-150000J0D01*
G01*
X9006110Y-2850000D02*
G75*
G02*
X9306110Y-2850000I150000J0D01*
G01*
X5750000Y-2850000D02*
G75*
G02*
X5450000Y-2850000I-150000J0D01*
G01*
X5450000Y-2850000D02*
G75*
G02*
X5750000Y-2850000I150000J0D01*
G01*
X9306110Y-15100360D02*
G75*
G02*
X9006110Y-15100360I-150000J0D01*
G01*
X9006110Y-15100360D02*
G75*
G02*
X9306110Y-15100360I150000J0D01*
G01*
X5750110Y-15100360D02*
G75*
G02*
X5450110Y-15100360I-150000J0D01*
G01*
X5450110Y-15100360D02*
G75*
G02*
X5750110Y-15100360I150000J0D01*
G01*
X4850110Y-2550360D02*
X9910110Y-2550360D01*
X4850110Y-15400360D02*
X4850110Y-2550360D01*
X9910110Y-15400360D02*
X4850110Y-15400360D01*
X9910110Y-2550360D02*
X9910110Y-15400360D01*
X6005110Y-5937360D02*
X6005110Y-4637360D01*
X6005110Y-4637360D02*
G75*
G02*
X6155110Y-4487360I150000J0D01*
G01*
X6155110Y-4487360D02*
X8605110Y-4487360D01*
X8605110Y-4487360D02*
G75*
G02*
X8755110Y-4637360I0J-150000D01*
G01*
X8755110Y-4637360D02*
X8755110Y-5937360D01*
X8755110Y-5937360D02*
G75*
G02*
X8605110Y-6087360I-150000J0D01*
G01*
X8605110Y-6087360D02*
X6155110Y-6087360D01*
X6155110Y-6087360D02*
G75*
G02*
X6005110Y-5937360I0J150000D01*
G01*
X9122610Y-10782360D02*
G75*
G02*
X8487610Y-10782360I-317500J0D01*
G01*
X8487610Y-10782360D02*
G75*
G02*
X9122610Y-10782360I317500J0D01*
G01*
X6444110Y-10782360D02*
G75*
G02*
X5466110Y-10782360I-489000J0D01*
G01*
X5466110Y-10782360D02*
G75*
G02*
X6444110Y-10782360I489000J0D01*
G01*
X9351110Y-13241360D02*
G75*
G02*
X8513110Y-13241360I-419000J0D01*
G01*
X8513110Y-13241360D02*
G75*
G02*
X9351110Y-13241360I419000J0D01*
G01*
X7799110Y-13241360D02*
G75*
G02*
X6961110Y-13241360I-419000J0D01*
G01*
X6961110Y-13241360D02*
G75*
G02*
X7799110Y-13241360I419000J0D01*
G01*
X6272110Y-13241360D02*
G75*
G02*
X5434110Y-13241360I-419000J0D01*
G01*
X5434110Y-13241360D02*
G75*
G02*
X6272110Y-13241360I419000J0D01*
G01*
X9374110Y-8557360D02*
G75*
G02*
X8536110Y-8557360I-419000J0D01*
G01*
X8536110Y-8557360D02*
G75*
G02*
X9374110Y-8557360I419000J0D01*
G01*
X7799110Y-8557360D02*
G75*
G02*
X6961110Y-8557360I-419000J0D01*
G01*
X6961110Y-8557360D02*
G75*
G02*
X7799110Y-8557360I419000J0D01*
G01*
X6224110Y-8557360D02*
G75*
G02*
X5386110Y-8557360I-419000J0D01*
G01*
X5386110Y-8557360D02*
G75*
G02*
X6224110Y-8557360I419000J0D01*
G01*
X5440110Y-4132360D02*
G75*
G02*
X5150110Y-4132360I-145000J0D01*
G01*
X5150110Y-4132360D02*
G75*
G02*
X5440110Y-4132360I145000J0D01*
G01*
X9306110Y-2850000D02*
G75*
G02*
X9006110Y-2850000I-150000J0D01*
G01*
X9006110Y-2850000D02*
G75*
G02*
X9306110Y-2850000I150000J0D01*
G01*
X5750000Y-2850000D02*
G75*
G02*
X5450000Y-2850000I-150000J0D01*
G01*
X5450000Y-2850000D02*
G75*
G02*
X5750000Y-2850000I150000J0D01*
G01*
X9306110Y-15100360D02*
G75*
G02*
X9006110Y-15100360I-150000J0D01*
G01*
X9006110Y-15100360D02*
G75*
G02*
X9306110Y-15100360I150000J0D01*
G01*
X5750110Y-15100360D02*
G75*
G02*
X5450110Y-15100360I-150000J0D01*
G01*
X5450110Y-15100360D02*
G75*
G02*
X5750110Y-15100360I150000J0D01*
G01*
X4850110Y-2550360D02*
X9910110Y-2550360D01*
X4850110Y-15400360D02*
X4850110Y-2550360D01*
X9910110Y-15400360D02*
X4850110Y-15400360D01*
X9910110Y-2550360D02*
X9910110Y-15400360D01*
D11*
X5105887Y-15716844D02*
X5105887Y-15516844D01*
X5105887Y-15516844D02*
X5153506Y-15516844D01*
X5153506Y-15516844D02*
X5182077Y-15526368D01*
X5182077Y-15526368D02*
X5201125Y-15545415D01*
X5201125Y-15545415D02*
X5210649Y-15564463D01*
X5210649Y-15564463D02*
X5220173Y-15602558D01*
X5220173Y-15602558D02*
X5220173Y-15631129D01*
X5220173Y-15631129D02*
X5210649Y-15669225D01*
X5210649Y-15669225D02*
X5201125Y-15688272D01*
X5201125Y-15688272D02*
X5182077Y-15707320D01*
X5182077Y-15707320D02*
X5153506Y-15716844D01*
X5153506Y-15716844D02*
X5105887Y-15716844D01*
X5305887Y-15716844D02*
X5305887Y-15583510D01*
X5305887Y-15621606D02*
X5315411Y-15602558D01*
X5315411Y-15602558D02*
X5324934Y-15593034D01*
X5324934Y-15593034D02*
X5343982Y-15583510D01*
X5343982Y-15583510D02*
X5363030Y-15583510D01*
X5429696Y-15716844D02*
X5429696Y-15583510D01*
X5429696Y-15516844D02*
X5420173Y-15526368D01*
X5420173Y-15526368D02*
X5429696Y-15535891D01*
X5429696Y-15535891D02*
X5439220Y-15526368D01*
X5439220Y-15526368D02*
X5429696Y-15516844D01*
X5429696Y-15516844D02*
X5429696Y-15535891D01*
X5553506Y-15716844D02*
X5534458Y-15707320D01*
X5534458Y-15707320D02*
X5524934Y-15688272D01*
X5524934Y-15688272D02*
X5524934Y-15516844D01*
X5658268Y-15716844D02*
X5639220Y-15707320D01*
X5639220Y-15707320D02*
X5629696Y-15688272D01*
X5629696Y-15688272D02*
X5629696Y-15516844D01*
X5886839Y-15716844D02*
X5886839Y-15516844D01*
X5886839Y-15516844D02*
X5953506Y-15659701D01*
X5953506Y-15659701D02*
X6020172Y-15516844D01*
X6020172Y-15516844D02*
X6020172Y-15716844D01*
X6201125Y-15716844D02*
X6201125Y-15612082D01*
X6201125Y-15612082D02*
X6191601Y-15593034D01*
X6191601Y-15593034D02*
X6172553Y-15583510D01*
X6172553Y-15583510D02*
X6134458Y-15583510D01*
X6134458Y-15583510D02*
X6115411Y-15593034D01*
X6201125Y-15707320D02*
X6182077Y-15716844D01*
X6182077Y-15716844D02*
X6134458Y-15716844D01*
X6134458Y-15716844D02*
X6115411Y-15707320D01*
X6115411Y-15707320D02*
X6105887Y-15688272D01*
X6105887Y-15688272D02*
X6105887Y-15669225D01*
X6105887Y-15669225D02*
X6115411Y-15650177D01*
X6115411Y-15650177D02*
X6134458Y-15640653D01*
X6134458Y-15640653D02*
X6182077Y-15640653D01*
X6182077Y-15640653D02*
X6201125Y-15631129D01*
X6296363Y-15583510D02*
X6296363Y-15783510D01*
X6296363Y-15593034D02*
X6315411Y-15583510D01*
X6315411Y-15583510D02*
X6353506Y-15583510D01*
X6353506Y-15583510D02*
X6372553Y-15593034D01*
X6372553Y-15593034D02*
X6382077Y-15602558D01*
X6382077Y-15602558D02*
X6391601Y-15621606D01*
X6391601Y-15621606D02*
X6391601Y-15678748D01*
X6391601Y-15678748D02*
X6382077Y-15697796D01*
X6382077Y-15697796D02*
X6372553Y-15707320D01*
X6372553Y-15707320D02*
X6353506Y-15716844D01*
X6353506Y-15716844D02*
X6315411Y-15716844D01*
X6315411Y-15716844D02*
X6296363Y-15707320D01*
X6477315Y-15697796D02*
X6486839Y-15707320D01*
X6486839Y-15707320D02*
X6477315Y-15716844D01*
X6477315Y-15716844D02*
X6467792Y-15707320D01*
X6467792Y-15707320D02*
X6477315Y-15697796D01*
X6477315Y-15697796D02*
X6477315Y-15716844D01*
X6477315Y-15593034D02*
X6486839Y-15602558D01*
X6486839Y-15602558D02*
X6477315Y-15612082D01*
X6477315Y-15612082D02*
X6467792Y-15602558D01*
X6467792Y-15602558D02*
X6477315Y-15593034D01*
X6477315Y-15593034D02*
X6477315Y-15612082D01*
M02*
