G04 #@! TF.GenerationSoftware,KiCad,Pcbnew,8.0.5*
G04 #@! TF.CreationDate,2024-09-25T17:40:01-05:00*
G04 #@! TF.ProjectId,Front Panel,46726f6e-7420-4506-916e-656c2e6b6963,rev?*
G04 #@! TF.SameCoordinates,Original*
G04 #@! TF.FileFunction,Legend,Top*
G04 #@! TF.FilePolarity,Positive*
%FSLAX46Y46*%
G04 Gerber Fmt 4.6, Leading zero omitted, Abs format (unit mm)*
G04 Created by KiCad (PCBNEW 8.0.5) date 2024-09-25 17:40:01*
%MOMM*%
%LPD*%
G01*
G04 APERTURE LIST*
%ADD10C,0.300000*%
%ADD11C,0.200000*%
G04 APERTURE END LIST*
D10*
X60607142Y-150606900D02*
X60821428Y-150678328D01*
X60821428Y-150678328D02*
X61178570Y-150678328D01*
X61178570Y-150678328D02*
X61321428Y-150606900D01*
X61321428Y-150606900D02*
X61392856Y-150535471D01*
X61392856Y-150535471D02*
X61464285Y-150392614D01*
X61464285Y-150392614D02*
X61464285Y-150249757D01*
X61464285Y-150249757D02*
X61392856Y-150106900D01*
X61392856Y-150106900D02*
X61321428Y-150035471D01*
X61321428Y-150035471D02*
X61178570Y-149964042D01*
X61178570Y-149964042D02*
X60892856Y-149892614D01*
X60892856Y-149892614D02*
X60749999Y-149821185D01*
X60749999Y-149821185D02*
X60678570Y-149749757D01*
X60678570Y-149749757D02*
X60607142Y-149606900D01*
X60607142Y-149606900D02*
X60607142Y-149464042D01*
X60607142Y-149464042D02*
X60678570Y-149321185D01*
X60678570Y-149321185D02*
X60749999Y-149249757D01*
X60749999Y-149249757D02*
X60892856Y-149178328D01*
X60892856Y-149178328D02*
X61249999Y-149178328D01*
X61249999Y-149178328D02*
X61464285Y-149249757D01*
X62392856Y-149964042D02*
X62392856Y-150678328D01*
X61892856Y-149178328D02*
X62392856Y-149964042D01*
X62392856Y-149964042D02*
X62892856Y-149178328D01*
X63392855Y-150678328D02*
X63392855Y-149178328D01*
X63392855Y-149178328D02*
X64249998Y-150678328D01*
X64249998Y-150678328D02*
X64249998Y-149178328D01*
X64749999Y-149178328D02*
X65607142Y-149178328D01*
X65178570Y-150678328D02*
X65178570Y-149178328D01*
X66107141Y-150678328D02*
X66107141Y-149178328D01*
X66107141Y-149892614D02*
X66964284Y-149892614D01*
X66964284Y-150678328D02*
X66964284Y-149178328D01*
X67678570Y-149892614D02*
X68178570Y-149892614D01*
X68392856Y-150678328D02*
X67678570Y-150678328D01*
X67678570Y-150678328D02*
X67678570Y-149178328D01*
X67678570Y-149178328D02*
X68392856Y-149178328D01*
X68964285Y-150606900D02*
X69178571Y-150678328D01*
X69178571Y-150678328D02*
X69535713Y-150678328D01*
X69535713Y-150678328D02*
X69678571Y-150606900D01*
X69678571Y-150606900D02*
X69749999Y-150535471D01*
X69749999Y-150535471D02*
X69821428Y-150392614D01*
X69821428Y-150392614D02*
X69821428Y-150249757D01*
X69821428Y-150249757D02*
X69749999Y-150106900D01*
X69749999Y-150106900D02*
X69678571Y-150035471D01*
X69678571Y-150035471D02*
X69535713Y-149964042D01*
X69535713Y-149964042D02*
X69249999Y-149892614D01*
X69249999Y-149892614D02*
X69107142Y-149821185D01*
X69107142Y-149821185D02*
X69035713Y-149749757D01*
X69035713Y-149749757D02*
X68964285Y-149606900D01*
X68964285Y-149606900D02*
X68964285Y-149464042D01*
X68964285Y-149464042D02*
X69035713Y-149321185D01*
X69035713Y-149321185D02*
X69107142Y-149249757D01*
X69107142Y-149249757D02*
X69249999Y-149178328D01*
X69249999Y-149178328D02*
X69607142Y-149178328D01*
X69607142Y-149178328D02*
X69821428Y-149249757D01*
X70464284Y-150678328D02*
X70464284Y-149178328D01*
X71107142Y-150606900D02*
X71321428Y-150678328D01*
X71321428Y-150678328D02*
X71678570Y-150678328D01*
X71678570Y-150678328D02*
X71821428Y-150606900D01*
X71821428Y-150606900D02*
X71892856Y-150535471D01*
X71892856Y-150535471D02*
X71964285Y-150392614D01*
X71964285Y-150392614D02*
X71964285Y-150249757D01*
X71964285Y-150249757D02*
X71892856Y-150106900D01*
X71892856Y-150106900D02*
X71821428Y-150035471D01*
X71821428Y-150035471D02*
X71678570Y-149964042D01*
X71678570Y-149964042D02*
X71392856Y-149892614D01*
X71392856Y-149892614D02*
X71249999Y-149821185D01*
X71249999Y-149821185D02*
X71178570Y-149749757D01*
X71178570Y-149749757D02*
X71107142Y-149606900D01*
X71107142Y-149606900D02*
X71107142Y-149464042D01*
X71107142Y-149464042D02*
X71178570Y-149321185D01*
X71178570Y-149321185D02*
X71249999Y-149249757D01*
X71249999Y-149249757D02*
X71392856Y-149178328D01*
X71392856Y-149178328D02*
X71749999Y-149178328D01*
X71749999Y-149178328D02*
X71964285Y-149249757D01*
X73535713Y-149178328D02*
X74392856Y-149178328D01*
X73964284Y-150678328D02*
X73964284Y-149178328D01*
X74892855Y-149892614D02*
X75392855Y-149892614D01*
X75607141Y-150678328D02*
X74892855Y-150678328D01*
X74892855Y-150678328D02*
X74892855Y-149178328D01*
X74892855Y-149178328D02*
X75607141Y-149178328D01*
X77107141Y-150535471D02*
X77035713Y-150606900D01*
X77035713Y-150606900D02*
X76821427Y-150678328D01*
X76821427Y-150678328D02*
X76678570Y-150678328D01*
X76678570Y-150678328D02*
X76464284Y-150606900D01*
X76464284Y-150606900D02*
X76321427Y-150464042D01*
X76321427Y-150464042D02*
X76249998Y-150321185D01*
X76249998Y-150321185D02*
X76178570Y-150035471D01*
X76178570Y-150035471D02*
X76178570Y-149821185D01*
X76178570Y-149821185D02*
X76249998Y-149535471D01*
X76249998Y-149535471D02*
X76321427Y-149392614D01*
X76321427Y-149392614D02*
X76464284Y-149249757D01*
X76464284Y-149249757D02*
X76678570Y-149178328D01*
X76678570Y-149178328D02*
X76821427Y-149178328D01*
X76821427Y-149178328D02*
X77035713Y-149249757D01*
X77035713Y-149249757D02*
X77107141Y-149321185D01*
X77749998Y-150678328D02*
X77749998Y-149178328D01*
X77749998Y-149892614D02*
X78607141Y-149892614D01*
X78607141Y-150678328D02*
X78607141Y-149178328D01*
X79321427Y-150678328D02*
X79321427Y-149178328D01*
X79321427Y-149178328D02*
X80178570Y-150678328D01*
X80178570Y-150678328D02*
X80178570Y-149178328D01*
X81178571Y-149178328D02*
X81464285Y-149178328D01*
X81464285Y-149178328D02*
X81607142Y-149249757D01*
X81607142Y-149249757D02*
X81749999Y-149392614D01*
X81749999Y-149392614D02*
X81821428Y-149678328D01*
X81821428Y-149678328D02*
X81821428Y-150178328D01*
X81821428Y-150178328D02*
X81749999Y-150464042D01*
X81749999Y-150464042D02*
X81607142Y-150606900D01*
X81607142Y-150606900D02*
X81464285Y-150678328D01*
X81464285Y-150678328D02*
X81178571Y-150678328D01*
X81178571Y-150678328D02*
X81035714Y-150606900D01*
X81035714Y-150606900D02*
X80892856Y-150464042D01*
X80892856Y-150464042D02*
X80821428Y-150178328D01*
X80821428Y-150178328D02*
X80821428Y-149678328D01*
X80821428Y-149678328D02*
X80892856Y-149392614D01*
X80892856Y-149392614D02*
X81035714Y-149249757D01*
X81035714Y-149249757D02*
X81178571Y-149178328D01*
X83178571Y-150678328D02*
X82464285Y-150678328D01*
X82464285Y-150678328D02*
X82464285Y-149178328D01*
X83964286Y-149178328D02*
X84250000Y-149178328D01*
X84250000Y-149178328D02*
X84392857Y-149249757D01*
X84392857Y-149249757D02*
X84535714Y-149392614D01*
X84535714Y-149392614D02*
X84607143Y-149678328D01*
X84607143Y-149678328D02*
X84607143Y-150178328D01*
X84607143Y-150178328D02*
X84535714Y-150464042D01*
X84535714Y-150464042D02*
X84392857Y-150606900D01*
X84392857Y-150606900D02*
X84250000Y-150678328D01*
X84250000Y-150678328D02*
X83964286Y-150678328D01*
X83964286Y-150678328D02*
X83821429Y-150606900D01*
X83821429Y-150606900D02*
X83678571Y-150464042D01*
X83678571Y-150464042D02*
X83607143Y-150178328D01*
X83607143Y-150178328D02*
X83607143Y-149678328D01*
X83607143Y-149678328D02*
X83678571Y-149392614D01*
X83678571Y-149392614D02*
X83821429Y-149249757D01*
X83821429Y-149249757D02*
X83964286Y-149178328D01*
X86035715Y-149249757D02*
X85892858Y-149178328D01*
X85892858Y-149178328D02*
X85678572Y-149178328D01*
X85678572Y-149178328D02*
X85464286Y-149249757D01*
X85464286Y-149249757D02*
X85321429Y-149392614D01*
X85321429Y-149392614D02*
X85250000Y-149535471D01*
X85250000Y-149535471D02*
X85178572Y-149821185D01*
X85178572Y-149821185D02*
X85178572Y-150035471D01*
X85178572Y-150035471D02*
X85250000Y-150321185D01*
X85250000Y-150321185D02*
X85321429Y-150464042D01*
X85321429Y-150464042D02*
X85464286Y-150606900D01*
X85464286Y-150606900D02*
X85678572Y-150678328D01*
X85678572Y-150678328D02*
X85821429Y-150678328D01*
X85821429Y-150678328D02*
X86035715Y-150606900D01*
X86035715Y-150606900D02*
X86107143Y-150535471D01*
X86107143Y-150535471D02*
X86107143Y-150035471D01*
X86107143Y-150035471D02*
X85821429Y-150035471D01*
X87035715Y-149964042D02*
X87035715Y-150678328D01*
X86535715Y-149178328D02*
X87035715Y-149964042D01*
X87035715Y-149964042D02*
X87535715Y-149178328D01*
X87142856Y-124372257D02*
X86428570Y-124372257D01*
X86428570Y-124372257D02*
X86428570Y-121372257D01*
X87928571Y-121372257D02*
X88214285Y-121372257D01*
X88214285Y-121372257D02*
X88357142Y-121515114D01*
X88357142Y-121515114D02*
X88499999Y-121800828D01*
X88499999Y-121800828D02*
X88571428Y-122372257D01*
X88571428Y-122372257D02*
X88571428Y-123372257D01*
X88571428Y-123372257D02*
X88499999Y-123943685D01*
X88499999Y-123943685D02*
X88357142Y-124229400D01*
X88357142Y-124229400D02*
X88214285Y-124372257D01*
X88214285Y-124372257D02*
X87928571Y-124372257D01*
X87928571Y-124372257D02*
X87785714Y-124229400D01*
X87785714Y-124229400D02*
X87642856Y-123943685D01*
X87642856Y-123943685D02*
X87571428Y-123372257D01*
X87571428Y-123372257D02*
X87571428Y-122372257D01*
X87571428Y-122372257D02*
X87642856Y-121800828D01*
X87642856Y-121800828D02*
X87785714Y-121515114D01*
X87785714Y-121515114D02*
X87928571Y-121372257D01*
X89214285Y-124372257D02*
X89214285Y-121372257D01*
X89214285Y-121372257D02*
X90071428Y-124372257D01*
X90071428Y-124372257D02*
X90071428Y-121372257D01*
X91571429Y-121515114D02*
X91428572Y-121372257D01*
X91428572Y-121372257D02*
X91214286Y-121372257D01*
X91214286Y-121372257D02*
X91000000Y-121515114D01*
X91000000Y-121515114D02*
X90857143Y-121800828D01*
X90857143Y-121800828D02*
X90785714Y-122086542D01*
X90785714Y-122086542D02*
X90714286Y-122657971D01*
X90714286Y-122657971D02*
X90714286Y-123086542D01*
X90714286Y-123086542D02*
X90785714Y-123657971D01*
X90785714Y-123657971D02*
X90857143Y-123943685D01*
X90857143Y-123943685D02*
X91000000Y-124229400D01*
X91000000Y-124229400D02*
X91214286Y-124372257D01*
X91214286Y-124372257D02*
X91357143Y-124372257D01*
X91357143Y-124372257D02*
X91571429Y-124229400D01*
X91571429Y-124229400D02*
X91642857Y-124086542D01*
X91642857Y-124086542D02*
X91642857Y-123086542D01*
X91642857Y-123086542D02*
X91357143Y-123086542D01*
X70250000Y-124229400D02*
X70464286Y-124372257D01*
X70464286Y-124372257D02*
X70821428Y-124372257D01*
X70821428Y-124372257D02*
X70964286Y-124229400D01*
X70964286Y-124229400D02*
X71035714Y-124086542D01*
X71035714Y-124086542D02*
X71107143Y-123800828D01*
X71107143Y-123800828D02*
X71107143Y-123515114D01*
X71107143Y-123515114D02*
X71035714Y-123229400D01*
X71035714Y-123229400D02*
X70964286Y-123086542D01*
X70964286Y-123086542D02*
X70821428Y-122943685D01*
X70821428Y-122943685D02*
X70535714Y-122800828D01*
X70535714Y-122800828D02*
X70392857Y-122657971D01*
X70392857Y-122657971D02*
X70321428Y-122515114D01*
X70321428Y-122515114D02*
X70250000Y-122229400D01*
X70250000Y-122229400D02*
X70250000Y-121943685D01*
X70250000Y-121943685D02*
X70321428Y-121657971D01*
X70321428Y-121657971D02*
X70392857Y-121515114D01*
X70392857Y-121515114D02*
X70535714Y-121372257D01*
X70535714Y-121372257D02*
X70892857Y-121372257D01*
X70892857Y-121372257D02*
X71107143Y-121515114D01*
X71749999Y-124372257D02*
X71749999Y-121372257D01*
X71749999Y-122800828D02*
X72607142Y-122800828D01*
X72607142Y-124372257D02*
X72607142Y-121372257D01*
X73607143Y-121372257D02*
X73892857Y-121372257D01*
X73892857Y-121372257D02*
X74035714Y-121515114D01*
X74035714Y-121515114D02*
X74178571Y-121800828D01*
X74178571Y-121800828D02*
X74250000Y-122372257D01*
X74250000Y-122372257D02*
X74250000Y-123372257D01*
X74250000Y-123372257D02*
X74178571Y-123943685D01*
X74178571Y-123943685D02*
X74035714Y-124229400D01*
X74035714Y-124229400D02*
X73892857Y-124372257D01*
X73892857Y-124372257D02*
X73607143Y-124372257D01*
X73607143Y-124372257D02*
X73464286Y-124229400D01*
X73464286Y-124229400D02*
X73321428Y-123943685D01*
X73321428Y-123943685D02*
X73250000Y-123372257D01*
X73250000Y-123372257D02*
X73250000Y-122372257D01*
X73250000Y-122372257D02*
X73321428Y-121800828D01*
X73321428Y-121800828D02*
X73464286Y-121515114D01*
X73464286Y-121515114D02*
X73607143Y-121372257D01*
X75750000Y-124372257D02*
X75250000Y-122943685D01*
X74892857Y-124372257D02*
X74892857Y-121372257D01*
X74892857Y-121372257D02*
X75464286Y-121372257D01*
X75464286Y-121372257D02*
X75607143Y-121515114D01*
X75607143Y-121515114D02*
X75678572Y-121657971D01*
X75678572Y-121657971D02*
X75750000Y-121943685D01*
X75750000Y-121943685D02*
X75750000Y-122372257D01*
X75750000Y-122372257D02*
X75678572Y-122657971D01*
X75678572Y-122657971D02*
X75607143Y-122800828D01*
X75607143Y-122800828D02*
X75464286Y-122943685D01*
X75464286Y-122943685D02*
X74892857Y-122943685D01*
X76178572Y-121372257D02*
X77035715Y-121372257D01*
X76607143Y-124372257D02*
X76607143Y-121372257D01*
X55928571Y-122800828D02*
X56142857Y-122943685D01*
X56142857Y-122943685D02*
X56214286Y-123086542D01*
X56214286Y-123086542D02*
X56285714Y-123372257D01*
X56285714Y-123372257D02*
X56285714Y-123800828D01*
X56285714Y-123800828D02*
X56214286Y-124086542D01*
X56214286Y-124086542D02*
X56142857Y-124229400D01*
X56142857Y-124229400D02*
X56000000Y-124372257D01*
X56000000Y-124372257D02*
X55428571Y-124372257D01*
X55428571Y-124372257D02*
X55428571Y-121372257D01*
X55428571Y-121372257D02*
X55928571Y-121372257D01*
X55928571Y-121372257D02*
X56071429Y-121515114D01*
X56071429Y-121515114D02*
X56142857Y-121657971D01*
X56142857Y-121657971D02*
X56214286Y-121943685D01*
X56214286Y-121943685D02*
X56214286Y-122229400D01*
X56214286Y-122229400D02*
X56142857Y-122515114D01*
X56142857Y-122515114D02*
X56071429Y-122657971D01*
X56071429Y-122657971D02*
X55928571Y-122800828D01*
X55928571Y-122800828D02*
X55428571Y-122800828D01*
X56857143Y-123515114D02*
X57571429Y-123515114D01*
X56714286Y-124372257D02*
X57214286Y-121372257D01*
X57214286Y-121372257D02*
X57714286Y-124372257D01*
X58214285Y-124372257D02*
X58214285Y-121372257D01*
X58214285Y-121372257D02*
X59071428Y-124372257D01*
X59071428Y-124372257D02*
X59071428Y-121372257D01*
X59785714Y-124372257D02*
X59785714Y-121372257D01*
X60642857Y-124372257D02*
X60000000Y-122657971D01*
X60642857Y-121372257D02*
X59785714Y-123086542D01*
X54535713Y-95800828D02*
X54749999Y-95943685D01*
X54749999Y-95943685D02*
X54821428Y-96086542D01*
X54821428Y-96086542D02*
X54892856Y-96372257D01*
X54892856Y-96372257D02*
X54892856Y-96800828D01*
X54892856Y-96800828D02*
X54821428Y-97086542D01*
X54821428Y-97086542D02*
X54749999Y-97229400D01*
X54749999Y-97229400D02*
X54607142Y-97372257D01*
X54607142Y-97372257D02*
X54035713Y-97372257D01*
X54035713Y-97372257D02*
X54035713Y-94372257D01*
X54035713Y-94372257D02*
X54535713Y-94372257D01*
X54535713Y-94372257D02*
X54678571Y-94515114D01*
X54678571Y-94515114D02*
X54749999Y-94657971D01*
X54749999Y-94657971D02*
X54821428Y-94943685D01*
X54821428Y-94943685D02*
X54821428Y-95229400D01*
X54821428Y-95229400D02*
X54749999Y-95515114D01*
X54749999Y-95515114D02*
X54678571Y-95657971D01*
X54678571Y-95657971D02*
X54535713Y-95800828D01*
X54535713Y-95800828D02*
X54035713Y-95800828D01*
X55464285Y-96515114D02*
X56178571Y-96515114D01*
X55321428Y-97372257D02*
X55821428Y-94372257D01*
X55821428Y-94372257D02*
X56321428Y-97372257D01*
X56821427Y-97372257D02*
X56821427Y-94372257D01*
X56821427Y-94372257D02*
X57678570Y-97372257D01*
X57678570Y-97372257D02*
X57678570Y-94372257D01*
X58392856Y-97372257D02*
X58392856Y-94372257D01*
X59249999Y-97372257D02*
X58607142Y-95657971D01*
X59249999Y-94372257D02*
X58392856Y-96086542D01*
X61035713Y-97372257D02*
X61035713Y-94372257D01*
X61035713Y-94372257D02*
X61535713Y-96515114D01*
X61535713Y-96515114D02*
X62035713Y-94372257D01*
X62035713Y-94372257D02*
X62035713Y-97372257D01*
X63035714Y-94372257D02*
X63321428Y-94372257D01*
X63321428Y-94372257D02*
X63464285Y-94515114D01*
X63464285Y-94515114D02*
X63607142Y-94800828D01*
X63607142Y-94800828D02*
X63678571Y-95372257D01*
X63678571Y-95372257D02*
X63678571Y-96372257D01*
X63678571Y-96372257D02*
X63607142Y-96943685D01*
X63607142Y-96943685D02*
X63464285Y-97229400D01*
X63464285Y-97229400D02*
X63321428Y-97372257D01*
X63321428Y-97372257D02*
X63035714Y-97372257D01*
X63035714Y-97372257D02*
X62892857Y-97229400D01*
X62892857Y-97229400D02*
X62749999Y-96943685D01*
X62749999Y-96943685D02*
X62678571Y-96372257D01*
X62678571Y-96372257D02*
X62678571Y-95372257D01*
X62678571Y-95372257D02*
X62749999Y-94800828D01*
X62749999Y-94800828D02*
X62892857Y-94515114D01*
X62892857Y-94515114D02*
X63035714Y-94372257D01*
X64321428Y-97372257D02*
X64321428Y-94372257D01*
X64321428Y-94372257D02*
X64678571Y-94372257D01*
X64678571Y-94372257D02*
X64892857Y-94515114D01*
X64892857Y-94515114D02*
X65035714Y-94800828D01*
X65035714Y-94800828D02*
X65107143Y-95086542D01*
X65107143Y-95086542D02*
X65178571Y-95657971D01*
X65178571Y-95657971D02*
X65178571Y-96086542D01*
X65178571Y-96086542D02*
X65107143Y-96657971D01*
X65107143Y-96657971D02*
X65035714Y-96943685D01*
X65035714Y-96943685D02*
X64892857Y-97229400D01*
X64892857Y-97229400D02*
X64678571Y-97372257D01*
X64678571Y-97372257D02*
X64321428Y-97372257D01*
D11*
X95000000Y-95000000D02*
X92000000Y-95000000D01*
X95000000Y-119000000D02*
X95000000Y-95000000D01*
X81000000Y-119000000D02*
X95000000Y-119000000D01*
X81000000Y-95000000D02*
X81000000Y-119000000D01*
X84000000Y-95000000D02*
X81000000Y-95000000D01*
D10*
X85285713Y-96372257D02*
X85285713Y-93372257D01*
X85285713Y-93372257D02*
X85785713Y-95515114D01*
X85785713Y-95515114D02*
X86285713Y-93372257D01*
X86285713Y-93372257D02*
X86285713Y-96372257D01*
X87285714Y-93372257D02*
X87571428Y-93372257D01*
X87571428Y-93372257D02*
X87714285Y-93515114D01*
X87714285Y-93515114D02*
X87857142Y-93800828D01*
X87857142Y-93800828D02*
X87928571Y-94372257D01*
X87928571Y-94372257D02*
X87928571Y-95372257D01*
X87928571Y-95372257D02*
X87857142Y-95943685D01*
X87857142Y-95943685D02*
X87714285Y-96229400D01*
X87714285Y-96229400D02*
X87571428Y-96372257D01*
X87571428Y-96372257D02*
X87285714Y-96372257D01*
X87285714Y-96372257D02*
X87142857Y-96229400D01*
X87142857Y-96229400D02*
X86999999Y-95943685D01*
X86999999Y-95943685D02*
X86928571Y-95372257D01*
X86928571Y-95372257D02*
X86928571Y-94372257D01*
X86928571Y-94372257D02*
X86999999Y-93800828D01*
X86999999Y-93800828D02*
X87142857Y-93515114D01*
X87142857Y-93515114D02*
X87285714Y-93372257D01*
X88571428Y-96372257D02*
X88571428Y-93372257D01*
X88571428Y-93372257D02*
X88928571Y-93372257D01*
X88928571Y-93372257D02*
X89142857Y-93515114D01*
X89142857Y-93515114D02*
X89285714Y-93800828D01*
X89285714Y-93800828D02*
X89357143Y-94086542D01*
X89357143Y-94086542D02*
X89428571Y-94657971D01*
X89428571Y-94657971D02*
X89428571Y-95086542D01*
X89428571Y-95086542D02*
X89357143Y-95657971D01*
X89357143Y-95657971D02*
X89285714Y-95943685D01*
X89285714Y-95943685D02*
X89142857Y-96229400D01*
X89142857Y-96229400D02*
X88928571Y-96372257D01*
X88928571Y-96372257D02*
X88571428Y-96372257D01*
X90071428Y-94800828D02*
X90571428Y-94800828D01*
X90785714Y-96372257D02*
X90071428Y-96372257D01*
X90071428Y-96372257D02*
X90071428Y-93372257D01*
X90071428Y-93372257D02*
X90785714Y-93372257D01*
X81999999Y-116147733D02*
X83142857Y-116147733D01*
X85714285Y-116909638D02*
X84999999Y-116909638D01*
X84999999Y-116909638D02*
X84999999Y-114909638D01*
X86142857Y-116338209D02*
X86857143Y-116338209D01*
X86000000Y-116909638D02*
X86500000Y-114909638D01*
X86500000Y-114909638D02*
X87000000Y-116909638D01*
X87285714Y-114909638D02*
X88142857Y-114909638D01*
X87714285Y-116909638D02*
X87714285Y-114909638D01*
X89499999Y-116719161D02*
X89428571Y-116814400D01*
X89428571Y-116814400D02*
X89214285Y-116909638D01*
X89214285Y-116909638D02*
X89071428Y-116909638D01*
X89071428Y-116909638D02*
X88857142Y-116814400D01*
X88857142Y-116814400D02*
X88714285Y-116623923D01*
X88714285Y-116623923D02*
X88642856Y-116433447D01*
X88642856Y-116433447D02*
X88571428Y-116052495D01*
X88571428Y-116052495D02*
X88571428Y-115766780D01*
X88571428Y-115766780D02*
X88642856Y-115385828D01*
X88642856Y-115385828D02*
X88714285Y-115195352D01*
X88714285Y-115195352D02*
X88857142Y-115004876D01*
X88857142Y-115004876D02*
X89071428Y-114909638D01*
X89071428Y-114909638D02*
X89214285Y-114909638D01*
X89214285Y-114909638D02*
X89428571Y-115004876D01*
X89428571Y-115004876D02*
X89499999Y-115100114D01*
X90142856Y-116909638D02*
X90142856Y-114909638D01*
X90142856Y-115862019D02*
X90999999Y-115862019D01*
X90999999Y-116909638D02*
X90999999Y-114909638D01*
X92857142Y-116147733D02*
X94000000Y-116147733D01*
X82535713Y-100147733D02*
X83678571Y-100147733D01*
X84392856Y-100909638D02*
X84392856Y-98909638D01*
X84392856Y-98909638D02*
X84892856Y-100338209D01*
X84892856Y-100338209D02*
X85392856Y-98909638D01*
X85392856Y-98909638D02*
X85392856Y-100909638D01*
X86392857Y-98909638D02*
X86678571Y-98909638D01*
X86678571Y-98909638D02*
X86821428Y-99004876D01*
X86821428Y-99004876D02*
X86964285Y-99195352D01*
X86964285Y-99195352D02*
X87035714Y-99576304D01*
X87035714Y-99576304D02*
X87035714Y-100242971D01*
X87035714Y-100242971D02*
X86964285Y-100623923D01*
X86964285Y-100623923D02*
X86821428Y-100814400D01*
X86821428Y-100814400D02*
X86678571Y-100909638D01*
X86678571Y-100909638D02*
X86392857Y-100909638D01*
X86392857Y-100909638D02*
X86250000Y-100814400D01*
X86250000Y-100814400D02*
X86107142Y-100623923D01*
X86107142Y-100623923D02*
X86035714Y-100242971D01*
X86035714Y-100242971D02*
X86035714Y-99576304D01*
X86035714Y-99576304D02*
X86107142Y-99195352D01*
X86107142Y-99195352D02*
X86250000Y-99004876D01*
X86250000Y-99004876D02*
X86392857Y-98909638D01*
X87678571Y-100909638D02*
X87678571Y-98909638D01*
X87678571Y-98909638D02*
X88178571Y-100338209D01*
X88178571Y-100338209D02*
X88678571Y-98909638D01*
X88678571Y-98909638D02*
X88678571Y-100909638D01*
X89392857Y-99862019D02*
X89892857Y-99862019D01*
X90107143Y-100909638D02*
X89392857Y-100909638D01*
X89392857Y-100909638D02*
X89392857Y-98909638D01*
X89392857Y-98909638D02*
X90107143Y-98909638D01*
X90750000Y-100909638D02*
X90750000Y-98909638D01*
X90750000Y-98909638D02*
X91607143Y-100909638D01*
X91607143Y-100909638D02*
X91607143Y-98909638D01*
X92321429Y-100147733D02*
X93464287Y-100147733D01*
X87142856Y-79834876D02*
X86428570Y-79834876D01*
X86428570Y-79834876D02*
X86428570Y-75834876D01*
X87928571Y-75834876D02*
X88214285Y-75834876D01*
X88214285Y-75834876D02*
X88357142Y-76025352D01*
X88357142Y-76025352D02*
X88499999Y-76406304D01*
X88499999Y-76406304D02*
X88571428Y-77168209D01*
X88571428Y-77168209D02*
X88571428Y-78501542D01*
X88571428Y-78501542D02*
X88499999Y-79263447D01*
X88499999Y-79263447D02*
X88357142Y-79644400D01*
X88357142Y-79644400D02*
X88214285Y-79834876D01*
X88214285Y-79834876D02*
X87928571Y-79834876D01*
X87928571Y-79834876D02*
X87785714Y-79644400D01*
X87785714Y-79644400D02*
X87642856Y-79263447D01*
X87642856Y-79263447D02*
X87571428Y-78501542D01*
X87571428Y-78501542D02*
X87571428Y-77168209D01*
X87571428Y-77168209D02*
X87642856Y-76406304D01*
X87642856Y-76406304D02*
X87785714Y-76025352D01*
X87785714Y-76025352D02*
X87928571Y-75834876D01*
X89214285Y-79834876D02*
X89214285Y-75834876D01*
X89214285Y-75834876D02*
X90071428Y-79834876D01*
X90071428Y-79834876D02*
X90071428Y-75834876D01*
X91571429Y-76025352D02*
X91428572Y-75834876D01*
X91428572Y-75834876D02*
X91214286Y-75834876D01*
X91214286Y-75834876D02*
X91000000Y-76025352D01*
X91000000Y-76025352D02*
X90857143Y-76406304D01*
X90857143Y-76406304D02*
X90785714Y-76787257D01*
X90785714Y-76787257D02*
X90714286Y-77549161D01*
X90714286Y-77549161D02*
X90714286Y-78120590D01*
X90714286Y-78120590D02*
X90785714Y-78882495D01*
X90785714Y-78882495D02*
X90857143Y-79263447D01*
X90857143Y-79263447D02*
X91000000Y-79644400D01*
X91000000Y-79644400D02*
X91214286Y-79834876D01*
X91214286Y-79834876D02*
X91357143Y-79834876D01*
X91357143Y-79834876D02*
X91571429Y-79644400D01*
X91571429Y-79644400D02*
X91642857Y-79453923D01*
X91642857Y-79453923D02*
X91642857Y-78120590D01*
X91642857Y-78120590D02*
X91357143Y-78120590D01*
X70107143Y-79644400D02*
X70321429Y-79834876D01*
X70321429Y-79834876D02*
X70678571Y-79834876D01*
X70678571Y-79834876D02*
X70821429Y-79644400D01*
X70821429Y-79644400D02*
X70892857Y-79453923D01*
X70892857Y-79453923D02*
X70964286Y-79072971D01*
X70964286Y-79072971D02*
X70964286Y-78692019D01*
X70964286Y-78692019D02*
X70892857Y-78311066D01*
X70892857Y-78311066D02*
X70821429Y-78120590D01*
X70821429Y-78120590D02*
X70678571Y-77930114D01*
X70678571Y-77930114D02*
X70392857Y-77739638D01*
X70392857Y-77739638D02*
X70250000Y-77549161D01*
X70250000Y-77549161D02*
X70178571Y-77358685D01*
X70178571Y-77358685D02*
X70107143Y-76977733D01*
X70107143Y-76977733D02*
X70107143Y-76596780D01*
X70107143Y-76596780D02*
X70178571Y-76215828D01*
X70178571Y-76215828D02*
X70250000Y-76025352D01*
X70250000Y-76025352D02*
X70392857Y-75834876D01*
X70392857Y-75834876D02*
X70750000Y-75834876D01*
X70750000Y-75834876D02*
X70964286Y-76025352D01*
X71607142Y-79834876D02*
X71607142Y-75834876D01*
X71607142Y-77739638D02*
X72464285Y-77739638D01*
X72464285Y-79834876D02*
X72464285Y-75834876D01*
X73464286Y-75834876D02*
X73750000Y-75834876D01*
X73750000Y-75834876D02*
X73892857Y-76025352D01*
X73892857Y-76025352D02*
X74035714Y-76406304D01*
X74035714Y-76406304D02*
X74107143Y-77168209D01*
X74107143Y-77168209D02*
X74107143Y-78501542D01*
X74107143Y-78501542D02*
X74035714Y-79263447D01*
X74035714Y-79263447D02*
X73892857Y-79644400D01*
X73892857Y-79644400D02*
X73750000Y-79834876D01*
X73750000Y-79834876D02*
X73464286Y-79834876D01*
X73464286Y-79834876D02*
X73321429Y-79644400D01*
X73321429Y-79644400D02*
X73178571Y-79263447D01*
X73178571Y-79263447D02*
X73107143Y-78501542D01*
X73107143Y-78501542D02*
X73107143Y-77168209D01*
X73107143Y-77168209D02*
X73178571Y-76406304D01*
X73178571Y-76406304D02*
X73321429Y-76025352D01*
X73321429Y-76025352D02*
X73464286Y-75834876D01*
X75607143Y-79834876D02*
X75107143Y-77930114D01*
X74750000Y-79834876D02*
X74750000Y-75834876D01*
X74750000Y-75834876D02*
X75321429Y-75834876D01*
X75321429Y-75834876D02*
X75464286Y-76025352D01*
X75464286Y-76025352D02*
X75535715Y-76215828D01*
X75535715Y-76215828D02*
X75607143Y-76596780D01*
X75607143Y-76596780D02*
X75607143Y-77168209D01*
X75607143Y-77168209D02*
X75535715Y-77549161D01*
X75535715Y-77549161D02*
X75464286Y-77739638D01*
X75464286Y-77739638D02*
X75321429Y-77930114D01*
X75321429Y-77930114D02*
X74750000Y-77930114D01*
X76035715Y-75834876D02*
X76892858Y-75834876D01*
X76464286Y-79834876D02*
X76464286Y-75834876D01*
X54750000Y-79644400D02*
X54964286Y-79834876D01*
X54964286Y-79834876D02*
X55321428Y-79834876D01*
X55321428Y-79834876D02*
X55464286Y-79644400D01*
X55464286Y-79644400D02*
X55535714Y-79453923D01*
X55535714Y-79453923D02*
X55607143Y-79072971D01*
X55607143Y-79072971D02*
X55607143Y-78692019D01*
X55607143Y-78692019D02*
X55535714Y-78311066D01*
X55535714Y-78311066D02*
X55464286Y-78120590D01*
X55464286Y-78120590D02*
X55321428Y-77930114D01*
X55321428Y-77930114D02*
X55035714Y-77739638D01*
X55035714Y-77739638D02*
X54892857Y-77549161D01*
X54892857Y-77549161D02*
X54821428Y-77358685D01*
X54821428Y-77358685D02*
X54750000Y-76977733D01*
X54750000Y-76977733D02*
X54750000Y-76596780D01*
X54750000Y-76596780D02*
X54821428Y-76215828D01*
X54821428Y-76215828D02*
X54892857Y-76025352D01*
X54892857Y-76025352D02*
X55035714Y-75834876D01*
X55035714Y-75834876D02*
X55392857Y-75834876D01*
X55392857Y-75834876D02*
X55607143Y-76025352D01*
X56249999Y-79834876D02*
X56249999Y-75834876D01*
X56249999Y-75834876D02*
X56821428Y-75834876D01*
X56821428Y-75834876D02*
X56964285Y-76025352D01*
X56964285Y-76025352D02*
X57035714Y-76215828D01*
X57035714Y-76215828D02*
X57107142Y-76596780D01*
X57107142Y-76596780D02*
X57107142Y-77168209D01*
X57107142Y-77168209D02*
X57035714Y-77549161D01*
X57035714Y-77549161D02*
X56964285Y-77739638D01*
X56964285Y-77739638D02*
X56821428Y-77930114D01*
X56821428Y-77930114D02*
X56249999Y-77930114D01*
X57749999Y-77739638D02*
X58249999Y-77739638D01*
X58464285Y-79834876D02*
X57749999Y-79834876D01*
X57749999Y-79834876D02*
X57749999Y-75834876D01*
X57749999Y-75834876D02*
X58464285Y-75834876D01*
X59035714Y-78692019D02*
X59750000Y-78692019D01*
X58892857Y-79834876D02*
X59392857Y-75834876D01*
X59392857Y-75834876D02*
X59892857Y-79834876D01*
X60392856Y-79834876D02*
X60392856Y-75834876D01*
X61249999Y-79834876D02*
X60607142Y-77549161D01*
X61249999Y-75834876D02*
X60392856Y-78120590D01*
X63928570Y-37834876D02*
X63214284Y-37834876D01*
X63214284Y-37834876D02*
X63214284Y-33834876D01*
X64714285Y-33834876D02*
X64999999Y-33834876D01*
X64999999Y-33834876D02*
X65142856Y-34025352D01*
X65142856Y-34025352D02*
X65285713Y-34406304D01*
X65285713Y-34406304D02*
X65357142Y-35168209D01*
X65357142Y-35168209D02*
X65357142Y-36501542D01*
X65357142Y-36501542D02*
X65285713Y-37263447D01*
X65285713Y-37263447D02*
X65142856Y-37644400D01*
X65142856Y-37644400D02*
X64999999Y-37834876D01*
X64999999Y-37834876D02*
X64714285Y-37834876D01*
X64714285Y-37834876D02*
X64571428Y-37644400D01*
X64571428Y-37644400D02*
X64428570Y-37263447D01*
X64428570Y-37263447D02*
X64357142Y-36501542D01*
X64357142Y-36501542D02*
X64357142Y-35168209D01*
X64357142Y-35168209D02*
X64428570Y-34406304D01*
X64428570Y-34406304D02*
X64571428Y-34025352D01*
X64571428Y-34025352D02*
X64714285Y-33834876D01*
X66285714Y-33834876D02*
X66571428Y-33834876D01*
X66571428Y-33834876D02*
X66714285Y-34025352D01*
X66714285Y-34025352D02*
X66857142Y-34406304D01*
X66857142Y-34406304D02*
X66928571Y-35168209D01*
X66928571Y-35168209D02*
X66928571Y-36501542D01*
X66928571Y-36501542D02*
X66857142Y-37263447D01*
X66857142Y-37263447D02*
X66714285Y-37644400D01*
X66714285Y-37644400D02*
X66571428Y-37834876D01*
X66571428Y-37834876D02*
X66285714Y-37834876D01*
X66285714Y-37834876D02*
X66142857Y-37644400D01*
X66142857Y-37644400D02*
X65999999Y-37263447D01*
X65999999Y-37263447D02*
X65928571Y-36501542D01*
X65928571Y-36501542D02*
X65928571Y-35168209D01*
X65928571Y-35168209D02*
X65999999Y-34406304D01*
X65999999Y-34406304D02*
X66142857Y-34025352D01*
X66142857Y-34025352D02*
X66285714Y-33834876D01*
X67571428Y-37834876D02*
X67571428Y-33834876D01*
X67571428Y-33834876D02*
X68142857Y-33834876D01*
X68142857Y-33834876D02*
X68285714Y-34025352D01*
X68285714Y-34025352D02*
X68357143Y-34215828D01*
X68357143Y-34215828D02*
X68428571Y-34596780D01*
X68428571Y-34596780D02*
X68428571Y-35168209D01*
X68428571Y-35168209D02*
X68357143Y-35549161D01*
X68357143Y-35549161D02*
X68285714Y-35739638D01*
X68285714Y-35739638D02*
X68142857Y-35930114D01*
X68142857Y-35930114D02*
X67571428Y-35930114D01*
X69071428Y-37834876D02*
X69071428Y-33834876D01*
X69785714Y-37834876D02*
X69785714Y-33834876D01*
X69785714Y-33834876D02*
X70642857Y-37834876D01*
X70642857Y-37834876D02*
X70642857Y-33834876D01*
X72142858Y-34025352D02*
X72000001Y-33834876D01*
X72000001Y-33834876D02*
X71785715Y-33834876D01*
X71785715Y-33834876D02*
X71571429Y-34025352D01*
X71571429Y-34025352D02*
X71428572Y-34406304D01*
X71428572Y-34406304D02*
X71357143Y-34787257D01*
X71357143Y-34787257D02*
X71285715Y-35549161D01*
X71285715Y-35549161D02*
X71285715Y-36120590D01*
X71285715Y-36120590D02*
X71357143Y-36882495D01*
X71357143Y-36882495D02*
X71428572Y-37263447D01*
X71428572Y-37263447D02*
X71571429Y-37644400D01*
X71571429Y-37644400D02*
X71785715Y-37834876D01*
X71785715Y-37834876D02*
X71928572Y-37834876D01*
X71928572Y-37834876D02*
X72142858Y-37644400D01*
X72142858Y-37644400D02*
X72214286Y-37453923D01*
X72214286Y-37453923D02*
X72214286Y-36120590D01*
X72214286Y-36120590D02*
X71928572Y-36120590D01*
X74000000Y-35739638D02*
X74500000Y-35739638D01*
X74714286Y-37834876D02*
X74000000Y-37834876D01*
X74000000Y-37834876D02*
X74000000Y-33834876D01*
X74000000Y-33834876D02*
X74714286Y-33834876D01*
X75214286Y-33834876D02*
X76214286Y-37834876D01*
X76214286Y-33834876D02*
X75214286Y-37834876D01*
X76785714Y-37834876D02*
X76785714Y-33834876D01*
X76785714Y-33834876D02*
X77357143Y-33834876D01*
X77357143Y-33834876D02*
X77500000Y-34025352D01*
X77500000Y-34025352D02*
X77571429Y-34215828D01*
X77571429Y-34215828D02*
X77642857Y-34596780D01*
X77642857Y-34596780D02*
X77642857Y-35168209D01*
X77642857Y-35168209D02*
X77571429Y-35549161D01*
X77571429Y-35549161D02*
X77500000Y-35739638D01*
X77500000Y-35739638D02*
X77357143Y-35930114D01*
X77357143Y-35930114D02*
X76785714Y-35930114D01*
X78214286Y-36692019D02*
X78928572Y-36692019D01*
X78071429Y-37834876D02*
X78571429Y-33834876D01*
X78571429Y-33834876D02*
X79071429Y-37834876D01*
X79571428Y-37834876D02*
X79571428Y-33834876D01*
X79571428Y-33834876D02*
X80428571Y-37834876D01*
X80428571Y-37834876D02*
X80428571Y-33834876D01*
X81142857Y-37834876D02*
X81142857Y-33834876D01*
X81142857Y-33834876D02*
X81500000Y-33834876D01*
X81500000Y-33834876D02*
X81714286Y-34025352D01*
X81714286Y-34025352D02*
X81857143Y-34406304D01*
X81857143Y-34406304D02*
X81928572Y-34787257D01*
X81928572Y-34787257D02*
X82000000Y-35549161D01*
X82000000Y-35549161D02*
X82000000Y-36120590D01*
X82000000Y-36120590D02*
X81928572Y-36882495D01*
X81928572Y-36882495D02*
X81857143Y-37263447D01*
X81857143Y-37263447D02*
X81714286Y-37644400D01*
X81714286Y-37644400D02*
X81500000Y-37834876D01*
X81500000Y-37834876D02*
X81142857Y-37834876D01*
X82642857Y-35739638D02*
X83142857Y-35739638D01*
X83357143Y-37834876D02*
X82642857Y-37834876D01*
X82642857Y-37834876D02*
X82642857Y-33834876D01*
X82642857Y-33834876D02*
X83357143Y-33834876D01*
X84857143Y-37834876D02*
X84357143Y-35930114D01*
X84000000Y-37834876D02*
X84000000Y-33834876D01*
X84000000Y-33834876D02*
X84571429Y-33834876D01*
X84571429Y-33834876D02*
X84714286Y-34025352D01*
X84714286Y-34025352D02*
X84785715Y-34215828D01*
X84785715Y-34215828D02*
X84857143Y-34596780D01*
X84857143Y-34596780D02*
X84857143Y-35168209D01*
X84857143Y-35168209D02*
X84785715Y-35549161D01*
X84785715Y-35549161D02*
X84714286Y-35739638D01*
X84714286Y-35739638D02*
X84571429Y-35930114D01*
X84571429Y-35930114D02*
X84000000Y-35930114D01*
X71535714Y-30800828D02*
X72035714Y-30800828D01*
X72250000Y-32372257D02*
X71535714Y-32372257D01*
X71535714Y-32372257D02*
X71535714Y-29372257D01*
X71535714Y-29372257D02*
X72250000Y-29372257D01*
X72964286Y-32372257D02*
X73250000Y-32372257D01*
X73250000Y-32372257D02*
X73392857Y-32229400D01*
X73392857Y-32229400D02*
X73464286Y-32086542D01*
X73464286Y-32086542D02*
X73607143Y-31657971D01*
X73607143Y-31657971D02*
X73678572Y-31086542D01*
X73678572Y-31086542D02*
X73678572Y-29943685D01*
X73678572Y-29943685D02*
X73607143Y-29657971D01*
X73607143Y-29657971D02*
X73535715Y-29515114D01*
X73535715Y-29515114D02*
X73392857Y-29372257D01*
X73392857Y-29372257D02*
X73107143Y-29372257D01*
X73107143Y-29372257D02*
X72964286Y-29515114D01*
X72964286Y-29515114D02*
X72892857Y-29657971D01*
X72892857Y-29657971D02*
X72821429Y-29943685D01*
X72821429Y-29943685D02*
X72821429Y-30657971D01*
X72821429Y-30657971D02*
X72892857Y-30943685D01*
X72892857Y-30943685D02*
X72964286Y-31086542D01*
X72964286Y-31086542D02*
X73107143Y-31229400D01*
X73107143Y-31229400D02*
X73392857Y-31229400D01*
X73392857Y-31229400D02*
X73535715Y-31086542D01*
X73535715Y-31086542D02*
X73607143Y-30943685D01*
X73607143Y-30943685D02*
X73678572Y-30657971D01*
X75035714Y-29372257D02*
X74321428Y-29372257D01*
X74321428Y-29372257D02*
X74250000Y-30800828D01*
X74250000Y-30800828D02*
X74321428Y-30657971D01*
X74321428Y-30657971D02*
X74464286Y-30515114D01*
X74464286Y-30515114D02*
X74821428Y-30515114D01*
X74821428Y-30515114D02*
X74964286Y-30657971D01*
X74964286Y-30657971D02*
X75035714Y-30800828D01*
X75035714Y-30800828D02*
X75107143Y-31086542D01*
X75107143Y-31086542D02*
X75107143Y-31800828D01*
X75107143Y-31800828D02*
X75035714Y-32086542D01*
X75035714Y-32086542D02*
X74964286Y-32229400D01*
X74964286Y-32229400D02*
X74821428Y-32372257D01*
X74821428Y-32372257D02*
X74464286Y-32372257D01*
X74464286Y-32372257D02*
X74321428Y-32229400D01*
X74321428Y-32229400D02*
X74250000Y-32086542D01*
X76535714Y-32372257D02*
X75678571Y-32372257D01*
X76107142Y-32372257D02*
X76107142Y-29372257D01*
X76107142Y-29372257D02*
X75964285Y-29800828D01*
X75964285Y-29800828D02*
X75821428Y-30086542D01*
X75821428Y-30086542D02*
X75678571Y-30229400D01*
%LPC*%
%LPD*%
M02*
