G04 #@! TF.GenerationSoftware,KiCad,Pcbnew,8.0.5*
G04 #@! TF.CreationDate,2024-10-14T19:24:52-05:00*
G04 #@! TF.ProjectId,Front Panel Thonk,46726f6e-7420-4506-916e-656c2054686f,rev?*
G04 #@! TF.SameCoordinates,Original*
G04 #@! TF.FileFunction,Legend,Top*
G04 #@! TF.FilePolarity,Positive*
%FSLAX46Y46*%
G04 Gerber Fmt 4.6, Leading zero omitted, Abs format (unit mm)*
G04 Created by KiCad (PCBNEW 8.0.5) date 2024-10-14 19:24:52*
%MOMM*%
%LPD*%
G01*
G04 APERTURE LIST*
%ADD10C,0.200000*%
%ADD11C,0.300000*%
%ADD12C,0.000000*%
G04 APERTURE END LIST*
D10*
X81000000Y-95000000D02*
X81000000Y-119000000D01*
X84000000Y-95000000D02*
X81000000Y-95000000D01*
X81000000Y-119000000D02*
X95000000Y-119000000D01*
X95000000Y-119000000D02*
X95000000Y-95000000D01*
X95000000Y-95000000D02*
X92000000Y-95000000D01*
D11*
G36*
X82887997Y-100255922D02*
G01*
X82887997Y-99982370D01*
X83708653Y-99982370D01*
X83708653Y-100255922D01*
X82887997Y-100255922D01*
G37*
G36*
X84050593Y-101037500D02*
G01*
X84050593Y-98575532D01*
X84551901Y-98575532D01*
X84802250Y-99948787D01*
X84821599Y-100080163D01*
X84831490Y-100209341D01*
X84834002Y-100321257D01*
X84838896Y-100190397D01*
X84851982Y-100062596D01*
X84868807Y-99952451D01*
X85108775Y-98575532D01*
X85613747Y-98575532D01*
X85613747Y-101037500D01*
X85267533Y-101037500D01*
X85267533Y-99481673D01*
X85271311Y-99356136D01*
X85279104Y-99234259D01*
X85289598Y-99105974D01*
X85294400Y-99053026D01*
X85273588Y-99179280D01*
X85253184Y-99300475D01*
X85234560Y-99401683D01*
X84921929Y-101037500D01*
X84732031Y-101037500D01*
X84432222Y-99390081D01*
X84411472Y-99268952D01*
X84403524Y-99221554D01*
X84383631Y-99100589D01*
X84382763Y-99095158D01*
X84372383Y-99038982D01*
X84383069Y-99163279D01*
X84391441Y-99290067D01*
X84396211Y-99414740D01*
X84396807Y-99470682D01*
X84396807Y-101037500D01*
X84050593Y-101037500D01*
G37*
G36*
X86698224Y-98507907D02*
G01*
X86822435Y-98544937D01*
X86929742Y-98608628D01*
X86991888Y-98665901D01*
X87067155Y-98770938D01*
X87117789Y-98896453D01*
X87142118Y-99025215D01*
X87147592Y-99132405D01*
X87147592Y-100400636D01*
X87140200Y-100535834D01*
X87118023Y-100656657D01*
X87074575Y-100777138D01*
X87002613Y-100890235D01*
X86993109Y-100901334D01*
X86896654Y-100986047D01*
X86780396Y-101043036D01*
X86660430Y-101070417D01*
X86560188Y-101076578D01*
X86426542Y-101065626D01*
X86296078Y-101027120D01*
X86186673Y-100960890D01*
X86125436Y-100901334D01*
X86052825Y-100790056D01*
X86008232Y-100669814D01*
X85984615Y-100548136D01*
X85975373Y-100411089D01*
X85975227Y-100390256D01*
X85975227Y-99121414D01*
X85976582Y-99102486D01*
X86366015Y-99102486D01*
X86366015Y-100468414D01*
X86381471Y-100592384D01*
X86450165Y-100694565D01*
X86561409Y-100724869D01*
X86680478Y-100688805D01*
X86744592Y-100580613D01*
X86756804Y-100468414D01*
X86756804Y-99102486D01*
X86741348Y-98979991D01*
X86664449Y-98873830D01*
X86561409Y-98849084D01*
X86442341Y-98884718D01*
X86378227Y-98991622D01*
X86366015Y-99102486D01*
X85976582Y-99102486D01*
X85985073Y-98983837D01*
X86014611Y-98861754D01*
X86071379Y-98742930D01*
X86132763Y-98664070D01*
X86231327Y-98583489D01*
X86349791Y-98529280D01*
X86471798Y-98503234D01*
X86573622Y-98497374D01*
X86698224Y-98507907D01*
G37*
G36*
X87487090Y-101037500D02*
G01*
X87487090Y-98575532D01*
X87988398Y-98575532D01*
X88238747Y-99948787D01*
X88258096Y-100080163D01*
X88267987Y-100209341D01*
X88270499Y-100321257D01*
X88275393Y-100190397D01*
X88288479Y-100062596D01*
X88305303Y-99952451D01*
X88545272Y-98575532D01*
X89050244Y-98575532D01*
X89050244Y-101037500D01*
X88704030Y-101037500D01*
X88704030Y-99481673D01*
X88707808Y-99356136D01*
X88715600Y-99234259D01*
X88726095Y-99105974D01*
X88730897Y-99053026D01*
X88710085Y-99179280D01*
X88689681Y-99300475D01*
X88671057Y-99401683D01*
X88358426Y-101037500D01*
X88168527Y-101037500D01*
X87868719Y-99390081D01*
X87847969Y-99268952D01*
X87840021Y-99221554D01*
X87820128Y-99100589D01*
X87819260Y-99095158D01*
X87808880Y-99038982D01*
X87819565Y-99163279D01*
X87827937Y-99290067D01*
X87832708Y-99414740D01*
X87833304Y-99470682D01*
X87833304Y-101037500D01*
X87487090Y-101037500D01*
G37*
G36*
X89450802Y-101076578D02*
G01*
X89450802Y-98575532D01*
X90447313Y-98575532D01*
X90447313Y-98927241D01*
X89841591Y-98927241D01*
X89841591Y-99591582D01*
X90271458Y-99591582D01*
X90271458Y-99943292D01*
X89841591Y-99943292D01*
X89841591Y-100685790D01*
X90447313Y-100685790D01*
X90447313Y-101076578D01*
X89450802Y-101076578D01*
G37*
G36*
X90737962Y-101037500D02*
G01*
X90737962Y-98575532D01*
X91073796Y-98575532D01*
X91568998Y-100046484D01*
X91606009Y-100167551D01*
X91638729Y-100287805D01*
X91644103Y-100308435D01*
X91624327Y-100187658D01*
X91608027Y-100060132D01*
X91603192Y-99976875D01*
X91603192Y-98575532D01*
X91949407Y-98575532D01*
X91949407Y-101037500D01*
X91603192Y-101037500D01*
X91125698Y-99677067D01*
X91085770Y-99557798D01*
X91051074Y-99440349D01*
X91043266Y-99409010D01*
X91063042Y-99541669D01*
X91078423Y-99664845D01*
X91084176Y-99750340D01*
X91084176Y-101037500D01*
X90737962Y-101037500D01*
G37*
G36*
X92262038Y-100255922D02*
G01*
X92262038Y-99982370D01*
X93082694Y-99982370D01*
X93082694Y-100255922D01*
X92262038Y-100255922D01*
G37*
G36*
X55886802Y-121300280D02*
G01*
X56014515Y-121334913D01*
X56137572Y-121403982D01*
X56228629Y-121492138D01*
X56308619Y-121617705D01*
X56362431Y-121768543D01*
X56388286Y-121923836D01*
X56394104Y-122053408D01*
X56384980Y-122208149D01*
X56351275Y-122371423D01*
X56292733Y-122516115D01*
X56209356Y-122642224D01*
X56134596Y-122720924D01*
X56236068Y-122808070D01*
X56327919Y-122938326D01*
X56383904Y-123074476D01*
X56418895Y-123233244D01*
X56432016Y-123382827D01*
X56433182Y-123447058D01*
X56426053Y-123615948D01*
X56404665Y-123764221D01*
X56362762Y-123908431D01*
X56293361Y-124038480D01*
X56284194Y-124050826D01*
X56187836Y-124144689D01*
X56065685Y-124207834D01*
X55935454Y-124238173D01*
X55824407Y-124245000D01*
X55260817Y-124245000D01*
X55260817Y-123822948D01*
X55651605Y-123822948D01*
X55810974Y-123822948D01*
X55933012Y-123780659D01*
X56009850Y-123653791D01*
X56038778Y-123491400D01*
X56042394Y-123389905D01*
X56034962Y-123236521D01*
X56004007Y-123090141D01*
X55979501Y-123037463D01*
X55875541Y-122949364D01*
X55770674Y-122931950D01*
X55651605Y-122931950D01*
X55651605Y-123822948D01*
X55260817Y-123822948D01*
X55260817Y-122509898D01*
X55651605Y-122509898D01*
X55796319Y-122509898D01*
X55914925Y-122456147D01*
X55948971Y-122405851D01*
X55992913Y-122260281D01*
X56003315Y-122107630D01*
X55993842Y-121955409D01*
X55952868Y-121816199D01*
X55945918Y-121804281D01*
X55842973Y-121723512D01*
X55767010Y-121712690D01*
X55651605Y-121712690D01*
X55651605Y-122509898D01*
X55260817Y-122509898D01*
X55260817Y-121290638D01*
X55760904Y-121290638D01*
X55886802Y-121300280D01*
G37*
G36*
X57877879Y-124268447D02*
G01*
X57485869Y-124268447D01*
X57408933Y-123635369D01*
X57024250Y-123635369D01*
X56943650Y-124268447D01*
X56568737Y-124268447D01*
X56712614Y-123213318D01*
X57073099Y-123213318D01*
X57363748Y-123213318D01*
X57233688Y-121961085D01*
X57209264Y-121961085D01*
X57073099Y-123213318D01*
X56712614Y-123213318D01*
X56974791Y-121290638D01*
X57471825Y-121290638D01*
X57877879Y-124268447D01*
G37*
G36*
X58094034Y-124245000D02*
G01*
X58094034Y-121290638D01*
X58429868Y-121290638D01*
X58925070Y-123055781D01*
X58962080Y-123201061D01*
X58994801Y-123345366D01*
X59000175Y-123370122D01*
X58980399Y-123225189D01*
X58964098Y-123072158D01*
X58959264Y-122972250D01*
X58959264Y-121290638D01*
X59305478Y-121290638D01*
X59305478Y-124245000D01*
X58959264Y-124245000D01*
X58481769Y-122612480D01*
X58441841Y-122469358D01*
X58407146Y-122328418D01*
X58399337Y-122290812D01*
X58419114Y-122450003D01*
X58434495Y-122597814D01*
X58440248Y-122700408D01*
X58440248Y-124245000D01*
X58094034Y-124245000D01*
G37*
G36*
X59696267Y-124245000D02*
G01*
X59696267Y-121290638D01*
X60087055Y-121290638D01*
X60087055Y-122537742D01*
X60123883Y-122395490D01*
X60139568Y-122345034D01*
X60517533Y-121290638D01*
X60895499Y-121290638D01*
X60471738Y-122298872D01*
X60944348Y-124245000D01*
X60548674Y-124245000D01*
X60226884Y-122759759D01*
X60087055Y-123093883D01*
X60087055Y-124245000D01*
X59696267Y-124245000D01*
G37*
G36*
X61506979Y-36160000D02*
G01*
X61506979Y-32220851D01*
X61975925Y-32220851D01*
X61975925Y-35597264D01*
X62679344Y-35597264D01*
X62679344Y-36160000D01*
X61506979Y-36160000D01*
G37*
G36*
X63746243Y-32112651D02*
G01*
X63895297Y-32171899D01*
X64024064Y-32273806D01*
X64098639Y-32365443D01*
X64188960Y-32533501D01*
X64249722Y-32734326D01*
X64278916Y-32940344D01*
X64285485Y-33111849D01*
X64285485Y-35141018D01*
X64276615Y-35357335D01*
X64250002Y-35550652D01*
X64197864Y-35743420D01*
X64111510Y-35924376D01*
X64100105Y-35942135D01*
X63984359Y-36077675D01*
X63844849Y-36168857D01*
X63700891Y-36212668D01*
X63580600Y-36222526D01*
X63420224Y-36205001D01*
X63263668Y-36143392D01*
X63132382Y-36037424D01*
X63058898Y-35942135D01*
X62971765Y-35764090D01*
X62918252Y-35571703D01*
X62889912Y-35377018D01*
X62878822Y-35157742D01*
X62878646Y-35124410D01*
X62878646Y-33094263D01*
X62880272Y-33063977D01*
X63347593Y-33063977D01*
X63347593Y-35249462D01*
X63366140Y-35447814D01*
X63448572Y-35611304D01*
X63582066Y-35659790D01*
X63724948Y-35602088D01*
X63801884Y-35428981D01*
X63816539Y-35249462D01*
X63816539Y-33063977D01*
X63797992Y-32867987D01*
X63705714Y-32698128D01*
X63582066Y-32658534D01*
X63439184Y-32715549D01*
X63362247Y-32886596D01*
X63347593Y-33063977D01*
X62880272Y-33063977D01*
X62890462Y-32874139D01*
X62925907Y-32678806D01*
X62994030Y-32488689D01*
X63067690Y-32362512D01*
X63185967Y-32233583D01*
X63328124Y-32146849D01*
X63474532Y-32105175D01*
X63596720Y-32095799D01*
X63746243Y-32112651D01*
G37*
G36*
X65513584Y-32112651D02*
G01*
X65662638Y-32171899D01*
X65791406Y-32273806D01*
X65865981Y-32365443D01*
X65956302Y-32533501D01*
X66017063Y-32734326D01*
X66046258Y-32940344D01*
X66052827Y-33111849D01*
X66052827Y-35141018D01*
X66043956Y-35357335D01*
X66017344Y-35550652D01*
X65965205Y-35743420D01*
X65878851Y-35924376D01*
X65867446Y-35942135D01*
X65751700Y-36077675D01*
X65612190Y-36168857D01*
X65468232Y-36212668D01*
X65347942Y-36222526D01*
X65187566Y-36205001D01*
X65031009Y-36143392D01*
X64899724Y-36037424D01*
X64826239Y-35942135D01*
X64739106Y-35764090D01*
X64685594Y-35571703D01*
X64657253Y-35377018D01*
X64646164Y-35157742D01*
X64645988Y-35124410D01*
X64645988Y-33094263D01*
X64647614Y-33063977D01*
X65114934Y-33063977D01*
X65114934Y-35249462D01*
X65133481Y-35447814D01*
X65215913Y-35611304D01*
X65349407Y-35659790D01*
X65492289Y-35602088D01*
X65569226Y-35428981D01*
X65583880Y-35249462D01*
X65583880Y-33063977D01*
X65565333Y-32867987D01*
X65473055Y-32698128D01*
X65349407Y-32658534D01*
X65206525Y-32715549D01*
X65129589Y-32886596D01*
X65114934Y-33063977D01*
X64647614Y-33063977D01*
X64657803Y-32874139D01*
X64693249Y-32678806D01*
X64761371Y-32488689D01*
X64835032Y-32362512D01*
X64953309Y-32233583D01*
X65095465Y-32146849D01*
X65241873Y-32105175D01*
X65364062Y-32095799D01*
X65513584Y-32112651D01*
G37*
G36*
X67298526Y-32233520D02*
G01*
X67452662Y-32279025D01*
X67595083Y-32369778D01*
X67694138Y-32485610D01*
X67777730Y-32660812D01*
X67829066Y-32860664D01*
X67856255Y-33069595D01*
X67866387Y-33273980D01*
X67867062Y-33347299D01*
X67861086Y-33549532D01*
X67839007Y-33763244D01*
X67800659Y-33953021D01*
X67736911Y-34140600D01*
X67697069Y-34222665D01*
X67592754Y-34373318D01*
X67456455Y-34482884D01*
X67298690Y-34531580D01*
X67247174Y-34534319D01*
X66929170Y-34534319D01*
X66929170Y-36191263D01*
X66460224Y-36191263D01*
X66460224Y-33971584D01*
X66929170Y-33971584D01*
X67113085Y-33971584D01*
X67261856Y-33933533D01*
X67340231Y-33836762D01*
X67383645Y-33649183D01*
X67397212Y-33439256D01*
X67398116Y-33356092D01*
X67390583Y-33153773D01*
X67356033Y-32957510D01*
X67334369Y-32904731D01*
X67202735Y-32797901D01*
X67095499Y-32783586D01*
X66929170Y-32783586D01*
X66929170Y-33971584D01*
X66460224Y-33971584D01*
X66460224Y-32220851D01*
X67142394Y-32220851D01*
X67298526Y-32233520D01*
G37*
G36*
X68160154Y-36160000D02*
G01*
X68160154Y-32220851D01*
X68629100Y-32220851D01*
X68629100Y-36160000D01*
X68160154Y-36160000D01*
G37*
G36*
X69083392Y-36160000D02*
G01*
X69083392Y-32220851D01*
X69486392Y-32220851D01*
X70080635Y-34574375D01*
X70125048Y-34768081D01*
X70164312Y-34960489D01*
X70170761Y-34993496D01*
X70147030Y-34800253D01*
X70127469Y-34596211D01*
X70121668Y-34463000D01*
X70121668Y-32220851D01*
X70537125Y-32220851D01*
X70537125Y-36160000D01*
X70121668Y-36160000D01*
X69548674Y-33983307D01*
X69500761Y-33792477D01*
X69459126Y-33604558D01*
X69449756Y-33554417D01*
X69473487Y-33766671D01*
X69491945Y-33963753D01*
X69498849Y-34100544D01*
X69498849Y-36160000D01*
X69083392Y-36160000D01*
G37*
G36*
X70959177Y-35124410D02*
G01*
X70959177Y-33094263D01*
X70970809Y-32874139D01*
X71005705Y-32678806D01*
X71072771Y-32488689D01*
X71145290Y-32362512D01*
X71262214Y-32233583D01*
X71402787Y-32146849D01*
X71547592Y-32105175D01*
X71668458Y-32095799D01*
X71820957Y-32111812D01*
X71982987Y-32176865D01*
X72113247Y-32291960D01*
X72211736Y-32457096D01*
X72278455Y-32672273D01*
X72308954Y-32880444D01*
X72319121Y-33120642D01*
X72319121Y-33487983D01*
X71903664Y-33487983D01*
X71903664Y-33067885D01*
X71884827Y-32870005D01*
X71801107Y-32706905D01*
X71665527Y-32658534D01*
X71520859Y-32715549D01*
X71442961Y-32886596D01*
X71428123Y-33063977D01*
X71428123Y-35249462D01*
X71446902Y-35447814D01*
X71530364Y-35611304D01*
X71665527Y-35659790D01*
X71810642Y-35603324D01*
X71888780Y-35433927D01*
X71903664Y-35258255D01*
X71903664Y-34659371D01*
X71623029Y-34659371D01*
X71623029Y-34153300D01*
X72319121Y-34153300D01*
X72319121Y-36135575D01*
X72113224Y-36135575D01*
X72030426Y-35851277D01*
X71947902Y-36013698D01*
X71832948Y-36140952D01*
X71694579Y-36209474D01*
X71589323Y-36222526D01*
X71428459Y-36200346D01*
X71290430Y-36133808D01*
X71163849Y-36007851D01*
X71121110Y-35942135D01*
X71042832Y-35764090D01*
X70994758Y-35571703D01*
X70969298Y-35377018D01*
X70959335Y-35157742D01*
X70959177Y-35124410D01*
G37*
G36*
X73605792Y-36222526D02*
G01*
X73605792Y-32220851D01*
X74801605Y-32220851D01*
X74801605Y-32783586D01*
X74074739Y-32783586D01*
X74074739Y-33846531D01*
X74590579Y-33846531D01*
X74590579Y-34409267D01*
X74074739Y-34409267D01*
X74074739Y-35597264D01*
X74801605Y-35597264D01*
X74801605Y-36222526D01*
X73605792Y-36222526D01*
G37*
G36*
X74907851Y-36160000D02*
G01*
X75449337Y-34157208D01*
X74915911Y-32220851D01*
X75390719Y-32220851D01*
X75667690Y-33381493D01*
X75688940Y-33381493D01*
X75982764Y-32220851D01*
X76448779Y-32220851D01*
X75932205Y-34106406D01*
X76494941Y-36160000D01*
X76016469Y-36160000D01*
X75718249Y-34876259D01*
X75701396Y-34876259D01*
X75378263Y-36160000D01*
X74907851Y-36160000D01*
G37*
G36*
X77553795Y-32233520D02*
G01*
X77707931Y-32279025D01*
X77850351Y-32369778D01*
X77949407Y-32485610D01*
X78032998Y-32660812D01*
X78084335Y-32860664D01*
X78111523Y-33069595D01*
X78121656Y-33273980D01*
X78122331Y-33347299D01*
X78116355Y-33549532D01*
X78094276Y-33763244D01*
X78055928Y-33953021D01*
X77992180Y-34140600D01*
X77952338Y-34222665D01*
X77848023Y-34373318D01*
X77711724Y-34482884D01*
X77553958Y-34531580D01*
X77502443Y-34534319D01*
X77184439Y-34534319D01*
X77184439Y-36191263D01*
X76715492Y-36191263D01*
X76715492Y-33971584D01*
X77184439Y-33971584D01*
X77368353Y-33971584D01*
X77517124Y-33933533D01*
X77595499Y-33836762D01*
X77638913Y-33649183D01*
X77652480Y-33439256D01*
X77653385Y-33356092D01*
X77645852Y-33153773D01*
X77611302Y-32957510D01*
X77589637Y-32904731D01*
X77458004Y-32797901D01*
X77350768Y-32783586D01*
X77184439Y-32783586D01*
X77184439Y-33971584D01*
X76715492Y-33971584D01*
X76715492Y-32220851D01*
X77397663Y-32220851D01*
X77553795Y-32233520D01*
G37*
G36*
X79680112Y-36191263D02*
G01*
X79209700Y-36191263D01*
X79117376Y-35347159D01*
X78655757Y-35347159D01*
X78559037Y-36191263D01*
X78109142Y-36191263D01*
X78281795Y-34784424D01*
X78714376Y-34784424D01*
X79063154Y-34784424D01*
X78907083Y-33114780D01*
X78877774Y-33114780D01*
X78714376Y-34784424D01*
X78281795Y-34784424D01*
X78596406Y-32220851D01*
X79192847Y-32220851D01*
X79680112Y-36191263D01*
G37*
G36*
X79939498Y-36160000D02*
G01*
X79939498Y-32220851D01*
X80342499Y-32220851D01*
X80936741Y-34574375D01*
X80981154Y-34768081D01*
X81020418Y-34960489D01*
X81026867Y-34993496D01*
X81003136Y-34800253D01*
X80983575Y-34596211D01*
X80977774Y-34463000D01*
X80977774Y-32220851D01*
X81393231Y-32220851D01*
X81393231Y-36160000D01*
X80977774Y-36160000D01*
X80404780Y-33983307D01*
X80356867Y-33792477D01*
X80315232Y-33604558D01*
X80305862Y-33554417D01*
X80329593Y-33766671D01*
X80348051Y-33963753D01*
X80354955Y-34100544D01*
X80354955Y-36160000D01*
X79939498Y-36160000D01*
G37*
G36*
X82678665Y-32233520D02*
G01*
X82835527Y-32279025D01*
X82982107Y-32369778D01*
X83085834Y-32485610D01*
X83174384Y-32657335D01*
X83228766Y-32848256D01*
X83257567Y-33044865D01*
X83268837Y-33269056D01*
X83269016Y-33303335D01*
X83269016Y-35060907D01*
X83262963Y-35263781D01*
X83240598Y-35473379D01*
X83194860Y-35677200D01*
X83117676Y-35860955D01*
X83096825Y-35895240D01*
X82983333Y-36023224D01*
X82836572Y-36109323D01*
X82678188Y-36150692D01*
X82542150Y-36160000D01*
X81862178Y-36160000D01*
X81862178Y-35597264D01*
X82331124Y-35597264D01*
X82561201Y-35597264D01*
X82706762Y-35538463D01*
X82785141Y-35362058D01*
X82800070Y-35179120D01*
X82800070Y-33258394D01*
X82780750Y-33058454D01*
X82712143Y-32899846D01*
X82581462Y-32805839D01*
X82435904Y-32783586D01*
X82331124Y-32783586D01*
X82331124Y-35597264D01*
X81862178Y-35597264D01*
X81862178Y-32220851D01*
X82520900Y-32220851D01*
X82678665Y-32233520D01*
G37*
G36*
X83667621Y-36222526D02*
G01*
X83667621Y-32220851D01*
X84863434Y-32220851D01*
X84863434Y-32783586D01*
X84136567Y-32783586D01*
X84136567Y-33846531D01*
X84652408Y-33846531D01*
X84652408Y-34409267D01*
X84136567Y-34409267D01*
X84136567Y-35597264D01*
X84863434Y-35597264D01*
X84863434Y-36222526D01*
X83667621Y-36222526D01*
G37*
G36*
X86050515Y-32233894D02*
G01*
X86204651Y-32280743D01*
X86347072Y-32374174D01*
X86446127Y-32493426D01*
X86529718Y-32673093D01*
X86581055Y-32877952D01*
X86608243Y-33092065D01*
X86618376Y-33301488D01*
X86619051Y-33376608D01*
X86613661Y-33573749D01*
X86595028Y-33767960D01*
X86555100Y-33966507D01*
X86550907Y-33981353D01*
X86481504Y-34157984D01*
X86382835Y-34305269D01*
X86327425Y-34363349D01*
X86665213Y-36191263D01*
X86188207Y-36191263D01*
X85903175Y-34534319D01*
X85681159Y-34534319D01*
X85681159Y-36191263D01*
X85212212Y-36191263D01*
X85212212Y-33971584D01*
X85681159Y-33971584D01*
X85865074Y-33971584D01*
X86011035Y-33933257D01*
X86090021Y-33835785D01*
X86135084Y-33646252D01*
X86149166Y-33434860D01*
X86150105Y-33351207D01*
X86142226Y-33152225D01*
X86106087Y-32958281D01*
X86083427Y-32905708D01*
X85952064Y-32798017D01*
X85847488Y-32783586D01*
X85681159Y-32783586D01*
X85681159Y-33971584D01*
X85212212Y-33971584D01*
X85212212Y-32220851D01*
X85894383Y-32220851D01*
X86050515Y-32233894D01*
G37*
G36*
X54648988Y-78449989D02*
G01*
X54995202Y-78383311D01*
X55004176Y-78532719D01*
X55044056Y-78683844D01*
X55138771Y-78795471D01*
X55250436Y-78822948D01*
X55371980Y-78795825D01*
X55437282Y-78746011D01*
X55501746Y-78614627D01*
X55508723Y-78538649D01*
X55487256Y-78392390D01*
X55453768Y-78304909D01*
X55386123Y-78176281D01*
X55353629Y-78129054D01*
X55264589Y-78019664D01*
X55172640Y-77909583D01*
X55163730Y-77898977D01*
X55073629Y-77790875D01*
X54982790Y-77678586D01*
X54907886Y-77580973D01*
X54833557Y-77461457D01*
X54769510Y-77326378D01*
X54756455Y-77294476D01*
X54712177Y-77151687D01*
X54690471Y-77005512D01*
X54688067Y-76936905D01*
X54698791Y-76784589D01*
X54736492Y-76629217D01*
X54801337Y-76490770D01*
X54859648Y-76407875D01*
X54961716Y-76305865D01*
X55074894Y-76237240D01*
X55199180Y-76202001D01*
X55273029Y-76196849D01*
X55399135Y-76212150D01*
X55524070Y-76265044D01*
X55633026Y-76355719D01*
X55662596Y-76390289D01*
X55738620Y-76510749D01*
X55793586Y-76654509D01*
X55824765Y-76801856D01*
X55837230Y-76924448D01*
X55477582Y-76987463D01*
X55468583Y-76836315D01*
X55430565Y-76704630D01*
X55323023Y-76623003D01*
X55280356Y-76618900D01*
X55160396Y-76664517D01*
X55134421Y-76693639D01*
X55083251Y-76827276D01*
X55078856Y-76894406D01*
X55099090Y-77045711D01*
X55136253Y-77150129D01*
X55200739Y-77277821D01*
X55249826Y-77353094D01*
X55339771Y-77467649D01*
X55430217Y-77578795D01*
X55447662Y-77600024D01*
X55533624Y-77707014D01*
X55617888Y-77818022D01*
X55672366Y-77896046D01*
X55743501Y-78024091D01*
X55797230Y-78158669D01*
X55804257Y-78179612D01*
X55840629Y-78322094D01*
X55858458Y-78474493D01*
X55860433Y-78548175D01*
X55849900Y-78703605D01*
X55812870Y-78861166D01*
X55749178Y-79000411D01*
X55691905Y-79083066D01*
X55590202Y-79184013D01*
X55474684Y-79251923D01*
X55345353Y-79286796D01*
X55267533Y-79291894D01*
X55133848Y-79278018D01*
X55014284Y-79236390D01*
X54896652Y-79156386D01*
X54817516Y-79069877D01*
X54743785Y-78947878D01*
X54691120Y-78803897D01*
X54662319Y-78659881D01*
X54649647Y-78499036D01*
X54648988Y-78449989D01*
G37*
G36*
X56835012Y-76300140D02*
G01*
X56963459Y-76334269D01*
X57082143Y-76402333D01*
X57164690Y-76489207D01*
X57234349Y-76620609D01*
X57277129Y-76770498D01*
X57299786Y-76927196D01*
X57308230Y-77080485D01*
X57308793Y-77135474D01*
X57303813Y-77287149D01*
X57285413Y-77447433D01*
X57253457Y-77589766D01*
X57200334Y-77730450D01*
X57167132Y-77791999D01*
X57080203Y-77904989D01*
X56966620Y-77987163D01*
X56835149Y-78023685D01*
X56792219Y-78025739D01*
X56527216Y-78025739D01*
X56527216Y-79268447D01*
X56136427Y-79268447D01*
X56136427Y-77603688D01*
X56527216Y-77603688D01*
X56680478Y-77603688D01*
X56804454Y-77575150D01*
X56869766Y-77502571D01*
X56905945Y-77361887D01*
X56917251Y-77204442D01*
X56918004Y-77142069D01*
X56911727Y-76990329D01*
X56882935Y-76843133D01*
X56864881Y-76803548D01*
X56755187Y-76723426D01*
X56665824Y-76712690D01*
X56527216Y-76712690D01*
X56527216Y-77603688D01*
X56136427Y-77603688D01*
X56136427Y-76290638D01*
X56704902Y-76290638D01*
X56835012Y-76300140D01*
G37*
G36*
X57553036Y-79291894D02*
G01*
X57553036Y-76290638D01*
X58549546Y-76290638D01*
X58549546Y-76712690D01*
X57943824Y-76712690D01*
X57943824Y-77509898D01*
X58373692Y-77509898D01*
X58373692Y-77931950D01*
X57943824Y-77931950D01*
X57943824Y-78822948D01*
X58549546Y-78822948D01*
X58549546Y-79291894D01*
X57553036Y-79291894D01*
G37*
G36*
X59974703Y-79268447D02*
G01*
X59582694Y-79268447D01*
X59505757Y-78635369D01*
X59121075Y-78635369D01*
X59040475Y-79268447D01*
X58665562Y-79268447D01*
X58809439Y-78213318D01*
X59169923Y-78213318D01*
X59460572Y-78213318D01*
X59330513Y-76961085D01*
X59306089Y-76961085D01*
X59169923Y-78213318D01*
X58809439Y-78213318D01*
X59071616Y-76290638D01*
X59568650Y-76290638D01*
X59974703Y-79268447D01*
G37*
G36*
X60190858Y-79245000D02*
G01*
X60190858Y-76290638D01*
X60581647Y-76290638D01*
X60581647Y-77537742D01*
X60618474Y-77395490D01*
X60634159Y-77345034D01*
X61012125Y-76290638D01*
X61390091Y-76290638D01*
X60966329Y-77298872D01*
X61438939Y-79245000D01*
X61043266Y-79245000D01*
X60721476Y-77759759D01*
X60581647Y-78093883D01*
X60581647Y-79245000D01*
X60190858Y-79245000D01*
G37*
G36*
X70242324Y-78449989D02*
G01*
X70588538Y-78383311D01*
X70597512Y-78532719D01*
X70637392Y-78683844D01*
X70732107Y-78795471D01*
X70843772Y-78822948D01*
X70965316Y-78795825D01*
X71030618Y-78746011D01*
X71095082Y-78614627D01*
X71102059Y-78538649D01*
X71080592Y-78392390D01*
X71047104Y-78304909D01*
X70979459Y-78176281D01*
X70946965Y-78129054D01*
X70857925Y-78019664D01*
X70765976Y-77909583D01*
X70757066Y-77898977D01*
X70666965Y-77790875D01*
X70576126Y-77678586D01*
X70501222Y-77580973D01*
X70426893Y-77461457D01*
X70362846Y-77326378D01*
X70349791Y-77294476D01*
X70305513Y-77151687D01*
X70283807Y-77005512D01*
X70281403Y-76936905D01*
X70292127Y-76784589D01*
X70329828Y-76629217D01*
X70394673Y-76490770D01*
X70452984Y-76407875D01*
X70555052Y-76305865D01*
X70668230Y-76237240D01*
X70792516Y-76202001D01*
X70866365Y-76196849D01*
X70992471Y-76212150D01*
X71117406Y-76265044D01*
X71226362Y-76355719D01*
X71255932Y-76390289D01*
X71331956Y-76510749D01*
X71386922Y-76654509D01*
X71418101Y-76801856D01*
X71430566Y-76924448D01*
X71070918Y-76987463D01*
X71061919Y-76836315D01*
X71023901Y-76704630D01*
X70916359Y-76623003D01*
X70873692Y-76618900D01*
X70753732Y-76664517D01*
X70727757Y-76693639D01*
X70676587Y-76827276D01*
X70672192Y-76894406D01*
X70692426Y-77045711D01*
X70729589Y-77150129D01*
X70794075Y-77277821D01*
X70843162Y-77353094D01*
X70933107Y-77467649D01*
X71023553Y-77578795D01*
X71040998Y-77600024D01*
X71126960Y-77707014D01*
X71211224Y-77818022D01*
X71265702Y-77896046D01*
X71336837Y-78024091D01*
X71390566Y-78158669D01*
X71397593Y-78179612D01*
X71433965Y-78322094D01*
X71451794Y-78474493D01*
X71453769Y-78548175D01*
X71443236Y-78703605D01*
X71406206Y-78861166D01*
X71342514Y-79000411D01*
X71285241Y-79083066D01*
X71183538Y-79184013D01*
X71068020Y-79251923D01*
X70938689Y-79286796D01*
X70860869Y-79291894D01*
X70727184Y-79278018D01*
X70607620Y-79236390D01*
X70489988Y-79156386D01*
X70410852Y-79069877D01*
X70337121Y-78947878D01*
X70284456Y-78803897D01*
X70255655Y-78659881D01*
X70242983Y-78499036D01*
X70242324Y-78449989D01*
G37*
G36*
X71729763Y-76290638D02*
G01*
X72120552Y-76290638D01*
X72120552Y-77509898D01*
X72472261Y-77509898D01*
X72472261Y-76290638D01*
X72863050Y-76290638D01*
X72863050Y-79245000D01*
X72472261Y-79245000D01*
X72472261Y-77931950D01*
X72120552Y-77931950D01*
X72120552Y-79245000D01*
X71729763Y-79245000D01*
X71729763Y-76290638D01*
G37*
G36*
X73945084Y-76209488D02*
G01*
X74069295Y-76253924D01*
X74176602Y-76330354D01*
X74238748Y-76399082D01*
X74314015Y-76525125D01*
X74364650Y-76675744D01*
X74388979Y-76830258D01*
X74394453Y-76958886D01*
X74394453Y-78480764D01*
X74387060Y-78643001D01*
X74364883Y-78787989D01*
X74321435Y-78932565D01*
X74249473Y-79068282D01*
X74239969Y-79081601D01*
X74143514Y-79183256D01*
X74027256Y-79251643D01*
X73907291Y-79284501D01*
X73807049Y-79291894D01*
X73673402Y-79278751D01*
X73542938Y-79232544D01*
X73433534Y-79153068D01*
X73372296Y-79081601D01*
X73299685Y-78948068D01*
X73255092Y-78803777D01*
X73231475Y-78657763D01*
X73222234Y-78493307D01*
X73222087Y-78468307D01*
X73222087Y-76945697D01*
X73223442Y-76922983D01*
X73612876Y-76922983D01*
X73612876Y-78562096D01*
X73628331Y-78710860D01*
X73697025Y-78833478D01*
X73808270Y-78869842D01*
X73927338Y-78826566D01*
X73991452Y-78696735D01*
X74003664Y-78562096D01*
X74003664Y-76922983D01*
X73988208Y-76775990D01*
X73911310Y-76648596D01*
X73808270Y-76618900D01*
X73689201Y-76661662D01*
X73625088Y-76789947D01*
X73612876Y-76922983D01*
X73223442Y-76922983D01*
X73231933Y-76780604D01*
X73261471Y-76634105D01*
X73318240Y-76491517D01*
X73379624Y-76396884D01*
X73478188Y-76300187D01*
X73596651Y-76235137D01*
X73718658Y-76203881D01*
X73820482Y-76196849D01*
X73945084Y-76209488D01*
G37*
G36*
X75432535Y-76300420D02*
G01*
X75560982Y-76335557D01*
X75679666Y-76405631D01*
X75762213Y-76495069D01*
X75831872Y-76629820D01*
X75874653Y-76783464D01*
X75897309Y-76944049D01*
X75905753Y-77101116D01*
X75906316Y-77157456D01*
X75901824Y-77305312D01*
X75886296Y-77450970D01*
X75853023Y-77599880D01*
X75849529Y-77611015D01*
X75791693Y-77743488D01*
X75709469Y-77853952D01*
X75663294Y-77897512D01*
X75944784Y-79268447D01*
X75547279Y-79268447D01*
X75309753Y-78025739D01*
X75124739Y-78025739D01*
X75124739Y-79268447D01*
X74733950Y-79268447D01*
X74733950Y-77603688D01*
X75124739Y-77603688D01*
X75278001Y-77603688D01*
X75399635Y-77574943D01*
X75465457Y-77501838D01*
X75503010Y-77359689D01*
X75514745Y-77201145D01*
X75515527Y-77138405D01*
X75508961Y-76989169D01*
X75478846Y-76843711D01*
X75459962Y-76804281D01*
X75350493Y-76723512D01*
X75263347Y-76712690D01*
X75124739Y-76712690D01*
X75124739Y-77603688D01*
X74733950Y-77603688D01*
X74733950Y-76290638D01*
X75302425Y-76290638D01*
X75432535Y-76300420D01*
G37*
G36*
X75996686Y-76712690D02*
G01*
X75996686Y-76290638D01*
X77169051Y-76290638D01*
X77169051Y-76712690D01*
X76778263Y-76712690D01*
X76778263Y-79268447D01*
X76387474Y-79268447D01*
X76387474Y-76712690D01*
X75996686Y-76712690D01*
G37*
G36*
X54416286Y-94300280D02*
G01*
X54543998Y-94334913D01*
X54667056Y-94403982D01*
X54758113Y-94492138D01*
X54838103Y-94617705D01*
X54891914Y-94768543D01*
X54917770Y-94923836D01*
X54923587Y-95053408D01*
X54914464Y-95208149D01*
X54880758Y-95371423D01*
X54822217Y-95516115D01*
X54738840Y-95642224D01*
X54664079Y-95720924D01*
X54765552Y-95808070D01*
X54857403Y-95938326D01*
X54913388Y-96074476D01*
X54948378Y-96233244D01*
X54961500Y-96382827D01*
X54962666Y-96447058D01*
X54955537Y-96615948D01*
X54934149Y-96764221D01*
X54892246Y-96908431D01*
X54822844Y-97038480D01*
X54813678Y-97050826D01*
X54717320Y-97144689D01*
X54595169Y-97207834D01*
X54464938Y-97238173D01*
X54353891Y-97245000D01*
X53790300Y-97245000D01*
X53790300Y-96822948D01*
X54181089Y-96822948D01*
X54340457Y-96822948D01*
X54462495Y-96780659D01*
X54539334Y-96653791D01*
X54568262Y-96491400D01*
X54571878Y-96389905D01*
X54564446Y-96236521D01*
X54533491Y-96090141D01*
X54508985Y-96037463D01*
X54405024Y-95949364D01*
X54300157Y-95931950D01*
X54181089Y-95931950D01*
X54181089Y-96822948D01*
X53790300Y-96822948D01*
X53790300Y-95509898D01*
X54181089Y-95509898D01*
X54325803Y-95509898D01*
X54444409Y-95456147D01*
X54478455Y-95405851D01*
X54522397Y-95260281D01*
X54532799Y-95107630D01*
X54523326Y-94955409D01*
X54482352Y-94816199D01*
X54475402Y-94804281D01*
X54372457Y-94723512D01*
X54296494Y-94712690D01*
X54181089Y-94712690D01*
X54181089Y-95509898D01*
X53790300Y-95509898D01*
X53790300Y-94290638D01*
X54290388Y-94290638D01*
X54416286Y-94300280D01*
G37*
G36*
X56407363Y-97268447D02*
G01*
X56015353Y-97268447D01*
X55938416Y-96635369D01*
X55553734Y-96635369D01*
X55473134Y-97268447D01*
X55098221Y-97268447D01*
X55242098Y-96213318D01*
X55602582Y-96213318D01*
X55893231Y-96213318D01*
X55763172Y-94961085D01*
X55738748Y-94961085D01*
X55602582Y-96213318D01*
X55242098Y-96213318D01*
X55504275Y-94290638D01*
X56001309Y-94290638D01*
X56407363Y-97268447D01*
G37*
G36*
X56623517Y-97245000D02*
G01*
X56623517Y-94290638D01*
X56959351Y-94290638D01*
X57454554Y-96055781D01*
X57491564Y-96201061D01*
X57524285Y-96345366D01*
X57529658Y-96370122D01*
X57509882Y-96225189D01*
X57493582Y-96072158D01*
X57488748Y-95972250D01*
X57488748Y-94290638D01*
X57834962Y-94290638D01*
X57834962Y-97245000D01*
X57488748Y-97245000D01*
X57011253Y-95612480D01*
X56971325Y-95469358D01*
X56936630Y-95328418D01*
X56928821Y-95290812D01*
X56948597Y-95450003D01*
X56963979Y-95597814D01*
X56969732Y-95700408D01*
X56969732Y-97245000D01*
X56623517Y-97245000D01*
G37*
G36*
X58225751Y-97245000D02*
G01*
X58225751Y-94290638D01*
X58616539Y-94290638D01*
X58616539Y-95537742D01*
X58653366Y-95395490D01*
X58669051Y-95345034D01*
X59047017Y-94290638D01*
X59424983Y-94290638D01*
X59001222Y-95298872D01*
X59473832Y-97245000D01*
X59078158Y-97245000D01*
X58756368Y-95759759D01*
X58616539Y-96093883D01*
X58616539Y-97245000D01*
X58225751Y-97245000D01*
G37*
G36*
X60370203Y-97245000D02*
G01*
X60370203Y-94290638D01*
X60871511Y-94290638D01*
X61121860Y-95938545D01*
X61141209Y-96096196D01*
X61151100Y-96251209D01*
X61153612Y-96385509D01*
X61158506Y-96228476D01*
X61171592Y-96075115D01*
X61188416Y-95942941D01*
X61428385Y-94290638D01*
X61933357Y-94290638D01*
X61933357Y-97245000D01*
X61587143Y-97245000D01*
X61587143Y-95378007D01*
X61590921Y-95227363D01*
X61598713Y-95081110D01*
X61609208Y-94927169D01*
X61614009Y-94863632D01*
X61593198Y-95015136D01*
X61572793Y-95160570D01*
X61554170Y-95282020D01*
X61241539Y-97245000D01*
X61051640Y-97245000D01*
X60751832Y-95268098D01*
X60731082Y-95122743D01*
X60723134Y-95065865D01*
X60703241Y-94920707D01*
X60702373Y-94914190D01*
X60691993Y-94846779D01*
X60702678Y-94995935D01*
X60711050Y-95148080D01*
X60715821Y-95297688D01*
X60716417Y-95364818D01*
X60716417Y-97245000D01*
X60370203Y-97245000D01*
G37*
G36*
X63017833Y-94209488D02*
G01*
X63142045Y-94253924D01*
X63249351Y-94330354D01*
X63311497Y-94399082D01*
X63386765Y-94525125D01*
X63437399Y-94675744D01*
X63461728Y-94830258D01*
X63467202Y-94958886D01*
X63467202Y-96480764D01*
X63459810Y-96643001D01*
X63437633Y-96787989D01*
X63394184Y-96932565D01*
X63322223Y-97068282D01*
X63312718Y-97081601D01*
X63216263Y-97183256D01*
X63100005Y-97251643D01*
X62980040Y-97284501D01*
X62879798Y-97291894D01*
X62746151Y-97278751D01*
X62615688Y-97232544D01*
X62506283Y-97153068D01*
X62445046Y-97081601D01*
X62372435Y-96948068D01*
X62327841Y-96803777D01*
X62304224Y-96657763D01*
X62294983Y-96493307D01*
X62294836Y-96468307D01*
X62294836Y-94945697D01*
X62296191Y-94922983D01*
X62685625Y-94922983D01*
X62685625Y-96562096D01*
X62701081Y-96710860D01*
X62769774Y-96833478D01*
X62881019Y-96869842D01*
X63000088Y-96826566D01*
X63064201Y-96696735D01*
X63076414Y-96562096D01*
X63076414Y-94922983D01*
X63060958Y-94775990D01*
X62984059Y-94648596D01*
X62881019Y-94618900D01*
X62761951Y-94661662D01*
X62697837Y-94789947D01*
X62685625Y-94922983D01*
X62296191Y-94922983D01*
X62304682Y-94780604D01*
X62334221Y-94634105D01*
X62390989Y-94491517D01*
X62452373Y-94396884D01*
X62550937Y-94300187D01*
X62669401Y-94235137D01*
X62791408Y-94203881D01*
X62893231Y-94196849D01*
X63017833Y-94209488D01*
G37*
G36*
X64487106Y-94300140D02*
G01*
X64617824Y-94334269D01*
X64739974Y-94402333D01*
X64826414Y-94489207D01*
X64900205Y-94618001D01*
X64945524Y-94761192D01*
X64969525Y-94908649D01*
X64978916Y-95076792D01*
X64979065Y-95102501D01*
X64979065Y-96420680D01*
X64974021Y-96572836D01*
X64955383Y-96730034D01*
X64917268Y-96882900D01*
X64852949Y-97020716D01*
X64835573Y-97046430D01*
X64740996Y-97142418D01*
X64618695Y-97206992D01*
X64486708Y-97238019D01*
X64373343Y-97245000D01*
X63806700Y-97245000D01*
X63806700Y-96822948D01*
X64197488Y-96822948D01*
X64389219Y-96822948D01*
X64510520Y-96778847D01*
X64575836Y-96646543D01*
X64588277Y-96509340D01*
X64588277Y-95068796D01*
X64572177Y-94918840D01*
X64515004Y-94799884D01*
X64406104Y-94729379D01*
X64284805Y-94712690D01*
X64197488Y-94712690D01*
X64197488Y-96822948D01*
X63806700Y-96822948D01*
X63806700Y-94290638D01*
X64355635Y-94290638D01*
X64487106Y-94300140D01*
G37*
G36*
X86338974Y-79245000D02*
G01*
X86338974Y-76290638D01*
X86729762Y-76290638D01*
X86729762Y-78822948D01*
X87315945Y-78822948D01*
X87315945Y-79245000D01*
X86338974Y-79245000D01*
G37*
G36*
X88205027Y-76209488D02*
G01*
X88329239Y-76253924D01*
X88436545Y-76330354D01*
X88498691Y-76399082D01*
X88573959Y-76525125D01*
X88624593Y-76675744D01*
X88648922Y-76830258D01*
X88654396Y-76958886D01*
X88654396Y-78480764D01*
X88647004Y-78643001D01*
X88624827Y-78787989D01*
X88581378Y-78932565D01*
X88509417Y-79068282D01*
X88499912Y-79081601D01*
X88403457Y-79183256D01*
X88287199Y-79251643D01*
X88167234Y-79284501D01*
X88066992Y-79291894D01*
X87933345Y-79278751D01*
X87802882Y-79232544D01*
X87693477Y-79153068D01*
X87632240Y-79081601D01*
X87559629Y-78948068D01*
X87515035Y-78803777D01*
X87491418Y-78657763D01*
X87482177Y-78493307D01*
X87482030Y-78468307D01*
X87482030Y-76945697D01*
X87483385Y-76922983D01*
X87872819Y-76922983D01*
X87872819Y-78562096D01*
X87888275Y-78710860D01*
X87956968Y-78833478D01*
X88068213Y-78869842D01*
X88187282Y-78826566D01*
X88251395Y-78696735D01*
X88263607Y-78562096D01*
X88263607Y-76922983D01*
X88248151Y-76775990D01*
X88171253Y-76648596D01*
X88068213Y-76618900D01*
X87949145Y-76661662D01*
X87885031Y-76789947D01*
X87872819Y-76922983D01*
X87483385Y-76922983D01*
X87491876Y-76780604D01*
X87521414Y-76634105D01*
X87578183Y-76491517D01*
X87639567Y-76396884D01*
X87738131Y-76300187D01*
X87856595Y-76235137D01*
X87978602Y-76203881D01*
X88080425Y-76196849D01*
X88205027Y-76209488D01*
G37*
G36*
X88993894Y-79245000D02*
G01*
X88993894Y-76290638D01*
X89329727Y-76290638D01*
X89824930Y-78055781D01*
X89861940Y-78201061D01*
X89894661Y-78345366D01*
X89900034Y-78370122D01*
X89880258Y-78225189D01*
X89863958Y-78072158D01*
X89859124Y-77972250D01*
X89859124Y-76290638D01*
X90205338Y-76290638D01*
X90205338Y-79245000D01*
X89859124Y-79245000D01*
X89381629Y-77612480D01*
X89341701Y-77469358D01*
X89307006Y-77328418D01*
X89299197Y-77290812D01*
X89318973Y-77450003D01*
X89334355Y-77597814D01*
X89340108Y-77700408D01*
X89340108Y-79245000D01*
X88993894Y-79245000D01*
G37*
G36*
X90557048Y-78468307D02*
G01*
X90557048Y-76945697D01*
X90566741Y-76780604D01*
X90595821Y-76634105D01*
X90651710Y-76491517D01*
X90712142Y-76396884D01*
X90809579Y-76300187D01*
X90926723Y-76235137D01*
X91047394Y-76203881D01*
X91148115Y-76196849D01*
X91275198Y-76208859D01*
X91410223Y-76257649D01*
X91518773Y-76343970D01*
X91600847Y-76467822D01*
X91656446Y-76629204D01*
X91681862Y-76785333D01*
X91690335Y-76965481D01*
X91690335Y-77240987D01*
X91344120Y-77240987D01*
X91344120Y-76925914D01*
X91328423Y-76777504D01*
X91258656Y-76655178D01*
X91145673Y-76618900D01*
X91025116Y-76661662D01*
X90960201Y-76789947D01*
X90947836Y-76922983D01*
X90947836Y-78562096D01*
X90963485Y-78710860D01*
X91033037Y-78833478D01*
X91145673Y-78869842D01*
X91266602Y-78827493D01*
X91331717Y-78700445D01*
X91344120Y-78568691D01*
X91344120Y-78119528D01*
X91110258Y-78119528D01*
X91110258Y-77739975D01*
X91690335Y-77739975D01*
X91690335Y-79226681D01*
X91518754Y-79226681D01*
X91449755Y-79013457D01*
X91380986Y-79135273D01*
X91285191Y-79230714D01*
X91169883Y-79282105D01*
X91082170Y-79291894D01*
X90948116Y-79275260D01*
X90833092Y-79225356D01*
X90727607Y-79130888D01*
X90691992Y-79081601D01*
X90626760Y-78948068D01*
X90586699Y-78803777D01*
X90565482Y-78657763D01*
X90557180Y-78493307D01*
X90557048Y-78468307D01*
G37*
G36*
X69953071Y-123449989D02*
G01*
X70299285Y-123383311D01*
X70308258Y-123532719D01*
X70348138Y-123683844D01*
X70442854Y-123795471D01*
X70554519Y-123822948D01*
X70676063Y-123795825D01*
X70741365Y-123746011D01*
X70805829Y-123614627D01*
X70812806Y-123538649D01*
X70791339Y-123392390D01*
X70757851Y-123304909D01*
X70690206Y-123176281D01*
X70657712Y-123129054D01*
X70568672Y-123019664D01*
X70476723Y-122909583D01*
X70467813Y-122898977D01*
X70377712Y-122790875D01*
X70286873Y-122678586D01*
X70211968Y-122580973D01*
X70137640Y-122461457D01*
X70073593Y-122326378D01*
X70060538Y-122294476D01*
X70016259Y-122151687D01*
X69994554Y-122005512D01*
X69992150Y-121936905D01*
X70002874Y-121784589D01*
X70040574Y-121629217D01*
X70105420Y-121490770D01*
X70163730Y-121407875D01*
X70265799Y-121305865D01*
X70378977Y-121237240D01*
X70503263Y-121202001D01*
X70577111Y-121196849D01*
X70703217Y-121212150D01*
X70828153Y-121265044D01*
X70937108Y-121355719D01*
X70966679Y-121390289D01*
X71042703Y-121510749D01*
X71097668Y-121654509D01*
X71128847Y-121801856D01*
X71141312Y-121924448D01*
X70781665Y-121987463D01*
X70772665Y-121836315D01*
X70734648Y-121704630D01*
X70627106Y-121623003D01*
X70584439Y-121618900D01*
X70464479Y-121664517D01*
X70438504Y-121693639D01*
X70387334Y-121827276D01*
X70382938Y-121894406D01*
X70403173Y-122045711D01*
X70440335Y-122150129D01*
X70504821Y-122277821D01*
X70553908Y-122353094D01*
X70643854Y-122467649D01*
X70734300Y-122578795D01*
X70751745Y-122600024D01*
X70837707Y-122707014D01*
X70921971Y-122818022D01*
X70976448Y-122896046D01*
X71047584Y-123024091D01*
X71101313Y-123158669D01*
X71108340Y-123179612D01*
X71144711Y-123322094D01*
X71162540Y-123474493D01*
X71164515Y-123548175D01*
X71153982Y-123703605D01*
X71116952Y-123861166D01*
X71053261Y-124000411D01*
X70995988Y-124083066D01*
X70894284Y-124184013D01*
X70778767Y-124251923D01*
X70649436Y-124286796D01*
X70571616Y-124291894D01*
X70437931Y-124278018D01*
X70318367Y-124236390D01*
X70200735Y-124156386D01*
X70121598Y-124069877D01*
X70047868Y-123947878D01*
X69995203Y-123803897D01*
X69966402Y-123659881D01*
X69953729Y-123499036D01*
X69953071Y-123449989D01*
G37*
G36*
X71440510Y-121290638D02*
G01*
X71831298Y-121290638D01*
X71831298Y-122509898D01*
X72183008Y-122509898D01*
X72183008Y-121290638D01*
X72573797Y-121290638D01*
X72573797Y-124245000D01*
X72183008Y-124245000D01*
X72183008Y-122931950D01*
X71831298Y-122931950D01*
X71831298Y-124245000D01*
X71440510Y-124245000D01*
X71440510Y-121290638D01*
G37*
G36*
X73655831Y-121209488D02*
G01*
X73780042Y-121253924D01*
X73887349Y-121330354D01*
X73949494Y-121399082D01*
X74024762Y-121525125D01*
X74075396Y-121675744D01*
X74099725Y-121830258D01*
X74105199Y-121958886D01*
X74105199Y-123480764D01*
X74097807Y-123643001D01*
X74075630Y-123787989D01*
X74032182Y-123932565D01*
X73960220Y-124068282D01*
X73950716Y-124081601D01*
X73854261Y-124183256D01*
X73738003Y-124251643D01*
X73618037Y-124284501D01*
X73517795Y-124291894D01*
X73384149Y-124278751D01*
X73253685Y-124232544D01*
X73144280Y-124153068D01*
X73083043Y-124081601D01*
X73010432Y-123948068D01*
X72965839Y-123803777D01*
X72942222Y-123657763D01*
X72932980Y-123493307D01*
X72932834Y-123468307D01*
X72932834Y-121945697D01*
X72934189Y-121922983D01*
X73323622Y-121922983D01*
X73323622Y-123562096D01*
X73339078Y-123710860D01*
X73407771Y-123833478D01*
X73519016Y-123869842D01*
X73638085Y-123826566D01*
X73702199Y-123696735D01*
X73714411Y-123562096D01*
X73714411Y-121922983D01*
X73698955Y-121775990D01*
X73622056Y-121648596D01*
X73519016Y-121618900D01*
X73399948Y-121661662D01*
X73335834Y-121789947D01*
X73323622Y-121922983D01*
X72934189Y-121922983D01*
X72942680Y-121780604D01*
X72972218Y-121634105D01*
X73028986Y-121491517D01*
X73090370Y-121396884D01*
X73188934Y-121300187D01*
X73307398Y-121235137D01*
X73429405Y-121203881D01*
X73531229Y-121196849D01*
X73655831Y-121209488D01*
G37*
G36*
X75143282Y-121300420D02*
G01*
X75271729Y-121335557D01*
X75390413Y-121405631D01*
X75472959Y-121495069D01*
X75542619Y-121629820D01*
X75585399Y-121783464D01*
X75608056Y-121944049D01*
X75616500Y-122101116D01*
X75617063Y-122157456D01*
X75612571Y-122305312D01*
X75597043Y-122450970D01*
X75563770Y-122599880D01*
X75560276Y-122611015D01*
X75502440Y-122743488D01*
X75420216Y-122853952D01*
X75374041Y-122897512D01*
X75655531Y-124268447D01*
X75258026Y-124268447D01*
X75020499Y-123025739D01*
X74835485Y-123025739D01*
X74835485Y-124268447D01*
X74444697Y-124268447D01*
X74444697Y-122603688D01*
X74835485Y-122603688D01*
X74988748Y-122603688D01*
X75110382Y-122574943D01*
X75176204Y-122501838D01*
X75213757Y-122359689D01*
X75225492Y-122201145D01*
X75226274Y-122138405D01*
X75219708Y-121989169D01*
X75189592Y-121843711D01*
X75170709Y-121804281D01*
X75061240Y-121723512D01*
X74974093Y-121712690D01*
X74835485Y-121712690D01*
X74835485Y-122603688D01*
X74444697Y-122603688D01*
X74444697Y-121290638D01*
X75013172Y-121290638D01*
X75143282Y-121300420D01*
G37*
G36*
X75707432Y-121712690D02*
G01*
X75707432Y-121290638D01*
X76879798Y-121290638D01*
X76879798Y-121712690D01*
X76489009Y-121712690D01*
X76489009Y-124268447D01*
X76098221Y-124268447D01*
X76098221Y-121712690D01*
X75707432Y-121712690D01*
G37*
G36*
X61017271Y-150224994D02*
G01*
X61363485Y-150191655D01*
X61372459Y-150266359D01*
X61412339Y-150341922D01*
X61507054Y-150397735D01*
X61618719Y-150411474D01*
X61740263Y-150397912D01*
X61805565Y-150373005D01*
X61870029Y-150307313D01*
X61877006Y-150269324D01*
X61855539Y-150196195D01*
X61822051Y-150152454D01*
X61754406Y-150088140D01*
X61721912Y-150064527D01*
X61632872Y-150009832D01*
X61540923Y-149954791D01*
X61532013Y-149949488D01*
X61441912Y-149895437D01*
X61351073Y-149839293D01*
X61276169Y-149790486D01*
X61201840Y-149730728D01*
X61137793Y-149663189D01*
X61124738Y-149647238D01*
X61080460Y-149575843D01*
X61058754Y-149502756D01*
X61056350Y-149468452D01*
X61067074Y-149392294D01*
X61104775Y-149314608D01*
X61169620Y-149245385D01*
X61227931Y-149203937D01*
X61329999Y-149152932D01*
X61443177Y-149118620D01*
X61567463Y-149101000D01*
X61641312Y-149098424D01*
X61767418Y-149106075D01*
X61892353Y-149132522D01*
X62001309Y-149177859D01*
X62030879Y-149195144D01*
X62106903Y-149255374D01*
X62161869Y-149327254D01*
X62193048Y-149400928D01*
X62205513Y-149462224D01*
X61845865Y-149493731D01*
X61836866Y-149418157D01*
X61798848Y-149352315D01*
X61691306Y-149311501D01*
X61648639Y-149309450D01*
X61528679Y-149332258D01*
X61502704Y-149346819D01*
X61451534Y-149413638D01*
X61447139Y-149447203D01*
X61467373Y-149522855D01*
X61504536Y-149575064D01*
X61569022Y-149638910D01*
X61618109Y-149676547D01*
X61708054Y-149733824D01*
X61798500Y-149789397D01*
X61815945Y-149800012D01*
X61901907Y-149853507D01*
X61986171Y-149909011D01*
X62040649Y-149948023D01*
X62111784Y-150012045D01*
X62165513Y-150079334D01*
X62172540Y-150089806D01*
X62208912Y-150161047D01*
X62226741Y-150237246D01*
X62228716Y-150274087D01*
X62218183Y-150351802D01*
X62181153Y-150430583D01*
X62117461Y-150500205D01*
X62060188Y-150541533D01*
X61958485Y-150592006D01*
X61842967Y-150625961D01*
X61713636Y-150643398D01*
X61635816Y-150645947D01*
X61502131Y-150639009D01*
X61382567Y-150618195D01*
X61264935Y-150578193D01*
X61185799Y-150534938D01*
X61112068Y-150473939D01*
X61059403Y-150401948D01*
X61030602Y-150329940D01*
X61017930Y-150249518D01*
X61017271Y-150224994D01*
G37*
G36*
X62284281Y-149145319D02*
G01*
X62669574Y-149145319D01*
X62921755Y-149739928D01*
X62946790Y-149739928D01*
X63186148Y-149145319D01*
X63574494Y-149145319D01*
X63129972Y-150016167D01*
X63129972Y-150634223D01*
X62739183Y-150634223D01*
X62739183Y-150043644D01*
X62284281Y-149145319D01*
G37*
G36*
X63703943Y-150622500D02*
G01*
X63703943Y-149145319D01*
X64039776Y-149145319D01*
X64534979Y-150027890D01*
X64571989Y-150100530D01*
X64604710Y-150172683D01*
X64610083Y-150185061D01*
X64590307Y-150112594D01*
X64574007Y-150036079D01*
X64569173Y-149986125D01*
X64569173Y-149145319D01*
X64915387Y-149145319D01*
X64915387Y-150622500D01*
X64569173Y-150622500D01*
X64091678Y-149806240D01*
X64051750Y-149734679D01*
X64017055Y-149664209D01*
X64009246Y-149645406D01*
X64029022Y-149725001D01*
X64044404Y-149798907D01*
X64050157Y-149850204D01*
X64050157Y-150622500D01*
X63703943Y-150622500D01*
G37*
G36*
X65110781Y-149356345D02*
G01*
X65110781Y-149145319D01*
X66283147Y-149145319D01*
X66283147Y-149356345D01*
X65892358Y-149356345D01*
X65892358Y-150634223D01*
X65501570Y-150634223D01*
X65501570Y-149356345D01*
X65110781Y-149356345D01*
G37*
G36*
X66434578Y-149145319D02*
G01*
X66825366Y-149145319D01*
X66825366Y-149754949D01*
X67177076Y-149754949D01*
X67177076Y-149145319D01*
X67567864Y-149145319D01*
X67567864Y-150622500D01*
X67177076Y-150622500D01*
X67177076Y-149965975D01*
X66825366Y-149965975D01*
X66825366Y-150622500D01*
X66434578Y-150622500D01*
X66434578Y-149145319D01*
G37*
G36*
X67965980Y-150645947D02*
G01*
X67965980Y-149145319D01*
X68962491Y-149145319D01*
X68962491Y-149356345D01*
X68356769Y-149356345D01*
X68356769Y-149754949D01*
X68786636Y-149754949D01*
X68786636Y-149965975D01*
X68356769Y-149965975D01*
X68356769Y-150411474D01*
X68962491Y-150411474D01*
X68962491Y-150645947D01*
X67965980Y-150645947D01*
G37*
G36*
X69135903Y-150224994D02*
G01*
X69482118Y-150191655D01*
X69491091Y-150266359D01*
X69530971Y-150341922D01*
X69625687Y-150397735D01*
X69737351Y-150411474D01*
X69858896Y-150397912D01*
X69924197Y-150373005D01*
X69988662Y-150307313D01*
X69995638Y-150269324D01*
X69974172Y-150196195D01*
X69940684Y-150152454D01*
X69873039Y-150088140D01*
X69840544Y-150064527D01*
X69751505Y-150009832D01*
X69659556Y-149954791D01*
X69650645Y-149949488D01*
X69560544Y-149895437D01*
X69469705Y-149839293D01*
X69394801Y-149790486D01*
X69320473Y-149730728D01*
X69256426Y-149663189D01*
X69243370Y-149647238D01*
X69199092Y-149575843D01*
X69177387Y-149502756D01*
X69174982Y-149468452D01*
X69185706Y-149392294D01*
X69223407Y-149314608D01*
X69288252Y-149245385D01*
X69346563Y-149203937D01*
X69448631Y-149152932D01*
X69561809Y-149118620D01*
X69686096Y-149101000D01*
X69759944Y-149098424D01*
X69886050Y-149106075D01*
X70010986Y-149132522D01*
X70119941Y-149177859D01*
X70149511Y-149195144D01*
X70225535Y-149255374D01*
X70280501Y-149327254D01*
X70311680Y-149400928D01*
X70324145Y-149462224D01*
X69964497Y-149493731D01*
X69955498Y-149418157D01*
X69917481Y-149352315D01*
X69809939Y-149311501D01*
X69767271Y-149309450D01*
X69647311Y-149332258D01*
X69621336Y-149346819D01*
X69570166Y-149413638D01*
X69565771Y-149447203D01*
X69586006Y-149522855D01*
X69623168Y-149575064D01*
X69687654Y-149638910D01*
X69736741Y-149676547D01*
X69826686Y-149733824D01*
X69917132Y-149789397D01*
X69934578Y-149800012D01*
X70020540Y-149853507D01*
X70104803Y-149909011D01*
X70159281Y-149948023D01*
X70230417Y-150012045D01*
X70284145Y-150079334D01*
X70291172Y-150089806D01*
X70327544Y-150161047D01*
X70345373Y-150237246D01*
X70347348Y-150274087D01*
X70336815Y-150351802D01*
X70299785Y-150430583D01*
X70236093Y-150500205D01*
X70178820Y-150541533D01*
X70077117Y-150592006D01*
X69961599Y-150625961D01*
X69832268Y-150643398D01*
X69754448Y-150645947D01*
X69620764Y-150639009D01*
X69501199Y-150618195D01*
X69383567Y-150578193D01*
X69304431Y-150534938D01*
X69230700Y-150473939D01*
X69178035Y-150401948D01*
X69149234Y-150329940D01*
X69136562Y-150249518D01*
X69135903Y-150224994D01*
G37*
G36*
X70623342Y-150622500D02*
G01*
X70623342Y-149145319D01*
X71014131Y-149145319D01*
X71014131Y-150622500D01*
X70623342Y-150622500D01*
G37*
G36*
X71275471Y-150224994D02*
G01*
X71621685Y-150191655D01*
X71630658Y-150266359D01*
X71670538Y-150341922D01*
X71765254Y-150397735D01*
X71876919Y-150411474D01*
X71998463Y-150397912D01*
X72063765Y-150373005D01*
X72128229Y-150307313D01*
X72135206Y-150269324D01*
X72113739Y-150196195D01*
X72080251Y-150152454D01*
X72012606Y-150088140D01*
X71980111Y-150064527D01*
X71891072Y-150009832D01*
X71799123Y-149954791D01*
X71790213Y-149949488D01*
X71700112Y-149895437D01*
X71609273Y-149839293D01*
X71534368Y-149790486D01*
X71460040Y-149730728D01*
X71395993Y-149663189D01*
X71382938Y-149647238D01*
X71338659Y-149575843D01*
X71316954Y-149502756D01*
X71314550Y-149468452D01*
X71325273Y-149392294D01*
X71362974Y-149314608D01*
X71427820Y-149245385D01*
X71486130Y-149203937D01*
X71588199Y-149152932D01*
X71701376Y-149118620D01*
X71825663Y-149101000D01*
X71899511Y-149098424D01*
X72025617Y-149106075D01*
X72150553Y-149132522D01*
X72259508Y-149177859D01*
X72289079Y-149195144D01*
X72365103Y-149255374D01*
X72420068Y-149327254D01*
X72451247Y-149400928D01*
X72463712Y-149462224D01*
X72104065Y-149493731D01*
X72095065Y-149418157D01*
X72057048Y-149352315D01*
X71949506Y-149311501D01*
X71906839Y-149309450D01*
X71786879Y-149332258D01*
X71760903Y-149346819D01*
X71709734Y-149413638D01*
X71705338Y-149447203D01*
X71725573Y-149522855D01*
X71762735Y-149575064D01*
X71827221Y-149638910D01*
X71876308Y-149676547D01*
X71966253Y-149733824D01*
X72056700Y-149789397D01*
X72074145Y-149800012D01*
X72160107Y-149853507D01*
X72244371Y-149909011D01*
X72298848Y-149948023D01*
X72369984Y-150012045D01*
X72423713Y-150079334D01*
X72430739Y-150089806D01*
X72467111Y-150161047D01*
X72484940Y-150237246D01*
X72486915Y-150274087D01*
X72476382Y-150351802D01*
X72439352Y-150430583D01*
X72375661Y-150500205D01*
X72318388Y-150541533D01*
X72216684Y-150592006D01*
X72101167Y-150625961D01*
X71971835Y-150643398D01*
X71894016Y-150645947D01*
X71760331Y-150639009D01*
X71640767Y-150618195D01*
X71523135Y-150578193D01*
X71443998Y-150534938D01*
X71370268Y-150473939D01*
X71317603Y-150401948D01*
X71288802Y-150329940D01*
X71276129Y-150249518D01*
X71275471Y-150224994D01*
G37*
G36*
X73278262Y-149356345D02*
G01*
X73278262Y-149145319D01*
X74450628Y-149145319D01*
X74450628Y-149356345D01*
X74059839Y-149356345D01*
X74059839Y-150634223D01*
X73669051Y-150634223D01*
X73669051Y-149356345D01*
X73278262Y-149356345D01*
G37*
G36*
X74602058Y-150645947D02*
G01*
X74602058Y-149145319D01*
X75598569Y-149145319D01*
X75598569Y-149356345D01*
X74992847Y-149356345D01*
X74992847Y-149754949D01*
X75422714Y-149754949D01*
X75422714Y-149965975D01*
X74992847Y-149965975D01*
X74992847Y-150411474D01*
X75598569Y-150411474D01*
X75598569Y-150645947D01*
X74602058Y-150645947D01*
G37*
G36*
X75850139Y-150234153D02*
G01*
X75850139Y-149472848D01*
X75859985Y-149390302D01*
X75889523Y-149317052D01*
X75946292Y-149245758D01*
X76007676Y-149198442D01*
X76106240Y-149150093D01*
X76224704Y-149117568D01*
X76346711Y-149101940D01*
X76448534Y-149098424D01*
X76573136Y-149104767D01*
X76697348Y-149127065D01*
X76804654Y-149165419D01*
X76866800Y-149199907D01*
X76942068Y-149262987D01*
X76992702Y-149338470D01*
X77017031Y-149415979D01*
X77022505Y-149480542D01*
X77022505Y-149623790D01*
X76631716Y-149623790D01*
X76631716Y-149461491D01*
X76616260Y-149387995D01*
X76539362Y-149324298D01*
X76436322Y-149309450D01*
X76317254Y-149330831D01*
X76253140Y-149394973D01*
X76240928Y-149461491D01*
X76240928Y-150281048D01*
X76256384Y-150355430D01*
X76325077Y-150416739D01*
X76436322Y-150434921D01*
X76555391Y-150413334D01*
X76619504Y-150348574D01*
X76631716Y-150281414D01*
X76631716Y-150081379D01*
X77022505Y-150081379D01*
X77022505Y-150237817D01*
X77015113Y-150319542D01*
X76992936Y-150392572D01*
X76949487Y-150465386D01*
X76877526Y-150533728D01*
X76868021Y-150540434D01*
X76771566Y-150591439D01*
X76655308Y-150625751D01*
X76535343Y-150642237D01*
X76435101Y-150645947D01*
X76298001Y-150639513D01*
X76179180Y-150620210D01*
X76056361Y-150577985D01*
X75962105Y-150515653D01*
X75896411Y-150433214D01*
X75864421Y-150352785D01*
X75850711Y-150259488D01*
X75850139Y-150234153D01*
G37*
G36*
X77340021Y-149145319D02*
G01*
X77730809Y-149145319D01*
X77730809Y-149754949D01*
X78082519Y-149754949D01*
X78082519Y-149145319D01*
X78473307Y-149145319D01*
X78473307Y-150622500D01*
X78082519Y-150622500D01*
X78082519Y-149965975D01*
X77730809Y-149965975D01*
X77730809Y-150622500D01*
X77340021Y-150622500D01*
X77340021Y-149145319D01*
G37*
G36*
X78871423Y-150622500D02*
G01*
X78871423Y-149145319D01*
X79207257Y-149145319D01*
X79702460Y-150027890D01*
X79739470Y-150100530D01*
X79772190Y-150172683D01*
X79777564Y-150185061D01*
X79757788Y-150112594D01*
X79741488Y-150036079D01*
X79736654Y-149986125D01*
X79736654Y-149145319D01*
X80082868Y-149145319D01*
X80082868Y-150622500D01*
X79736654Y-150622500D01*
X79259159Y-149806240D01*
X79219231Y-149734679D01*
X79184535Y-149664209D01*
X79176727Y-149645406D01*
X79196503Y-149725001D01*
X79211885Y-149798907D01*
X79217638Y-149850204D01*
X79217638Y-150622500D01*
X78871423Y-150622500D01*
G37*
G36*
X81157575Y-149104744D02*
G01*
X81281786Y-149126962D01*
X81389092Y-149165177D01*
X81451238Y-149199541D01*
X81526506Y-149262562D01*
X81577140Y-149337872D01*
X81601469Y-149415129D01*
X81606943Y-149479443D01*
X81606943Y-150240382D01*
X81599551Y-150321500D01*
X81577374Y-150393994D01*
X81533926Y-150466282D01*
X81461964Y-150534141D01*
X81452460Y-150540800D01*
X81356005Y-150591628D01*
X81239747Y-150625821D01*
X81119781Y-150642250D01*
X81019539Y-150645947D01*
X80885893Y-150639375D01*
X80755429Y-150616272D01*
X80646024Y-150576534D01*
X80584787Y-150540800D01*
X80512176Y-150474034D01*
X80467583Y-150401888D01*
X80443966Y-150328881D01*
X80434724Y-150246653D01*
X80434578Y-150234153D01*
X80434578Y-149472848D01*
X80435933Y-149461491D01*
X80825366Y-149461491D01*
X80825366Y-150281048D01*
X80840822Y-150355430D01*
X80909515Y-150416739D01*
X81020760Y-150434921D01*
X81139829Y-150413283D01*
X81203943Y-150348367D01*
X81216155Y-150281048D01*
X81216155Y-149461491D01*
X81200699Y-149387995D01*
X81123800Y-149324298D01*
X81020760Y-149309450D01*
X80901692Y-149330831D01*
X80837578Y-149394973D01*
X80825366Y-149461491D01*
X80435933Y-149461491D01*
X80444424Y-149390302D01*
X80473962Y-149317052D01*
X80530730Y-149245758D01*
X80592114Y-149198442D01*
X80690678Y-149150093D01*
X80809142Y-149117568D01*
X80931149Y-149101940D01*
X81032973Y-149098424D01*
X81157575Y-149104744D01*
G37*
G36*
X81946441Y-150622500D02*
G01*
X81946441Y-149145319D01*
X82337229Y-149145319D01*
X82337229Y-150411474D01*
X82923412Y-150411474D01*
X82923412Y-150622500D01*
X81946441Y-150622500D01*
G37*
G36*
X83812494Y-149104744D02*
G01*
X83936706Y-149126962D01*
X84044012Y-149165177D01*
X84106158Y-149199541D01*
X84181426Y-149262562D01*
X84232060Y-149337872D01*
X84256389Y-149415129D01*
X84261863Y-149479443D01*
X84261863Y-150240382D01*
X84254471Y-150321500D01*
X84232294Y-150393994D01*
X84188845Y-150466282D01*
X84116884Y-150534141D01*
X84107379Y-150540800D01*
X84010924Y-150591628D01*
X83894666Y-150625821D01*
X83774701Y-150642250D01*
X83674459Y-150645947D01*
X83540812Y-150639375D01*
X83410349Y-150616272D01*
X83300944Y-150576534D01*
X83239707Y-150540800D01*
X83167096Y-150474034D01*
X83122502Y-150401888D01*
X83098885Y-150328881D01*
X83089644Y-150246653D01*
X83089497Y-150234153D01*
X83089497Y-149472848D01*
X83090852Y-149461491D01*
X83480286Y-149461491D01*
X83480286Y-150281048D01*
X83495742Y-150355430D01*
X83564435Y-150416739D01*
X83675680Y-150434921D01*
X83794749Y-150413283D01*
X83858862Y-150348367D01*
X83871074Y-150281048D01*
X83871074Y-149461491D01*
X83855618Y-149387995D01*
X83778720Y-149324298D01*
X83675680Y-149309450D01*
X83556612Y-149330831D01*
X83492498Y-149394973D01*
X83480286Y-149461491D01*
X83090852Y-149461491D01*
X83099343Y-149390302D01*
X83128881Y-149317052D01*
X83185650Y-149245758D01*
X83247034Y-149198442D01*
X83345598Y-149150093D01*
X83464062Y-149117568D01*
X83586069Y-149101940D01*
X83687892Y-149098424D01*
X83812494Y-149104744D01*
G37*
G36*
X84562282Y-150234153D02*
G01*
X84562282Y-149472848D01*
X84571975Y-149390302D01*
X84601055Y-149317052D01*
X84656944Y-149245758D01*
X84717376Y-149198442D01*
X84814813Y-149150093D01*
X84931957Y-149117568D01*
X85052628Y-149101940D01*
X85153349Y-149098424D01*
X85280432Y-149104429D01*
X85415457Y-149128824D01*
X85524007Y-149171985D01*
X85606081Y-149233911D01*
X85661680Y-149314602D01*
X85687096Y-149392666D01*
X85695568Y-149482740D01*
X85695568Y-149620493D01*
X85349354Y-149620493D01*
X85349354Y-149462957D01*
X85333657Y-149388752D01*
X85263890Y-149327589D01*
X85150907Y-149309450D01*
X85030350Y-149330831D01*
X84965435Y-149394973D01*
X84953070Y-149461491D01*
X84953070Y-150281048D01*
X84968719Y-150355430D01*
X85038271Y-150416739D01*
X85150907Y-150434921D01*
X85271836Y-150413746D01*
X85336951Y-150350222D01*
X85349354Y-150284345D01*
X85349354Y-150059764D01*
X85115492Y-150059764D01*
X85115492Y-149869987D01*
X85695568Y-149869987D01*
X85695568Y-150613340D01*
X85523988Y-150613340D01*
X85454989Y-150506728D01*
X85386220Y-150567636D01*
X85290425Y-150615357D01*
X85175117Y-150641052D01*
X85087404Y-150645947D01*
X84953350Y-150637630D01*
X84838326Y-150612678D01*
X84732841Y-150565444D01*
X84697226Y-150540800D01*
X84631994Y-150474034D01*
X84591932Y-150401888D01*
X84570716Y-150328881D01*
X84562413Y-150246653D01*
X84562282Y-150234153D01*
G37*
G36*
X85836619Y-149145319D02*
G01*
X86221912Y-149145319D01*
X86474093Y-149739928D01*
X86499127Y-149739928D01*
X86738485Y-149145319D01*
X87126832Y-149145319D01*
X86682310Y-150016167D01*
X86682310Y-150634223D01*
X86291521Y-150634223D01*
X86291521Y-150043644D01*
X85836619Y-149145319D01*
G37*
G36*
X85081298Y-96245000D02*
G01*
X85081298Y-93290638D01*
X85582606Y-93290638D01*
X85832955Y-94938545D01*
X85852304Y-95096196D01*
X85862195Y-95251209D01*
X85864707Y-95385509D01*
X85869601Y-95228476D01*
X85882687Y-95075115D01*
X85899511Y-94942941D01*
X86139480Y-93290638D01*
X86644452Y-93290638D01*
X86644452Y-96245000D01*
X86298238Y-96245000D01*
X86298238Y-94378007D01*
X86302016Y-94227363D01*
X86309808Y-94081110D01*
X86320303Y-93927169D01*
X86325104Y-93863632D01*
X86304293Y-94015136D01*
X86283888Y-94160570D01*
X86265265Y-94282020D01*
X85952634Y-96245000D01*
X85762735Y-96245000D01*
X85462927Y-94268098D01*
X85442177Y-94122743D01*
X85434229Y-94065865D01*
X85414336Y-93920707D01*
X85413468Y-93914190D01*
X85403088Y-93846779D01*
X85413773Y-93995935D01*
X85422145Y-94148080D01*
X85426916Y-94297688D01*
X85427512Y-94364818D01*
X85427512Y-96245000D01*
X85081298Y-96245000D01*
G37*
G36*
X87728928Y-93209488D02*
G01*
X87853140Y-93253924D01*
X87960446Y-93330354D01*
X88022592Y-93399082D01*
X88097860Y-93525125D01*
X88148494Y-93675744D01*
X88172823Y-93830258D01*
X88178297Y-93958886D01*
X88178297Y-95480764D01*
X88170905Y-95643001D01*
X88148728Y-95787989D01*
X88105279Y-95932565D01*
X88033318Y-96068282D01*
X88023813Y-96081601D01*
X87927358Y-96183256D01*
X87811100Y-96251643D01*
X87691135Y-96284501D01*
X87590893Y-96291894D01*
X87457246Y-96278751D01*
X87326783Y-96232544D01*
X87217378Y-96153068D01*
X87156141Y-96081601D01*
X87083530Y-95948068D01*
X87038936Y-95803777D01*
X87015319Y-95657763D01*
X87006078Y-95493307D01*
X87005931Y-95468307D01*
X87005931Y-93945697D01*
X87007286Y-93922983D01*
X87396720Y-93922983D01*
X87396720Y-95562096D01*
X87412176Y-95710860D01*
X87480869Y-95833478D01*
X87592114Y-95869842D01*
X87711183Y-95826566D01*
X87775296Y-95696735D01*
X87787509Y-95562096D01*
X87787509Y-93922983D01*
X87772053Y-93775990D01*
X87695154Y-93648596D01*
X87592114Y-93618900D01*
X87473046Y-93661662D01*
X87408932Y-93789947D01*
X87396720Y-93922983D01*
X87007286Y-93922983D01*
X87015777Y-93780604D01*
X87045316Y-93634105D01*
X87102084Y-93491517D01*
X87163468Y-93396884D01*
X87262032Y-93300187D01*
X87380496Y-93235137D01*
X87502503Y-93203881D01*
X87604326Y-93196849D01*
X87728928Y-93209488D01*
G37*
G36*
X89198201Y-93300140D02*
G01*
X89328919Y-93334269D01*
X89451069Y-93402333D01*
X89537509Y-93489207D01*
X89611300Y-93618001D01*
X89656619Y-93761192D01*
X89680620Y-93908649D01*
X89690011Y-94076792D01*
X89690160Y-94102501D01*
X89690160Y-95420680D01*
X89685116Y-95572836D01*
X89666478Y-95730034D01*
X89628363Y-95882900D01*
X89564044Y-96020716D01*
X89546668Y-96046430D01*
X89452091Y-96142418D01*
X89329790Y-96206992D01*
X89197803Y-96238019D01*
X89084438Y-96245000D01*
X88517795Y-96245000D01*
X88517795Y-95822948D01*
X88908583Y-95822948D01*
X89100314Y-95822948D01*
X89221615Y-95778847D01*
X89286931Y-95646543D01*
X89299372Y-95509340D01*
X89299372Y-94068796D01*
X89283272Y-93918840D01*
X89226099Y-93799884D01*
X89117199Y-93729379D01*
X88995900Y-93712690D01*
X88908583Y-93712690D01*
X88908583Y-95822948D01*
X88517795Y-95822948D01*
X88517795Y-93290638D01*
X89066730Y-93290638D01*
X89198201Y-93300140D01*
G37*
G36*
X90022331Y-96291894D02*
G01*
X90022331Y-93290638D01*
X91018841Y-93290638D01*
X91018841Y-93712690D01*
X90413119Y-93712690D01*
X90413119Y-94509898D01*
X90842987Y-94509898D01*
X90842987Y-94931950D01*
X90413119Y-94931950D01*
X90413119Y-95822948D01*
X91018841Y-95822948D01*
X91018841Y-96291894D01*
X90022331Y-96291894D01*
G37*
G36*
X86338974Y-124245000D02*
G01*
X86338974Y-121290638D01*
X86729762Y-121290638D01*
X86729762Y-123822948D01*
X87315945Y-123822948D01*
X87315945Y-124245000D01*
X86338974Y-124245000D01*
G37*
G36*
X88205027Y-121209488D02*
G01*
X88329239Y-121253924D01*
X88436545Y-121330354D01*
X88498691Y-121399082D01*
X88573959Y-121525125D01*
X88624593Y-121675744D01*
X88648922Y-121830258D01*
X88654396Y-121958886D01*
X88654396Y-123480764D01*
X88647004Y-123643001D01*
X88624827Y-123787989D01*
X88581378Y-123932565D01*
X88509417Y-124068282D01*
X88499912Y-124081601D01*
X88403457Y-124183256D01*
X88287199Y-124251643D01*
X88167234Y-124284501D01*
X88066992Y-124291894D01*
X87933345Y-124278751D01*
X87802882Y-124232544D01*
X87693477Y-124153068D01*
X87632240Y-124081601D01*
X87559629Y-123948068D01*
X87515035Y-123803777D01*
X87491418Y-123657763D01*
X87482177Y-123493307D01*
X87482030Y-123468307D01*
X87482030Y-121945697D01*
X87483385Y-121922983D01*
X87872819Y-121922983D01*
X87872819Y-123562096D01*
X87888275Y-123710860D01*
X87956968Y-123833478D01*
X88068213Y-123869842D01*
X88187282Y-123826566D01*
X88251395Y-123696735D01*
X88263607Y-123562096D01*
X88263607Y-121922983D01*
X88248151Y-121775990D01*
X88171253Y-121648596D01*
X88068213Y-121618900D01*
X87949145Y-121661662D01*
X87885031Y-121789947D01*
X87872819Y-121922983D01*
X87483385Y-121922983D01*
X87491876Y-121780604D01*
X87521414Y-121634105D01*
X87578183Y-121491517D01*
X87639567Y-121396884D01*
X87738131Y-121300187D01*
X87856595Y-121235137D01*
X87978602Y-121203881D01*
X88080425Y-121196849D01*
X88205027Y-121209488D01*
G37*
G36*
X88993894Y-124245000D02*
G01*
X88993894Y-121290638D01*
X89329727Y-121290638D01*
X89824930Y-123055781D01*
X89861940Y-123201061D01*
X89894661Y-123345366D01*
X89900034Y-123370122D01*
X89880258Y-123225189D01*
X89863958Y-123072158D01*
X89859124Y-122972250D01*
X89859124Y-121290638D01*
X90205338Y-121290638D01*
X90205338Y-124245000D01*
X89859124Y-124245000D01*
X89381629Y-122612480D01*
X89341701Y-122469358D01*
X89307006Y-122328418D01*
X89299197Y-122290812D01*
X89318973Y-122450003D01*
X89334355Y-122597814D01*
X89340108Y-122700408D01*
X89340108Y-124245000D01*
X88993894Y-124245000D01*
G37*
G36*
X90557048Y-123468307D02*
G01*
X90557048Y-121945697D01*
X90566741Y-121780604D01*
X90595821Y-121634105D01*
X90651710Y-121491517D01*
X90712142Y-121396884D01*
X90809579Y-121300187D01*
X90926723Y-121235137D01*
X91047394Y-121203881D01*
X91148115Y-121196849D01*
X91275198Y-121208859D01*
X91410223Y-121257649D01*
X91518773Y-121343970D01*
X91600847Y-121467822D01*
X91656446Y-121629204D01*
X91681862Y-121785333D01*
X91690335Y-121965481D01*
X91690335Y-122240987D01*
X91344120Y-122240987D01*
X91344120Y-121925914D01*
X91328423Y-121777504D01*
X91258656Y-121655178D01*
X91145673Y-121618900D01*
X91025116Y-121661662D01*
X90960201Y-121789947D01*
X90947836Y-121922983D01*
X90947836Y-123562096D01*
X90963485Y-123710860D01*
X91033037Y-123833478D01*
X91145673Y-123869842D01*
X91266602Y-123827493D01*
X91331717Y-123700445D01*
X91344120Y-123568691D01*
X91344120Y-123119528D01*
X91110258Y-123119528D01*
X91110258Y-122739975D01*
X91690335Y-122739975D01*
X91690335Y-124226681D01*
X91518754Y-124226681D01*
X91449755Y-124013457D01*
X91380986Y-124135273D01*
X91285191Y-124230714D01*
X91169883Y-124282105D01*
X91082170Y-124291894D01*
X90948116Y-124275260D01*
X90833092Y-124225356D01*
X90727607Y-124130888D01*
X90691992Y-124081601D01*
X90626760Y-123948068D01*
X90586699Y-123803777D01*
X90565482Y-123657763D01*
X90557180Y-123493307D01*
X90557048Y-123468307D01*
G37*
G36*
X83016225Y-116255922D02*
G01*
X83016225Y-115982370D01*
X83836881Y-115982370D01*
X83836881Y-116255922D01*
X83016225Y-116255922D01*
G37*
G36*
X84889568Y-117037500D02*
G01*
X84889568Y-114575532D01*
X85280356Y-114575532D01*
X85280356Y-116685790D01*
X85866539Y-116685790D01*
X85866539Y-117037500D01*
X84889568Y-117037500D01*
G37*
G36*
X87272157Y-117057039D02*
G01*
X86880147Y-117057039D01*
X86803210Y-116529474D01*
X86418528Y-116529474D01*
X86337928Y-117057039D01*
X85963015Y-117057039D01*
X86106892Y-116177765D01*
X86467376Y-116177765D01*
X86758025Y-116177765D01*
X86627966Y-115134237D01*
X86603542Y-115134237D01*
X86467376Y-116177765D01*
X86106892Y-116177765D01*
X86369069Y-114575532D01*
X86866103Y-114575532D01*
X87272157Y-117057039D01*
G37*
G36*
X87195220Y-114927241D02*
G01*
X87195220Y-114575532D01*
X88367586Y-114575532D01*
X88367586Y-114927241D01*
X87976797Y-114927241D01*
X87976797Y-117057039D01*
X87586009Y-117057039D01*
X87586009Y-114927241D01*
X87195220Y-114927241D01*
G37*
G36*
X88479938Y-116390256D02*
G01*
X88479938Y-115121414D01*
X88489784Y-114983837D01*
X88519322Y-114861754D01*
X88576090Y-114742930D01*
X88637474Y-114664070D01*
X88736038Y-114583489D01*
X88854502Y-114529280D01*
X88976509Y-114503234D01*
X89078333Y-114497374D01*
X89202935Y-114507945D01*
X89327146Y-114545109D01*
X89434452Y-114609032D01*
X89496598Y-114666512D01*
X89571866Y-114771645D01*
X89622500Y-114897450D01*
X89646829Y-115026632D01*
X89652303Y-115134237D01*
X89652303Y-115372984D01*
X89261515Y-115372984D01*
X89261515Y-115102486D01*
X89246059Y-114979991D01*
X89169160Y-114873830D01*
X89066120Y-114849084D01*
X88947052Y-114884718D01*
X88882938Y-114991622D01*
X88870726Y-115102486D01*
X88870726Y-116468414D01*
X88886182Y-116592384D01*
X88954875Y-116694565D01*
X89066120Y-116724869D01*
X89185189Y-116688891D01*
X89249303Y-116580956D01*
X89261515Y-116469024D01*
X89261515Y-116135633D01*
X89652303Y-116135633D01*
X89652303Y-116396362D01*
X89644911Y-116532570D01*
X89622734Y-116654286D01*
X89579286Y-116775644D01*
X89507324Y-116889547D01*
X89497820Y-116900724D01*
X89401365Y-116985731D01*
X89285107Y-117042919D01*
X89165141Y-117070396D01*
X89064899Y-117076578D01*
X88927799Y-117065855D01*
X88808978Y-117033683D01*
X88686159Y-116963308D01*
X88591903Y-116859422D01*
X88526209Y-116722023D01*
X88494219Y-116587976D01*
X88480509Y-116432481D01*
X88479938Y-116390256D01*
G37*
G36*
X89969819Y-114575532D02*
G01*
X90360607Y-114575532D01*
X90360607Y-115591582D01*
X90712317Y-115591582D01*
X90712317Y-114575532D01*
X91103106Y-114575532D01*
X91103106Y-117037500D01*
X90712317Y-117037500D01*
X90712317Y-115943292D01*
X90360607Y-115943292D01*
X90360607Y-117037500D01*
X89969819Y-117037500D01*
X89969819Y-114575532D01*
G37*
G36*
X92133811Y-116255922D02*
G01*
X92133811Y-115982370D01*
X92954467Y-115982370D01*
X92954467Y-116255922D01*
X92133811Y-116255922D01*
G37*
G36*
X71717551Y-30791894D02*
G01*
X71717551Y-27790638D01*
X72714062Y-27790638D01*
X72714062Y-28212690D01*
X72108339Y-28212690D01*
X72108339Y-29009898D01*
X72538207Y-29009898D01*
X72538207Y-29431950D01*
X72108339Y-29431950D01*
X72108339Y-30322948D01*
X72714062Y-30322948D01*
X72714062Y-30791894D01*
X71717551Y-30791894D01*
G37*
G36*
X73654320Y-27710038D02*
G01*
X73782079Y-27756406D01*
X73889552Y-27836159D01*
X73949930Y-27907875D01*
X74021951Y-28041408D01*
X74066182Y-28185698D01*
X74089607Y-28331712D01*
X74098773Y-28496169D01*
X74098919Y-28521168D01*
X74098919Y-30043046D01*
X74089034Y-30208459D01*
X74059382Y-30355188D01*
X74002393Y-30497924D01*
X73940771Y-30592592D01*
X73842153Y-30688934D01*
X73724216Y-30753746D01*
X73603163Y-30784887D01*
X73502355Y-30791894D01*
X73377448Y-30779163D01*
X73252893Y-30734405D01*
X73145243Y-30657421D01*
X73082868Y-30588196D01*
X73007306Y-30461437D01*
X72956473Y-30311147D01*
X72932048Y-30157801D01*
X72926553Y-30030589D01*
X72926553Y-29938265D01*
X73317341Y-29938265D01*
X73317341Y-30135369D01*
X73352814Y-30279517D01*
X73371075Y-30305362D01*
X73486254Y-30368268D01*
X73512736Y-30369842D01*
X73630719Y-30327276D01*
X73652565Y-30305362D01*
X73706177Y-30173271D01*
X73708130Y-30135369D01*
X73708130Y-29405572D01*
X73611210Y-29500686D01*
X73498897Y-29559419D01*
X73410154Y-29572634D01*
X73270835Y-29550255D01*
X73155130Y-29483118D01*
X73063038Y-29371223D01*
X72994559Y-29214570D01*
X72956778Y-29057022D01*
X72934109Y-28870829D01*
X72927025Y-28712385D01*
X72926553Y-28655990D01*
X72931801Y-28484581D01*
X72938002Y-28423715D01*
X73317341Y-28423715D01*
X73317341Y-28842103D01*
X73329096Y-28995656D01*
X73383642Y-29135156D01*
X73505408Y-29193080D01*
X73622340Y-29147651D01*
X73699109Y-29033369D01*
X73708130Y-29011364D01*
X73708130Y-28393674D01*
X73684200Y-28247735D01*
X73652565Y-28191441D01*
X73543756Y-28122372D01*
X73505408Y-28118900D01*
X73383642Y-28169207D01*
X73326341Y-28304945D01*
X73317341Y-28423715D01*
X72938002Y-28423715D01*
X72947547Y-28330032D01*
X72984871Y-28150193D01*
X73040856Y-28000327D01*
X73115502Y-27880434D01*
X73235054Y-27772718D01*
X73351689Y-27720265D01*
X73486986Y-27697785D01*
X73523727Y-27696849D01*
X73654320Y-27710038D01*
G37*
G36*
X74384683Y-29924344D02*
G01*
X74730897Y-29924344D01*
X74730897Y-30077484D01*
X74742880Y-30225907D01*
X74798489Y-30360747D01*
X74922628Y-30416737D01*
X75039502Y-30359796D01*
X75087587Y-30220349D01*
X75093598Y-30119249D01*
X75093598Y-29355013D01*
X75071530Y-29204541D01*
X74973451Y-29111942D01*
X74936672Y-29108084D01*
X74817863Y-29159604D01*
X74746801Y-29287602D01*
X74730897Y-29342557D01*
X74423762Y-29342557D01*
X74423762Y-27790638D01*
X75390963Y-27790638D01*
X75390963Y-28212690D01*
X74736392Y-28212690D01*
X74736392Y-28912445D01*
X74838454Y-28815459D01*
X74953753Y-28750263D01*
X75072226Y-28728531D01*
X75199442Y-28754530D01*
X75309170Y-28840683D01*
X75341504Y-28886067D01*
X75401410Y-29024622D01*
X75430211Y-29171253D01*
X75439716Y-29327449D01*
X75439812Y-29346221D01*
X75439812Y-30087742D01*
X75430653Y-30244729D01*
X75398453Y-30399881D01*
X75343069Y-30532314D01*
X75293266Y-30607979D01*
X75191598Y-30707284D01*
X75069774Y-30769809D01*
X74942901Y-30794635D01*
X74896982Y-30796290D01*
X74749396Y-30777114D01*
X74626824Y-30719583D01*
X74529267Y-30623699D01*
X74456725Y-30489460D01*
X74409197Y-30316869D01*
X74389185Y-30151180D01*
X74384683Y-30010806D01*
X74384683Y-29924344D01*
G37*
G36*
X75552163Y-28452292D02*
G01*
X75552163Y-28154804D01*
X75670536Y-28094552D01*
X75787572Y-28012384D01*
X75885145Y-27916018D01*
X75971651Y-27790638D01*
X76236043Y-27790638D01*
X76236043Y-30745000D01*
X75845255Y-30745000D01*
X75845255Y-28452292D01*
X75552163Y-28452292D01*
G37*
D12*
G36*
X75630941Y-145439708D02*
G01*
X75634070Y-145480718D01*
X75628870Y-145490001D01*
X75616944Y-145482175D01*
X75615088Y-145455561D01*
X75621497Y-145427563D01*
X75630941Y-145439708D01*
G37*
G36*
X75656750Y-145558333D02*
G01*
X75659890Y-145589474D01*
X75656750Y-145593319D01*
X75641150Y-145589718D01*
X75639256Y-145575826D01*
X75648857Y-145554228D01*
X75656750Y-145558333D01*
G37*
G36*
X71597955Y-143661487D02*
G01*
X71619164Y-143738069D01*
X71645668Y-143857128D01*
X71739691Y-144286605D01*
X71835469Y-144686122D01*
X71932044Y-145052610D01*
X72028455Y-145383000D01*
X72123742Y-145674222D01*
X72216943Y-145923209D01*
X72307100Y-146126892D01*
X72393251Y-146282200D01*
X72414325Y-146313499D01*
X72442997Y-146365279D01*
X72446827Y-146397766D01*
X72445988Y-146398778D01*
X72393522Y-146417752D01*
X72318202Y-146406634D01*
X72236979Y-146369537D01*
X72193640Y-146337560D01*
X72096488Y-146224337D01*
X72004863Y-146061461D01*
X71919443Y-145851532D01*
X71840906Y-145597152D01*
X71769932Y-145300922D01*
X71707198Y-144965443D01*
X71653384Y-144593316D01*
X71609167Y-144187143D01*
X71597195Y-144050882D01*
X71583432Y-143869539D01*
X71576590Y-143740075D01*
X71576705Y-143662343D01*
X71583814Y-143636196D01*
X71597955Y-143661487D01*
G37*
G36*
X74833383Y-142917300D02*
G01*
X74887906Y-142953778D01*
X74946960Y-143009654D01*
X75003017Y-143083885D01*
X75057351Y-143180275D01*
X75111242Y-143302627D01*
X75165963Y-143454744D01*
X75222794Y-143640432D01*
X75283009Y-143863492D01*
X75347886Y-144127730D01*
X75418701Y-144436948D01*
X75480529Y-144719459D01*
X75522123Y-144916315D01*
X75555702Y-145082784D01*
X75580891Y-145216117D01*
X75597316Y-145313561D01*
X75604599Y-145372367D01*
X75602366Y-145389782D01*
X75590242Y-145363057D01*
X75567851Y-145289438D01*
X75548755Y-145219444D01*
X75480964Y-144979536D01*
X75401279Y-144723316D01*
X75312782Y-144458874D01*
X75218551Y-144194298D01*
X75121664Y-143937679D01*
X75025203Y-143697104D01*
X74932246Y-143480663D01*
X74845872Y-143296445D01*
X74769160Y-143152540D01*
X74749691Y-143120347D01*
X74697117Y-143034573D01*
X74670203Y-142981993D01*
X74665882Y-142951884D01*
X74681083Y-142933524D01*
X74694048Y-142925930D01*
X74766241Y-142901615D01*
X74833383Y-142917300D01*
G37*
G36*
X74269132Y-142869075D02*
G01*
X74270583Y-142869983D01*
X74288625Y-142893239D01*
X74281440Y-142934319D01*
X74253845Y-142994219D01*
X74211010Y-143086561D01*
X74167127Y-143198644D01*
X74120812Y-143335199D01*
X74070682Y-143500956D01*
X74015353Y-143700648D01*
X73953444Y-143939004D01*
X73883569Y-144220756D01*
X73828894Y-144447521D01*
X73755213Y-144753000D01*
X73690897Y-145012482D01*
X73634352Y-145231289D01*
X73583981Y-145414744D01*
X73538189Y-145568173D01*
X73495379Y-145696897D01*
X73453956Y-145806241D01*
X73412323Y-145901528D01*
X73368886Y-145988082D01*
X73364814Y-145995661D01*
X73263066Y-146161550D01*
X73163664Y-146276468D01*
X73064619Y-146341745D01*
X72963943Y-146358710D01*
X72863671Y-146330661D01*
X72821790Y-146303915D01*
X72812321Y-146286517D01*
X72875852Y-146161333D01*
X72939042Y-146016321D01*
X73003539Y-145846509D01*
X73070994Y-145646924D01*
X73143055Y-145412593D01*
X73221370Y-145138545D01*
X73307590Y-144819805D01*
X73341514Y-144690742D01*
X73412322Y-144421753D01*
X73472982Y-144196785D01*
X73525626Y-144008837D01*
X73572385Y-143850909D01*
X73615392Y-143715999D01*
X73656776Y-143597106D01*
X73698670Y-143487229D01*
X73734530Y-143399821D01*
X73823311Y-143213567D01*
X73916601Y-143062101D01*
X74011114Y-142948671D01*
X74103565Y-142876525D01*
X74190666Y-142848910D01*
X74269132Y-142869075D01*
G37*
G36*
X74560607Y-143184630D02*
G01*
X74599549Y-143247690D01*
X74650538Y-143342710D01*
X74709519Y-143461444D01*
X74772439Y-143595643D01*
X74835242Y-143737061D01*
X74893875Y-143877450D01*
X74911844Y-143922727D01*
X74991924Y-144137863D01*
X75080122Y-144392667D01*
X75172946Y-144675626D01*
X75266907Y-144975228D01*
X75358513Y-145279962D01*
X75444273Y-145578315D01*
X75520696Y-145858776D01*
X75584291Y-146109833D01*
X75614312Y-146239193D01*
X75647972Y-146390885D01*
X75558335Y-146484236D01*
X75357103Y-146665272D01*
X75116286Y-146834331D01*
X74848580Y-146983993D01*
X74566681Y-147106834D01*
X74392872Y-147165518D01*
X74210319Y-147206871D01*
X73993078Y-147235115D01*
X73757404Y-147249752D01*
X73519550Y-147250284D01*
X73295771Y-147236215D01*
X73102319Y-147207047D01*
X73094009Y-147205244D01*
X72743141Y-147102076D01*
X72416306Y-146954907D01*
X72116357Y-146767679D01*
X71846147Y-146544334D01*
X71608526Y-146288815D01*
X71406349Y-146005065D01*
X71242467Y-145697025D01*
X71119732Y-145368638D01*
X71040998Y-145023847D01*
X71009116Y-144666595D01*
X71022399Y-144341910D01*
X71066873Y-144056164D01*
X71138626Y-143780279D01*
X71232887Y-143531381D01*
X71269280Y-143455821D01*
X71359609Y-143279855D01*
X71361031Y-143476653D01*
X71365017Y-143603399D01*
X71374752Y-143769723D01*
X71389130Y-143963173D01*
X71407047Y-144171300D01*
X71427398Y-144381649D01*
X71449077Y-144581771D01*
X71470980Y-144759214D01*
X71481570Y-144834865D01*
X71545905Y-145210001D01*
X71622037Y-145544436D01*
X71709230Y-145836512D01*
X71806748Y-146084574D01*
X71913856Y-146286966D01*
X72029818Y-146442033D01*
X72153899Y-146548118D01*
X72264981Y-146598480D01*
X72344057Y-146615735D01*
X72407390Y-146611835D01*
X72483764Y-146584367D01*
X72495679Y-146579148D01*
X72566890Y-146549445D01*
X72609709Y-146541370D01*
X72643413Y-146554603D01*
X72671742Y-146576241D01*
X72790070Y-146640196D01*
X72930232Y-146665560D01*
X73079114Y-146652893D01*
X73223602Y-146602755D01*
X73310725Y-146549002D01*
X73418166Y-146454995D01*
X73516522Y-146339998D01*
X73607730Y-146199641D01*
X73693723Y-146029558D01*
X73776436Y-145825381D01*
X73857802Y-145582742D01*
X73939758Y-145297276D01*
X74024236Y-144964612D01*
X74038116Y-144906715D01*
X74124476Y-144546338D01*
X74200525Y-144234542D01*
X74267039Y-143968609D01*
X74324797Y-143745827D01*
X74374575Y-143563480D01*
X74417151Y-143418852D01*
X74453302Y-143309230D01*
X74483805Y-143231899D01*
X74509439Y-143184142D01*
X74530980Y-143163247D01*
X74537765Y-143161777D01*
X74560607Y-143184630D01*
G37*
G36*
X73684401Y-141969816D02*
G01*
X73858272Y-141971102D01*
X73991034Y-141974112D01*
X74094052Y-141980019D01*
X74178695Y-141989997D01*
X74256327Y-142005220D01*
X74338317Y-142026862D01*
X74392872Y-142042977D01*
X74750021Y-142176973D01*
X75078715Y-142353579D01*
X75376131Y-142569850D01*
X75639446Y-142822840D01*
X75865838Y-143109606D01*
X76052484Y-143427204D01*
X76196562Y-143772688D01*
X76261410Y-143992172D01*
X76285737Y-144129138D01*
X76301489Y-144303403D01*
X76308808Y-144500696D01*
X76307830Y-144706748D01*
X76298697Y-144907289D01*
X76281547Y-145088048D01*
X76256519Y-145234757D01*
X76248999Y-145264618D01*
X76217011Y-145370593D01*
X76177892Y-145484900D01*
X76135966Y-145596683D01*
X76095559Y-145695083D01*
X76060997Y-145769244D01*
X76036606Y-145808308D01*
X76031046Y-145811692D01*
X76020503Y-145787763D01*
X76004083Y-145723056D01*
X75984376Y-145628583D01*
X75970979Y-145556147D01*
X75944480Y-145414109D01*
X75909329Y-145237824D01*
X75867473Y-145036040D01*
X75820856Y-144817507D01*
X75771424Y-144590976D01*
X75721122Y-144365195D01*
X75671895Y-144148915D01*
X75625689Y-143950885D01*
X75584448Y-143779855D01*
X75550118Y-143644574D01*
X75529092Y-143568492D01*
X75431302Y-143278369D01*
X75324570Y-143039466D01*
X75208980Y-142851909D01*
X75084615Y-142715825D01*
X74951560Y-142631340D01*
X74899774Y-142613081D01*
X74759154Y-142592923D01*
X74631316Y-142619115D01*
X74528759Y-142674855D01*
X74458336Y-142713425D01*
X74408247Y-142715887D01*
X74394754Y-142709935D01*
X74264696Y-142660579D01*
X74137139Y-142661183D01*
X74008709Y-142712413D01*
X73879790Y-142811398D01*
X73785897Y-142914595D01*
X73696141Y-143046205D01*
X73608889Y-143210075D01*
X73522508Y-143410045D01*
X73435364Y-143649962D01*
X73345823Y-143933666D01*
X73252254Y-144265003D01*
X73235518Y-144327515D01*
X73186057Y-144513431D01*
X73131119Y-144719694D01*
X73076305Y-144925281D01*
X73027220Y-145109173D01*
X73011202Y-145169111D01*
X72967038Y-145325828D01*
X72917313Y-145488269D01*
X72865013Y-145648076D01*
X72813122Y-145796891D01*
X72764627Y-145926353D01*
X72722512Y-146028106D01*
X72689765Y-146093789D01*
X72673683Y-146114043D01*
X72652656Y-146098880D01*
X72617047Y-146046000D01*
X72573491Y-145965687D01*
X72559659Y-145937346D01*
X72483227Y-145761272D01*
X72405580Y-145550746D01*
X72325995Y-145303145D01*
X72243750Y-145015848D01*
X72158121Y-144686231D01*
X72068386Y-144311672D01*
X71973823Y-143889550D01*
X71900344Y-143545166D01*
X71854112Y-143325350D01*
X71817773Y-143150874D01*
X71791172Y-143015572D01*
X71774157Y-142913275D01*
X71766574Y-142837815D01*
X71768269Y-142783025D01*
X71779090Y-142742736D01*
X71798881Y-142710782D01*
X71827491Y-142680993D01*
X71864765Y-142647203D01*
X71877699Y-142635283D01*
X72110348Y-142447018D01*
X72379649Y-142278791D01*
X72671206Y-142138456D01*
X72970626Y-142033869D01*
X72989050Y-142028760D01*
X73077435Y-142006209D01*
X73159286Y-141990029D01*
X73245996Y-141979252D01*
X73348959Y-141972914D01*
X73479566Y-141970049D01*
X73649213Y-141969690D01*
X73684401Y-141969816D01*
G37*
G36*
X73952832Y-141378761D02*
G01*
X74179416Y-141402155D01*
X74327273Y-141427670D01*
X74723932Y-141537658D01*
X75097237Y-141692913D01*
X75444212Y-141890383D01*
X75761879Y-142127013D01*
X76047261Y-142399748D01*
X76297382Y-142705536D01*
X76509264Y-143041321D01*
X76679930Y-143404051D01*
X76806403Y-143790670D01*
X76858220Y-144024025D01*
X76876705Y-144158146D01*
X76890303Y-144326465D01*
X76897744Y-144510821D01*
X76898761Y-144604959D01*
X76894938Y-144790506D01*
X76884315Y-144969254D01*
X76868158Y-145123046D01*
X76858220Y-145185893D01*
X76758682Y-145585667D01*
X76613774Y-145962404D01*
X76426553Y-146313267D01*
X76200076Y-146635421D01*
X75937400Y-146926027D01*
X75641584Y-147182250D01*
X75315685Y-147401253D01*
X74962760Y-147580200D01*
X74585867Y-147716255D01*
X74188064Y-147806579D01*
X74006871Y-147831139D01*
X73835440Y-147847146D01*
X73689102Y-147853778D01*
X73545647Y-147851002D01*
X73382864Y-147838788D01*
X73296636Y-147830124D01*
X72975984Y-147776091D01*
X72645360Y-147683436D01*
X72322508Y-147558104D01*
X72025171Y-147406038D01*
X72017952Y-147401788D01*
X71677441Y-147170804D01*
X71372743Y-146902436D01*
X71105726Y-146599322D01*
X70878259Y-146264101D01*
X70692209Y-145899411D01*
X70549445Y-145507889D01*
X70477819Y-145226620D01*
X70452466Y-145061362D01*
X70436809Y-144860733D01*
X70430814Y-144640933D01*
X70433247Y-144491711D01*
X70643692Y-144491711D01*
X70652452Y-144859401D01*
X70706515Y-145224252D01*
X70805883Y-145582065D01*
X70950562Y-145928642D01*
X71140556Y-146259786D01*
X71375869Y-146571299D01*
X71537690Y-146745914D01*
X71823569Y-146999231D01*
X72134055Y-147209715D01*
X72475632Y-147381416D01*
X72686017Y-147463235D01*
X72870245Y-147523478D01*
X73038450Y-147566554D01*
X73205449Y-147594560D01*
X73386059Y-147609591D01*
X73595095Y-147613747D01*
X73736880Y-147611964D01*
X73915830Y-147606778D01*
X74056663Y-147598652D01*
X74173723Y-147585972D01*
X74281357Y-147567124D01*
X74393909Y-147540493D01*
X74410441Y-147536166D01*
X74785124Y-147411317D01*
X75134531Y-147243200D01*
X75455863Y-147035413D01*
X75746325Y-146791555D01*
X76003119Y-146515224D01*
X76223449Y-146210018D01*
X76404518Y-145879534D01*
X76543529Y-145527371D01*
X76637686Y-145157126D01*
X76684192Y-144772398D01*
X76688843Y-144604959D01*
X76663807Y-144216136D01*
X76590799Y-143841914D01*
X76472966Y-143485449D01*
X76313458Y-143149893D01*
X76115422Y-142838402D01*
X75882007Y-142554131D01*
X75616362Y-142300233D01*
X75321634Y-142079864D01*
X75000972Y-141896178D01*
X74657525Y-141752329D01*
X74294441Y-141651472D01*
X73914868Y-141596762D01*
X73677156Y-141587397D01*
X73271914Y-141612083D01*
X72884752Y-141685780D01*
X72516994Y-141807946D01*
X72169966Y-141978039D01*
X71844993Y-142195517D01*
X71543397Y-142459837D01*
X71542213Y-142461015D01*
X71279257Y-142757588D01*
X71061576Y-143076509D01*
X70889175Y-143413580D01*
X70762057Y-143764602D01*
X70680228Y-144125379D01*
X70643692Y-144491711D01*
X70433247Y-144491711D01*
X70434446Y-144418160D01*
X70447671Y-144208612D01*
X70470455Y-144028490D01*
X70480493Y-143976269D01*
X70592515Y-143567205D01*
X70746561Y-143188870D01*
X70943854Y-142838984D01*
X71185617Y-142515268D01*
X71375647Y-142309324D01*
X71678309Y-142040485D01*
X72005042Y-141816210D01*
X72359007Y-141634814D01*
X72743367Y-141494613D01*
X73054649Y-141415236D01*
X73244705Y-141386284D01*
X73468843Y-141370663D01*
X73710430Y-141368209D01*
X73952832Y-141378761D01*
G37*
%LPC*%
%LPD*%
M02*
