G04 #@! TF.GenerationSoftware,KiCad,Pcbnew,8.0.5*
G04 #@! TF.CreationDate,2024-11-04T14:17:19-06:00*
G04 #@! TF.ProjectId,Jack PCB,4a61636b-2050-4434-922e-6b696361645f,rev?*
G04 #@! TF.SameCoordinates,Original*
G04 #@! TF.FileFunction,Copper,L2,Bot*
G04 #@! TF.FilePolarity,Positive*
%FSLAX46Y46*%
G04 Gerber Fmt 4.6, Leading zero omitted, Abs format (unit mm)*
G04 Created by KiCad (PCBNEW 8.0.5) date 2024-11-04 14:17:19*
%MOMM*%
%LPD*%
G01*
G04 APERTURE LIST*
G04 #@! TA.AperFunction,ComponentPad*
%ADD10R,1.830000X1.930000*%
G04 #@! TD*
G04 #@! TA.AperFunction,ComponentPad*
%ADD11C,2.130000*%
G04 #@! TD*
G04 #@! TA.AperFunction,ComponentPad*
%ADD12O,1.700000X1.700000*%
G04 #@! TD*
G04 #@! TA.AperFunction,ComponentPad*
%ADD13R,1.700000X1.700000*%
G04 #@! TD*
G04 #@! TA.AperFunction,Conductor*
%ADD14C,0.500000*%
G04 #@! TD*
G04 APERTURE END LIST*
D10*
X146540000Y-100500000D03*
D11*
X157940000Y-100500000D03*
X149640000Y-100500000D03*
D10*
X162040000Y-100500000D03*
D11*
X173440000Y-100500000D03*
X165140000Y-100500000D03*
D12*
X144180000Y-106750000D03*
X146720000Y-106750000D03*
X149260000Y-106750000D03*
X151800000Y-106750000D03*
X154340000Y-106750000D03*
X156880000Y-106750000D03*
X159420000Y-106750000D03*
X161960000Y-106750000D03*
D13*
X164500000Y-106750000D03*
D10*
X131040000Y-100500000D03*
D11*
X142440000Y-100500000D03*
X134140000Y-100500000D03*
D14*
X146720000Y-106510000D02*
X146720000Y-106750000D01*
X136000000Y-104000000D02*
X144210000Y-104000000D01*
X144210000Y-104000000D02*
X146720000Y-106510000D01*
X134140000Y-102140000D02*
X136000000Y-104000000D01*
X134140000Y-100500000D02*
X134140000Y-102140000D01*
X149260000Y-106510000D02*
X149260000Y-106750000D01*
X142440000Y-100500000D02*
X143250000Y-100500000D01*
X143250000Y-100500000D02*
X149260000Y-106510000D01*
X154340000Y-105200000D02*
X154340000Y-106750000D01*
X149640000Y-100500000D02*
X154340000Y-105200000D01*
X157940000Y-105690000D02*
X156880000Y-106750000D01*
X157940000Y-100500000D02*
X157940000Y-105690000D01*
X161960000Y-105990000D02*
X161960000Y-106750000D01*
X165140000Y-102810000D02*
X161960000Y-105990000D01*
X165140000Y-100500000D02*
X165140000Y-102810000D01*
X167190000Y-106750000D02*
X164740000Y-106750000D01*
X173440000Y-100500000D02*
X167190000Y-106750000D01*
X152090000Y-106500000D02*
X152090000Y-106050000D01*
X143670000Y-106500000D02*
X143920000Y-106250000D01*
X159000000Y-106090000D02*
X159160000Y-106250000D01*
M02*
