G04 #@! TF.GenerationSoftware,KiCad,Pcbnew,8.0.5*
G04 #@! TF.CreationDate,2024-11-04T14:17:19-06:00*
G04 #@! TF.ProjectId,Jack PCB,4a61636b-2050-4434-922e-6b696361645f,rev?*
G04 #@! TF.SameCoordinates,Original*
G04 #@! TF.FileFunction,Legend,Top*
G04 #@! TF.FilePolarity,Positive*
%FSLAX46Y46*%
G04 Gerber Fmt 4.6, Leading zero omitted, Abs format (unit mm)*
G04 Created by KiCad (PCBNEW 8.0.5) date 2024-11-04 14:17:19*
%MOMM*%
%LPD*%
G01*
G04 APERTURE LIST*
%ADD10C,0.150000*%
%ADD11C,0.120000*%
%ADD12R,1.830000X1.930000*%
%ADD13C,2.130000*%
%ADD14O,1.700000X1.700000*%
%ADD15R,1.700000X1.700000*%
G04 APERTURE END LIST*
D10*
X166284819Y-107083333D02*
X166999104Y-107083333D01*
X166999104Y-107083333D02*
X167141961Y-107130952D01*
X167141961Y-107130952D02*
X167237200Y-107226190D01*
X167237200Y-107226190D02*
X167284819Y-107369047D01*
X167284819Y-107369047D02*
X167284819Y-107464285D01*
X166618152Y-106178571D02*
X167284819Y-106178571D01*
X166237200Y-106416666D02*
X166951485Y-106654761D01*
X166951485Y-106654761D02*
X166951485Y-106035714D01*
D11*
X165830000Y-105420000D02*
X165830000Y-106750000D01*
X164500000Y-105420000D02*
X165830000Y-105420000D01*
X163230000Y-108080000D02*
X142850000Y-108080000D01*
X163230000Y-105420000D02*
X163230000Y-108080000D01*
X163230000Y-105420000D02*
X142850000Y-105420000D01*
X142850000Y-105420000D02*
X142850000Y-108080000D01*
%LPC*%
D12*
X146540000Y-100500000D03*
D13*
X157940000Y-100500000D03*
X149640000Y-100500000D03*
D12*
X162040000Y-100500000D03*
D13*
X173440000Y-100500000D03*
X165140000Y-100500000D03*
D14*
X144180000Y-106750000D03*
X146720000Y-106750000D03*
X149260000Y-106750000D03*
X151800000Y-106750000D03*
X154340000Y-106750000D03*
X156880000Y-106750000D03*
X159420000Y-106750000D03*
X161960000Y-106750000D03*
D15*
X164500000Y-106750000D03*
D12*
X131040000Y-100500000D03*
D13*
X142440000Y-100500000D03*
X134140000Y-100500000D03*
%LPD*%
M02*
