G04 #@! TF.GenerationSoftware,KiCad,Pcbnew,8.0.5*
G04 #@! TF.CreationDate,2024-11-04T14:17:19-06:00*
G04 #@! TF.ProjectId,Jack PCB,4a61636b-2050-4434-922e-6b696361645f,rev?*
G04 #@! TF.SameCoordinates,Original*
G04 #@! TF.FileFunction,Copper,L1,Top*
G04 #@! TF.FilePolarity,Positive*
%FSLAX46Y46*%
G04 Gerber Fmt 4.6, Leading zero omitted, Abs format (unit mm)*
G04 Created by KiCad (PCBNEW 8.0.5) date 2024-11-04 14:17:19*
%MOMM*%
%LPD*%
G01*
G04 APERTURE LIST*
G04 #@! TA.AperFunction,ComponentPad*
%ADD10R,1.830000X1.930000*%
G04 #@! TD*
G04 #@! TA.AperFunction,ComponentPad*
%ADD11C,2.130000*%
G04 #@! TD*
G04 #@! TA.AperFunction,ComponentPad*
%ADD12O,1.700000X1.700000*%
G04 #@! TD*
G04 #@! TA.AperFunction,ComponentPad*
%ADD13R,1.700000X1.700000*%
G04 #@! TD*
G04 #@! TA.AperFunction,Conductor*
%ADD14C,0.200000*%
G04 #@! TD*
G04 APERTURE END LIST*
D10*
X146540000Y-100500000D03*
D11*
X157940000Y-100500000D03*
X149640000Y-100500000D03*
D10*
X162040000Y-100500000D03*
D11*
X173440000Y-100500000D03*
X165140000Y-100500000D03*
D12*
X144180000Y-106750000D03*
X146720000Y-106750000D03*
X149260000Y-106750000D03*
X151800000Y-106750000D03*
X154340000Y-106750000D03*
X156880000Y-106750000D03*
X159420000Y-106750000D03*
X161960000Y-106750000D03*
D13*
X164500000Y-106750000D03*
D10*
X131040000Y-100500000D03*
D11*
X142440000Y-100500000D03*
X134140000Y-100500000D03*
D14*
X159710000Y-105930000D02*
X159710000Y-106500000D01*
G04 #@! TA.AperFunction,Conductor*
G36*
X174942539Y-94520185D02*
G01*
X174988294Y-94572989D01*
X174999500Y-94624500D01*
X174999500Y-99609020D01*
X174979815Y-99676059D01*
X174927011Y-99721814D01*
X174857853Y-99731758D01*
X174794297Y-99702733D01*
X174769773Y-99673810D01*
X174710436Y-99576982D01*
X174710435Y-99576979D01*
X174633718Y-99487155D01*
X174550399Y-99389601D01*
X174371313Y-99236647D01*
X174363020Y-99229564D01*
X174363018Y-99229563D01*
X174152920Y-99100815D01*
X173925264Y-99006517D01*
X173685658Y-98948993D01*
X173440000Y-98929659D01*
X173194341Y-98948993D01*
X172954735Y-99006517D01*
X172727079Y-99100815D01*
X172516981Y-99229563D01*
X172516979Y-99229564D01*
X172329601Y-99389601D01*
X172169564Y-99576979D01*
X172169563Y-99576981D01*
X172040815Y-99787079D01*
X171946517Y-100014735D01*
X171888993Y-100254341D01*
X171869659Y-100500000D01*
X171888993Y-100745658D01*
X171946517Y-100985264D01*
X172040815Y-101212920D01*
X172169563Y-101423018D01*
X172169564Y-101423020D01*
X172169567Y-101423023D01*
X172329601Y-101610399D01*
X172451987Y-101714926D01*
X172516979Y-101770435D01*
X172516981Y-101770436D01*
X172727079Y-101899184D01*
X172954735Y-101993482D01*
X172954736Y-101993482D01*
X172954738Y-101993483D01*
X173194345Y-102051007D01*
X173440000Y-102070341D01*
X173685655Y-102051007D01*
X173925262Y-101993483D01*
X174152920Y-101899184D01*
X174363023Y-101770433D01*
X174550399Y-101610399D01*
X174710433Y-101423023D01*
X174769772Y-101326189D01*
X174821584Y-101279314D01*
X174890514Y-101267891D01*
X174954677Y-101295548D01*
X174993701Y-101353503D01*
X174999500Y-101390979D01*
X174999500Y-108375500D01*
X174979815Y-108442539D01*
X174927011Y-108488294D01*
X174875500Y-108499500D01*
X129624500Y-108499500D01*
X129557461Y-108479815D01*
X129511706Y-108427011D01*
X129500500Y-108375500D01*
X129500500Y-106499999D01*
X142849364Y-106499999D01*
X142849364Y-106500000D01*
X143746988Y-106500000D01*
X143714075Y-106557007D01*
X143680000Y-106684174D01*
X143680000Y-106815826D01*
X143714075Y-106942993D01*
X143746988Y-107000000D01*
X142849364Y-107000000D01*
X142906567Y-107213486D01*
X142906570Y-107213492D01*
X143006399Y-107427578D01*
X143141894Y-107621082D01*
X143308917Y-107788105D01*
X143502421Y-107923600D01*
X143716507Y-108023429D01*
X143716516Y-108023433D01*
X143930000Y-108080634D01*
X143930000Y-107183012D01*
X143987007Y-107215925D01*
X144114174Y-107250000D01*
X144245826Y-107250000D01*
X144372993Y-107215925D01*
X144430000Y-107183012D01*
X144430000Y-108080633D01*
X144643483Y-108023433D01*
X144643492Y-108023429D01*
X144857578Y-107923600D01*
X145051082Y-107788105D01*
X145218105Y-107621082D01*
X145348119Y-107435405D01*
X145402696Y-107391781D01*
X145472195Y-107384588D01*
X145534549Y-107416110D01*
X145551269Y-107435405D01*
X145681505Y-107621401D01*
X145848599Y-107788495D01*
X145945384Y-107856265D01*
X146042165Y-107924032D01*
X146042167Y-107924033D01*
X146042170Y-107924035D01*
X146256337Y-108023903D01*
X146484592Y-108085063D01*
X146661034Y-108100500D01*
X146719999Y-108105659D01*
X146720000Y-108105659D01*
X146720001Y-108105659D01*
X146778966Y-108100500D01*
X146955408Y-108085063D01*
X147183663Y-108023903D01*
X147397830Y-107924035D01*
X147591401Y-107788495D01*
X147758495Y-107621401D01*
X147888425Y-107435842D01*
X147943002Y-107392217D01*
X148012500Y-107385023D01*
X148074855Y-107416546D01*
X148091575Y-107435842D01*
X148221281Y-107621082D01*
X148221505Y-107621401D01*
X148388599Y-107788495D01*
X148485384Y-107856265D01*
X148582165Y-107924032D01*
X148582167Y-107924033D01*
X148582170Y-107924035D01*
X148796337Y-108023903D01*
X149024592Y-108085063D01*
X149201034Y-108100500D01*
X149259999Y-108105659D01*
X149260000Y-108105659D01*
X149260001Y-108105659D01*
X149318966Y-108100500D01*
X149495408Y-108085063D01*
X149723663Y-108023903D01*
X149937830Y-107924035D01*
X150131401Y-107788495D01*
X150298495Y-107621401D01*
X150428730Y-107435405D01*
X150483307Y-107391781D01*
X150552805Y-107384587D01*
X150615160Y-107416110D01*
X150631879Y-107435405D01*
X150761890Y-107621078D01*
X150928917Y-107788105D01*
X151122421Y-107923600D01*
X151336507Y-108023429D01*
X151336516Y-108023433D01*
X151550000Y-108080634D01*
X151550000Y-107183012D01*
X151607007Y-107215925D01*
X151734174Y-107250000D01*
X151865826Y-107250000D01*
X151992993Y-107215925D01*
X152050000Y-107183012D01*
X152050000Y-108080633D01*
X152263483Y-108023433D01*
X152263492Y-108023429D01*
X152477578Y-107923600D01*
X152671082Y-107788105D01*
X152838105Y-107621082D01*
X152968119Y-107435405D01*
X153022696Y-107391781D01*
X153092195Y-107384588D01*
X153154549Y-107416110D01*
X153171269Y-107435405D01*
X153301505Y-107621401D01*
X153468599Y-107788495D01*
X153565384Y-107856265D01*
X153662165Y-107924032D01*
X153662167Y-107924033D01*
X153662170Y-107924035D01*
X153876337Y-108023903D01*
X154104592Y-108085063D01*
X154281034Y-108100500D01*
X154339999Y-108105659D01*
X154340000Y-108105659D01*
X154340001Y-108105659D01*
X154398966Y-108100500D01*
X154575408Y-108085063D01*
X154803663Y-108023903D01*
X155017830Y-107924035D01*
X155211401Y-107788495D01*
X155378495Y-107621401D01*
X155508425Y-107435842D01*
X155563002Y-107392217D01*
X155632500Y-107385023D01*
X155694855Y-107416546D01*
X155711575Y-107435842D01*
X155841281Y-107621082D01*
X155841505Y-107621401D01*
X156008599Y-107788495D01*
X156105384Y-107856265D01*
X156202165Y-107924032D01*
X156202167Y-107924033D01*
X156202170Y-107924035D01*
X156416337Y-108023903D01*
X156644592Y-108085063D01*
X156821034Y-108100500D01*
X156879999Y-108105659D01*
X156880000Y-108105659D01*
X156880001Y-108105659D01*
X156938966Y-108100500D01*
X157115408Y-108085063D01*
X157343663Y-108023903D01*
X157557830Y-107924035D01*
X157751401Y-107788495D01*
X157918495Y-107621401D01*
X158048730Y-107435405D01*
X158103307Y-107391781D01*
X158172805Y-107384587D01*
X158235160Y-107416110D01*
X158251879Y-107435405D01*
X158381890Y-107621078D01*
X158548917Y-107788105D01*
X158742421Y-107923600D01*
X158956507Y-108023429D01*
X158956516Y-108023433D01*
X159170000Y-108080634D01*
X159170000Y-107183012D01*
X159227007Y-107215925D01*
X159354174Y-107250000D01*
X159485826Y-107250000D01*
X159612993Y-107215925D01*
X159670000Y-107183012D01*
X159670000Y-108080633D01*
X159883483Y-108023433D01*
X159883492Y-108023429D01*
X160097578Y-107923600D01*
X160291082Y-107788105D01*
X160458105Y-107621082D01*
X160588119Y-107435405D01*
X160642696Y-107391781D01*
X160712195Y-107384588D01*
X160774549Y-107416110D01*
X160791269Y-107435405D01*
X160921505Y-107621401D01*
X161088599Y-107788495D01*
X161185384Y-107856265D01*
X161282165Y-107924032D01*
X161282167Y-107924033D01*
X161282170Y-107924035D01*
X161496337Y-108023903D01*
X161724592Y-108085063D01*
X161901034Y-108100500D01*
X161959999Y-108105659D01*
X161960000Y-108105659D01*
X161960001Y-108105659D01*
X162018966Y-108100500D01*
X162195408Y-108085063D01*
X162423663Y-108023903D01*
X162637830Y-107924035D01*
X162831401Y-107788495D01*
X162953329Y-107666566D01*
X163014648Y-107633084D01*
X163084340Y-107638068D01*
X163140274Y-107679939D01*
X163157189Y-107710917D01*
X163206202Y-107842328D01*
X163206206Y-107842335D01*
X163292452Y-107957544D01*
X163292455Y-107957547D01*
X163407664Y-108043793D01*
X163407671Y-108043797D01*
X163542517Y-108094091D01*
X163542516Y-108094091D01*
X163549444Y-108094835D01*
X163602127Y-108100500D01*
X165397872Y-108100499D01*
X165457483Y-108094091D01*
X165592331Y-108043796D01*
X165707546Y-107957546D01*
X165793796Y-107842331D01*
X165844091Y-107707483D01*
X165850500Y-107647873D01*
X165850499Y-105852128D01*
X165844091Y-105792517D01*
X165842810Y-105789083D01*
X165793797Y-105657671D01*
X165793793Y-105657664D01*
X165707547Y-105542455D01*
X165707544Y-105542452D01*
X165592335Y-105456206D01*
X165592328Y-105456202D01*
X165457482Y-105405908D01*
X165457483Y-105405908D01*
X165397883Y-105399501D01*
X165397881Y-105399500D01*
X165397873Y-105399500D01*
X165397864Y-105399500D01*
X163602129Y-105399500D01*
X163602123Y-105399501D01*
X163542516Y-105405908D01*
X163407671Y-105456202D01*
X163407664Y-105456206D01*
X163292455Y-105542452D01*
X163292452Y-105542455D01*
X163206206Y-105657664D01*
X163206203Y-105657669D01*
X163157189Y-105789083D01*
X163115317Y-105845016D01*
X163049853Y-105869433D01*
X162981580Y-105854581D01*
X162953326Y-105833430D01*
X162831402Y-105711506D01*
X162831395Y-105711501D01*
X162637834Y-105575967D01*
X162637830Y-105575965D01*
X162637828Y-105575964D01*
X162423663Y-105476097D01*
X162423659Y-105476096D01*
X162423655Y-105476094D01*
X162195413Y-105414938D01*
X162195403Y-105414936D01*
X161960001Y-105394341D01*
X161959999Y-105394341D01*
X161724596Y-105414936D01*
X161724586Y-105414938D01*
X161496344Y-105476094D01*
X161496335Y-105476098D01*
X161282171Y-105575964D01*
X161282169Y-105575965D01*
X161088597Y-105711505D01*
X160921508Y-105878594D01*
X160791269Y-106064595D01*
X160736692Y-106108219D01*
X160667193Y-106115412D01*
X160604839Y-106083890D01*
X160588119Y-106064594D01*
X160458113Y-105878926D01*
X160458108Y-105878920D01*
X160291082Y-105711894D01*
X160097578Y-105576399D01*
X159883492Y-105476570D01*
X159883486Y-105476567D01*
X159670000Y-105419364D01*
X159670000Y-106316988D01*
X159612993Y-106284075D01*
X159485826Y-106250000D01*
X159354174Y-106250000D01*
X159227007Y-106284075D01*
X159170000Y-106316988D01*
X159170000Y-105419364D01*
X159169999Y-105419364D01*
X158956513Y-105476567D01*
X158956507Y-105476570D01*
X158742422Y-105576399D01*
X158742420Y-105576400D01*
X158548926Y-105711886D01*
X158548920Y-105711891D01*
X158381891Y-105878920D01*
X158381890Y-105878922D01*
X158251880Y-106064595D01*
X158197303Y-106108219D01*
X158127804Y-106115412D01*
X158065450Y-106083890D01*
X158048730Y-106064594D01*
X157918494Y-105878597D01*
X157751402Y-105711506D01*
X157751395Y-105711501D01*
X157557834Y-105575967D01*
X157557830Y-105575965D01*
X157557828Y-105575964D01*
X157343663Y-105476097D01*
X157343659Y-105476096D01*
X157343655Y-105476094D01*
X157115413Y-105414938D01*
X157115403Y-105414936D01*
X156880001Y-105394341D01*
X156879999Y-105394341D01*
X156644596Y-105414936D01*
X156644586Y-105414938D01*
X156416344Y-105476094D01*
X156416335Y-105476098D01*
X156202171Y-105575964D01*
X156202169Y-105575965D01*
X156008597Y-105711505D01*
X155841505Y-105878597D01*
X155711575Y-106064158D01*
X155656998Y-106107783D01*
X155587500Y-106114977D01*
X155525145Y-106083454D01*
X155508425Y-106064158D01*
X155378494Y-105878597D01*
X155211402Y-105711506D01*
X155211395Y-105711501D01*
X155017834Y-105575967D01*
X155017830Y-105575965D01*
X155017828Y-105575964D01*
X154803663Y-105476097D01*
X154803659Y-105476096D01*
X154803655Y-105476094D01*
X154575413Y-105414938D01*
X154575403Y-105414936D01*
X154340001Y-105394341D01*
X154339999Y-105394341D01*
X154104596Y-105414936D01*
X154104586Y-105414938D01*
X153876344Y-105476094D01*
X153876335Y-105476098D01*
X153662171Y-105575964D01*
X153662169Y-105575965D01*
X153468597Y-105711505D01*
X153301508Y-105878594D01*
X153171269Y-106064595D01*
X153116692Y-106108219D01*
X153047193Y-106115412D01*
X152984839Y-106083890D01*
X152968119Y-106064594D01*
X152838113Y-105878926D01*
X152838108Y-105878920D01*
X152671082Y-105711894D01*
X152477578Y-105576399D01*
X152263492Y-105476570D01*
X152263486Y-105476567D01*
X152050000Y-105419364D01*
X152050000Y-106316988D01*
X151992993Y-106284075D01*
X151865826Y-106250000D01*
X151734174Y-106250000D01*
X151607007Y-106284075D01*
X151550000Y-106316988D01*
X151550000Y-105419364D01*
X151549999Y-105419364D01*
X151336513Y-105476567D01*
X151336507Y-105476570D01*
X151122422Y-105576399D01*
X151122420Y-105576400D01*
X150928926Y-105711886D01*
X150928920Y-105711891D01*
X150761891Y-105878920D01*
X150761890Y-105878922D01*
X150631880Y-106064595D01*
X150577303Y-106108219D01*
X150507804Y-106115412D01*
X150445450Y-106083890D01*
X150428730Y-106064594D01*
X150298494Y-105878597D01*
X150131402Y-105711506D01*
X150131395Y-105711501D01*
X149937834Y-105575967D01*
X149937830Y-105575965D01*
X149937828Y-105575964D01*
X149723663Y-105476097D01*
X149723659Y-105476096D01*
X149723655Y-105476094D01*
X149495413Y-105414938D01*
X149495403Y-105414936D01*
X149260001Y-105394341D01*
X149259999Y-105394341D01*
X149024596Y-105414936D01*
X149024586Y-105414938D01*
X148796344Y-105476094D01*
X148796335Y-105476098D01*
X148582171Y-105575964D01*
X148582169Y-105575965D01*
X148388597Y-105711505D01*
X148221505Y-105878597D01*
X148091575Y-106064158D01*
X148036998Y-106107783D01*
X147967500Y-106114977D01*
X147905145Y-106083454D01*
X147888425Y-106064158D01*
X147758494Y-105878597D01*
X147591402Y-105711506D01*
X147591395Y-105711501D01*
X147397834Y-105575967D01*
X147397830Y-105575965D01*
X147397828Y-105575964D01*
X147183663Y-105476097D01*
X147183659Y-105476096D01*
X147183655Y-105476094D01*
X146955413Y-105414938D01*
X146955403Y-105414936D01*
X146720001Y-105394341D01*
X146719999Y-105394341D01*
X146484596Y-105414936D01*
X146484586Y-105414938D01*
X146256344Y-105476094D01*
X146256335Y-105476098D01*
X146042171Y-105575964D01*
X146042169Y-105575965D01*
X145848597Y-105711505D01*
X145681508Y-105878594D01*
X145551269Y-106064595D01*
X145496692Y-106108219D01*
X145427193Y-106115412D01*
X145364839Y-106083890D01*
X145348119Y-106064594D01*
X145218113Y-105878926D01*
X145218108Y-105878920D01*
X145051082Y-105711894D01*
X144857578Y-105576399D01*
X144643492Y-105476570D01*
X144643486Y-105476567D01*
X144430000Y-105419364D01*
X144430000Y-106316988D01*
X144372993Y-106284075D01*
X144245826Y-106250000D01*
X144114174Y-106250000D01*
X143987007Y-106284075D01*
X143930000Y-106316988D01*
X143930000Y-105419364D01*
X143929999Y-105419364D01*
X143716513Y-105476567D01*
X143716507Y-105476570D01*
X143502422Y-105576399D01*
X143502420Y-105576400D01*
X143308926Y-105711886D01*
X143308920Y-105711891D01*
X143141891Y-105878920D01*
X143141886Y-105878926D01*
X143006400Y-106072420D01*
X143006399Y-106072422D01*
X142906570Y-106286507D01*
X142906567Y-106286513D01*
X142849364Y-106499999D01*
X129500500Y-106499999D01*
X129500500Y-101837664D01*
X129520185Y-101770625D01*
X129572989Y-101724870D01*
X129642147Y-101714926D01*
X129705703Y-101743951D01*
X129723767Y-101763353D01*
X129767813Y-101822190D01*
X129882906Y-101908350D01*
X129882913Y-101908354D01*
X130017620Y-101958596D01*
X130017627Y-101958598D01*
X130077155Y-101964999D01*
X130077172Y-101965000D01*
X130790000Y-101965000D01*
X130790000Y-101056706D01*
X130862069Y-101086558D01*
X130979920Y-101110000D01*
X131100080Y-101110000D01*
X131217931Y-101086558D01*
X131290000Y-101056706D01*
X131290000Y-101965000D01*
X132002828Y-101965000D01*
X132002844Y-101964999D01*
X132062372Y-101958598D01*
X132062379Y-101958596D01*
X132197086Y-101908354D01*
X132197093Y-101908350D01*
X132312187Y-101822190D01*
X132312190Y-101822187D01*
X132398350Y-101707093D01*
X132398354Y-101707086D01*
X132448596Y-101572379D01*
X132448598Y-101572372D01*
X132454999Y-101512844D01*
X132455000Y-101512827D01*
X132455000Y-101146290D01*
X132474685Y-101079251D01*
X132527489Y-101033496D01*
X132596647Y-101023552D01*
X132660203Y-101052577D01*
X132693561Y-101098837D01*
X132740815Y-101212920D01*
X132869563Y-101423018D01*
X132869564Y-101423020D01*
X132869567Y-101423023D01*
X133029601Y-101610399D01*
X133151987Y-101714926D01*
X133216979Y-101770435D01*
X133216981Y-101770436D01*
X133427079Y-101899184D01*
X133654735Y-101993482D01*
X133654736Y-101993482D01*
X133654738Y-101993483D01*
X133894345Y-102051007D01*
X134140000Y-102070341D01*
X134385655Y-102051007D01*
X134625262Y-101993483D01*
X134852920Y-101899184D01*
X135063023Y-101770433D01*
X135250399Y-101610399D01*
X135410433Y-101423023D01*
X135539184Y-101212920D01*
X135633483Y-100985262D01*
X135691007Y-100745655D01*
X135710341Y-100500000D01*
X140869659Y-100500000D01*
X140888993Y-100745658D01*
X140946517Y-100985264D01*
X141040815Y-101212920D01*
X141169563Y-101423018D01*
X141169564Y-101423020D01*
X141169567Y-101423023D01*
X141329601Y-101610399D01*
X141451987Y-101714926D01*
X141516979Y-101770435D01*
X141516981Y-101770436D01*
X141727079Y-101899184D01*
X141954735Y-101993482D01*
X141954736Y-101993482D01*
X141954738Y-101993483D01*
X142194345Y-102051007D01*
X142440000Y-102070341D01*
X142685655Y-102051007D01*
X142925262Y-101993483D01*
X143152920Y-101899184D01*
X143363023Y-101770433D01*
X143550399Y-101610399D01*
X143710433Y-101423023D01*
X143839184Y-101212920D01*
X143933483Y-100985262D01*
X143991007Y-100745655D01*
X144010341Y-100500000D01*
X143991007Y-100254345D01*
X143933483Y-100014738D01*
X143933482Y-100014735D01*
X143839184Y-99787079D01*
X143710436Y-99576981D01*
X143710435Y-99576979D01*
X143633718Y-99487155D01*
X145125000Y-99487155D01*
X145125000Y-100250000D01*
X145983294Y-100250000D01*
X145953442Y-100322069D01*
X145930000Y-100439920D01*
X145930000Y-100560080D01*
X145953442Y-100677931D01*
X145983294Y-100750000D01*
X145125000Y-100750000D01*
X145125000Y-101512844D01*
X145131401Y-101572372D01*
X145131403Y-101572379D01*
X145181645Y-101707086D01*
X145181649Y-101707093D01*
X145267809Y-101822187D01*
X145267812Y-101822190D01*
X145382906Y-101908350D01*
X145382913Y-101908354D01*
X145517620Y-101958596D01*
X145517627Y-101958598D01*
X145577155Y-101964999D01*
X145577172Y-101965000D01*
X146290000Y-101965000D01*
X146290000Y-101056706D01*
X146362069Y-101086558D01*
X146479920Y-101110000D01*
X146600080Y-101110000D01*
X146717931Y-101086558D01*
X146790000Y-101056706D01*
X146790000Y-101965000D01*
X147502828Y-101965000D01*
X147502844Y-101964999D01*
X147562372Y-101958598D01*
X147562379Y-101958596D01*
X147697086Y-101908354D01*
X147697093Y-101908350D01*
X147812187Y-101822190D01*
X147812190Y-101822187D01*
X147898350Y-101707093D01*
X147898354Y-101707086D01*
X147948596Y-101572379D01*
X147948598Y-101572372D01*
X147954999Y-101512844D01*
X147955000Y-101512827D01*
X147955000Y-101146290D01*
X147974685Y-101079251D01*
X148027489Y-101033496D01*
X148096647Y-101023552D01*
X148160203Y-101052577D01*
X148193561Y-101098837D01*
X148240815Y-101212920D01*
X148369563Y-101423018D01*
X148369564Y-101423020D01*
X148369567Y-101423023D01*
X148529601Y-101610399D01*
X148651987Y-101714926D01*
X148716979Y-101770435D01*
X148716981Y-101770436D01*
X148927079Y-101899184D01*
X149154735Y-101993482D01*
X149154736Y-101993482D01*
X149154738Y-101993483D01*
X149394345Y-102051007D01*
X149640000Y-102070341D01*
X149885655Y-102051007D01*
X150125262Y-101993483D01*
X150352920Y-101899184D01*
X150563023Y-101770433D01*
X150750399Y-101610399D01*
X150910433Y-101423023D01*
X151039184Y-101212920D01*
X151133483Y-100985262D01*
X151191007Y-100745655D01*
X151210341Y-100500000D01*
X156369659Y-100500000D01*
X156388993Y-100745658D01*
X156446517Y-100985264D01*
X156540815Y-101212920D01*
X156669563Y-101423018D01*
X156669564Y-101423020D01*
X156669567Y-101423023D01*
X156829601Y-101610399D01*
X156951987Y-101714926D01*
X157016979Y-101770435D01*
X157016981Y-101770436D01*
X157227079Y-101899184D01*
X157454735Y-101993482D01*
X157454736Y-101993482D01*
X157454738Y-101993483D01*
X157694345Y-102051007D01*
X157940000Y-102070341D01*
X158185655Y-102051007D01*
X158425262Y-101993483D01*
X158652920Y-101899184D01*
X158863023Y-101770433D01*
X159050399Y-101610399D01*
X159210433Y-101423023D01*
X159339184Y-101212920D01*
X159433483Y-100985262D01*
X159491007Y-100745655D01*
X159510341Y-100500000D01*
X159491007Y-100254345D01*
X159433483Y-100014738D01*
X159433482Y-100014735D01*
X159339184Y-99787079D01*
X159210436Y-99576981D01*
X159210435Y-99576979D01*
X159133718Y-99487155D01*
X160625000Y-99487155D01*
X160625000Y-100250000D01*
X161483294Y-100250000D01*
X161453442Y-100322069D01*
X161430000Y-100439920D01*
X161430000Y-100560080D01*
X161453442Y-100677931D01*
X161483294Y-100750000D01*
X160625000Y-100750000D01*
X160625000Y-101512844D01*
X160631401Y-101572372D01*
X160631403Y-101572379D01*
X160681645Y-101707086D01*
X160681649Y-101707093D01*
X160767809Y-101822187D01*
X160767812Y-101822190D01*
X160882906Y-101908350D01*
X160882913Y-101908354D01*
X161017620Y-101958596D01*
X161017627Y-101958598D01*
X161077155Y-101964999D01*
X161077172Y-101965000D01*
X161790000Y-101965000D01*
X161790000Y-101056706D01*
X161862069Y-101086558D01*
X161979920Y-101110000D01*
X162100080Y-101110000D01*
X162217931Y-101086558D01*
X162290000Y-101056706D01*
X162290000Y-101965000D01*
X163002828Y-101965000D01*
X163002844Y-101964999D01*
X163062372Y-101958598D01*
X163062379Y-101958596D01*
X163197086Y-101908354D01*
X163197093Y-101908350D01*
X163312187Y-101822190D01*
X163312190Y-101822187D01*
X163398350Y-101707093D01*
X163398354Y-101707086D01*
X163448596Y-101572379D01*
X163448598Y-101572372D01*
X163454999Y-101512844D01*
X163455000Y-101512827D01*
X163455000Y-101146290D01*
X163474685Y-101079251D01*
X163527489Y-101033496D01*
X163596647Y-101023552D01*
X163660203Y-101052577D01*
X163693561Y-101098837D01*
X163740815Y-101212920D01*
X163869563Y-101423018D01*
X163869564Y-101423020D01*
X163869567Y-101423023D01*
X164029601Y-101610399D01*
X164151987Y-101714926D01*
X164216979Y-101770435D01*
X164216981Y-101770436D01*
X164427079Y-101899184D01*
X164654735Y-101993482D01*
X164654736Y-101993482D01*
X164654738Y-101993483D01*
X164894345Y-102051007D01*
X165140000Y-102070341D01*
X165385655Y-102051007D01*
X165625262Y-101993483D01*
X165852920Y-101899184D01*
X166063023Y-101770433D01*
X166250399Y-101610399D01*
X166410433Y-101423023D01*
X166539184Y-101212920D01*
X166633483Y-100985262D01*
X166691007Y-100745655D01*
X166710341Y-100500000D01*
X166691007Y-100254345D01*
X166633483Y-100014738D01*
X166633482Y-100014735D01*
X166539184Y-99787079D01*
X166410436Y-99576981D01*
X166410435Y-99576979D01*
X166333718Y-99487155D01*
X166250399Y-99389601D01*
X166071313Y-99236647D01*
X166063020Y-99229564D01*
X166063018Y-99229563D01*
X165852920Y-99100815D01*
X165625264Y-99006517D01*
X165385658Y-98948993D01*
X165140000Y-98929659D01*
X164894341Y-98948993D01*
X164654735Y-99006517D01*
X164427079Y-99100815D01*
X164216981Y-99229563D01*
X164216979Y-99229564D01*
X164029601Y-99389601D01*
X163869564Y-99576979D01*
X163869563Y-99576981D01*
X163740815Y-99787079D01*
X163693561Y-99901162D01*
X163649720Y-99955565D01*
X163583426Y-99977630D01*
X163515726Y-99960351D01*
X163468116Y-99909213D01*
X163455000Y-99853709D01*
X163455000Y-99487172D01*
X163454999Y-99487155D01*
X163448598Y-99427627D01*
X163448596Y-99427620D01*
X163398354Y-99292913D01*
X163398350Y-99292906D01*
X163312190Y-99177812D01*
X163312187Y-99177809D01*
X163197093Y-99091649D01*
X163197086Y-99091645D01*
X163062379Y-99041403D01*
X163062372Y-99041401D01*
X163002844Y-99035000D01*
X162290000Y-99035000D01*
X162290000Y-99943293D01*
X162217931Y-99913442D01*
X162100080Y-99890000D01*
X161979920Y-99890000D01*
X161862069Y-99913442D01*
X161790000Y-99943293D01*
X161790000Y-99035000D01*
X161077155Y-99035000D01*
X161017627Y-99041401D01*
X161017620Y-99041403D01*
X160882913Y-99091645D01*
X160882906Y-99091649D01*
X160767812Y-99177809D01*
X160767809Y-99177812D01*
X160681649Y-99292906D01*
X160681645Y-99292913D01*
X160631403Y-99427620D01*
X160631401Y-99427627D01*
X160625000Y-99487155D01*
X159133718Y-99487155D01*
X159050399Y-99389601D01*
X158871313Y-99236647D01*
X158863020Y-99229564D01*
X158863018Y-99229563D01*
X158652920Y-99100815D01*
X158425264Y-99006517D01*
X158185658Y-98948993D01*
X157940000Y-98929659D01*
X157694341Y-98948993D01*
X157454735Y-99006517D01*
X157227079Y-99100815D01*
X157016981Y-99229563D01*
X157016979Y-99229564D01*
X156829601Y-99389601D01*
X156669564Y-99576979D01*
X156669563Y-99576981D01*
X156540815Y-99787079D01*
X156446517Y-100014735D01*
X156388993Y-100254341D01*
X156369659Y-100500000D01*
X151210341Y-100500000D01*
X151191007Y-100254345D01*
X151133483Y-100014738D01*
X151133482Y-100014735D01*
X151039184Y-99787079D01*
X150910436Y-99576981D01*
X150910435Y-99576979D01*
X150833718Y-99487155D01*
X150750399Y-99389601D01*
X150571313Y-99236647D01*
X150563020Y-99229564D01*
X150563018Y-99229563D01*
X150352920Y-99100815D01*
X150125264Y-99006517D01*
X149885658Y-98948993D01*
X149640000Y-98929659D01*
X149394341Y-98948993D01*
X149154735Y-99006517D01*
X148927079Y-99100815D01*
X148716981Y-99229563D01*
X148716979Y-99229564D01*
X148529601Y-99389601D01*
X148369564Y-99576979D01*
X148369563Y-99576981D01*
X148240815Y-99787079D01*
X148193561Y-99901162D01*
X148149720Y-99955565D01*
X148083426Y-99977630D01*
X148015726Y-99960351D01*
X147968116Y-99909213D01*
X147955000Y-99853709D01*
X147955000Y-99487172D01*
X147954999Y-99487155D01*
X147948598Y-99427627D01*
X147948596Y-99427620D01*
X147898354Y-99292913D01*
X147898350Y-99292906D01*
X147812190Y-99177812D01*
X147812187Y-99177809D01*
X147697093Y-99091649D01*
X147697086Y-99091645D01*
X147562379Y-99041403D01*
X147562372Y-99041401D01*
X147502844Y-99035000D01*
X146790000Y-99035000D01*
X146790000Y-99943293D01*
X146717931Y-99913442D01*
X146600080Y-99890000D01*
X146479920Y-99890000D01*
X146362069Y-99913442D01*
X146290000Y-99943293D01*
X146290000Y-99035000D01*
X145577155Y-99035000D01*
X145517627Y-99041401D01*
X145517620Y-99041403D01*
X145382913Y-99091645D01*
X145382906Y-99091649D01*
X145267812Y-99177809D01*
X145267809Y-99177812D01*
X145181649Y-99292906D01*
X145181645Y-99292913D01*
X145131403Y-99427620D01*
X145131401Y-99427627D01*
X145125000Y-99487155D01*
X143633718Y-99487155D01*
X143550399Y-99389601D01*
X143371313Y-99236647D01*
X143363020Y-99229564D01*
X143363018Y-99229563D01*
X143152920Y-99100815D01*
X142925264Y-99006517D01*
X142685658Y-98948993D01*
X142440000Y-98929659D01*
X142194341Y-98948993D01*
X141954735Y-99006517D01*
X141727079Y-99100815D01*
X141516981Y-99229563D01*
X141516979Y-99229564D01*
X141329601Y-99389601D01*
X141169564Y-99576979D01*
X141169563Y-99576981D01*
X141040815Y-99787079D01*
X140946517Y-100014735D01*
X140888993Y-100254341D01*
X140869659Y-100500000D01*
X135710341Y-100500000D01*
X135691007Y-100254345D01*
X135633483Y-100014738D01*
X135633482Y-100014735D01*
X135539184Y-99787079D01*
X135410436Y-99576981D01*
X135410435Y-99576979D01*
X135333718Y-99487155D01*
X135250399Y-99389601D01*
X135071313Y-99236647D01*
X135063020Y-99229564D01*
X135063018Y-99229563D01*
X134852920Y-99100815D01*
X134625264Y-99006517D01*
X134385658Y-98948993D01*
X134140000Y-98929659D01*
X133894341Y-98948993D01*
X133654735Y-99006517D01*
X133427079Y-99100815D01*
X133216981Y-99229563D01*
X133216979Y-99229564D01*
X133029601Y-99389601D01*
X132869564Y-99576979D01*
X132869563Y-99576981D01*
X132740815Y-99787079D01*
X132693561Y-99901162D01*
X132649720Y-99955565D01*
X132583426Y-99977630D01*
X132515726Y-99960351D01*
X132468116Y-99909213D01*
X132455000Y-99853709D01*
X132455000Y-99487172D01*
X132454999Y-99487155D01*
X132448598Y-99427627D01*
X132448596Y-99427620D01*
X132398354Y-99292913D01*
X132398350Y-99292906D01*
X132312190Y-99177812D01*
X132312187Y-99177809D01*
X132197093Y-99091649D01*
X132197086Y-99091645D01*
X132062379Y-99041403D01*
X132062372Y-99041401D01*
X132002844Y-99035000D01*
X131290000Y-99035000D01*
X131290000Y-99943293D01*
X131217931Y-99913442D01*
X131100080Y-99890000D01*
X130979920Y-99890000D01*
X130862069Y-99913442D01*
X130790000Y-99943293D01*
X130790000Y-99035000D01*
X130077155Y-99035000D01*
X130017627Y-99041401D01*
X130017620Y-99041403D01*
X129882913Y-99091645D01*
X129882906Y-99091649D01*
X129767812Y-99177809D01*
X129723766Y-99236647D01*
X129667832Y-99278517D01*
X129598140Y-99283501D01*
X129536818Y-99250015D01*
X129503333Y-99188691D01*
X129500500Y-99162335D01*
X129500500Y-94624500D01*
X129520185Y-94557461D01*
X129572989Y-94511706D01*
X129624500Y-94500500D01*
X174875500Y-94500500D01*
X174942539Y-94520185D01*
G37*
G04 #@! TD.AperFunction*
M02*
