%TF.GenerationSoftware,KiCad,Pcbnew,8.0.5*%
%TF.CreationDate,2024-11-04T14:21:08-06:00*%
%TF.ProjectId,Jack PCB,4a61636b-2050-4434-922e-6b696361645f,rev?*%
%TF.SameCoordinates,Original*%
%TF.FileFunction,Drillmap*%
%TF.FilePolarity,Positive*%
%FSLAX45Y45*%
G04 Gerber Fmt 4.5, Leading zero omitted, Abs format (unit mm)*
G04 Created by KiCad (PCBNEW 8.0.5) date 2024-11-04 14:21:08*
%MOMM*%
%LPD*%
G01*
G04 APERTURE LIST*
%ADD10C,0.050000*%
%ADD11C,0.200000*%
%ADD12C,0.100000*%
%ADD13C,0.122000*%
%ADD14C,0.142000*%
%ADD15C,0.143000*%
G04 APERTURE END LIST*
D10*
X12900000Y-9400000D02*
X17550000Y-9400000D01*
X17550000Y-10900000D01*
X12900000Y-10900000D01*
X12900000Y-9400000D01*
D11*
D12*
X14368000Y-10625000D02*
X14468000Y-10725000D01*
X14468000Y-10625000D02*
X14368000Y-10725000D01*
X14622000Y-10625000D02*
X14722000Y-10725000D01*
X14722000Y-10625000D02*
X14622000Y-10725000D01*
X14876000Y-10625000D02*
X14976000Y-10725000D01*
X14976000Y-10625000D02*
X14876000Y-10725000D01*
X15130000Y-10625000D02*
X15230000Y-10725000D01*
X15230000Y-10625000D02*
X15130000Y-10725000D01*
X15384000Y-10625000D02*
X15484000Y-10725000D01*
X15484000Y-10625000D02*
X15384000Y-10725000D01*
X15638000Y-10625000D02*
X15738000Y-10725000D01*
X15738000Y-10625000D02*
X15638000Y-10725000D01*
X15892000Y-10625000D02*
X15992000Y-10725000D01*
X15992000Y-10625000D02*
X15892000Y-10725000D01*
X16146000Y-10625000D02*
X16246000Y-10725000D01*
X16246000Y-10625000D02*
X16146000Y-10725000D01*
X16400000Y-10625000D02*
X16500000Y-10725000D01*
X16500000Y-10625000D02*
X16400000Y-10725000D01*
D13*
X13165000Y-10050000D02*
G75*
G02*
X13043000Y-10050000I-61000J0D01*
G01*
X13043000Y-10050000D02*
G75*
G02*
X13165000Y-10050000I61000J0D01*
G01*
X14715000Y-10050000D02*
G75*
G02*
X14593000Y-10050000I-61000J0D01*
G01*
X14593000Y-10050000D02*
G75*
G02*
X14715000Y-10050000I61000J0D01*
G01*
X16265000Y-10050000D02*
G75*
G02*
X16143000Y-10050000I-61000J0D01*
G01*
X16143000Y-10050000D02*
G75*
G02*
X16265000Y-10050000I61000J0D01*
G01*
D14*
X13414000Y-9979000D02*
X13414000Y-10121000D01*
X13343000Y-10050000D02*
X13485000Y-10050000D01*
X14964000Y-9979000D02*
X14964000Y-10121000D01*
X14893000Y-10050000D02*
X15035000Y-10050000D01*
X16514000Y-9979000D02*
X16514000Y-10121000D01*
X16443000Y-10050000D02*
X16585000Y-10050000D01*
D15*
X14294559Y-10100559D02*
X14294559Y-9999441D01*
X14193441Y-9999441D01*
X14193441Y-10100559D01*
X14294559Y-10100559D01*
X15844559Y-10100559D02*
X15844559Y-9999441D01*
X15743441Y-9999441D01*
X15743441Y-10100559D01*
X15844559Y-10100559D01*
X17394559Y-10100559D02*
X17394559Y-9999441D01*
X17293441Y-9999441D01*
X17293441Y-10100559D01*
X17394559Y-10100559D01*
D11*
X13158277Y-11213984D02*
X13158277Y-11013984D01*
X13158277Y-11013984D02*
X13205896Y-11013984D01*
X13205896Y-11013984D02*
X13234467Y-11023508D01*
X13234467Y-11023508D02*
X13253515Y-11042555D01*
X13253515Y-11042555D02*
X13263039Y-11061603D01*
X13263039Y-11061603D02*
X13272562Y-11099698D01*
X13272562Y-11099698D02*
X13272562Y-11128270D01*
X13272562Y-11128270D02*
X13263039Y-11166365D01*
X13263039Y-11166365D02*
X13253515Y-11185412D01*
X13253515Y-11185412D02*
X13234467Y-11204460D01*
X13234467Y-11204460D02*
X13205896Y-11213984D01*
X13205896Y-11213984D02*
X13158277Y-11213984D01*
X13358277Y-11213984D02*
X13358277Y-11080650D01*
X13358277Y-11118746D02*
X13367801Y-11099698D01*
X13367801Y-11099698D02*
X13377324Y-11090174D01*
X13377324Y-11090174D02*
X13396372Y-11080650D01*
X13396372Y-11080650D02*
X13415420Y-11080650D01*
X13482086Y-11213984D02*
X13482086Y-11080650D01*
X13482086Y-11013984D02*
X13472562Y-11023508D01*
X13472562Y-11023508D02*
X13482086Y-11033031D01*
X13482086Y-11033031D02*
X13491610Y-11023508D01*
X13491610Y-11023508D02*
X13482086Y-11013984D01*
X13482086Y-11013984D02*
X13482086Y-11033031D01*
X13605896Y-11213984D02*
X13586848Y-11204460D01*
X13586848Y-11204460D02*
X13577324Y-11185412D01*
X13577324Y-11185412D02*
X13577324Y-11013984D01*
X13710658Y-11213984D02*
X13691610Y-11204460D01*
X13691610Y-11204460D02*
X13682086Y-11185412D01*
X13682086Y-11185412D02*
X13682086Y-11013984D01*
X13939229Y-11213984D02*
X13939229Y-11013984D01*
X13939229Y-11013984D02*
X14005896Y-11156841D01*
X14005896Y-11156841D02*
X14072562Y-11013984D01*
X14072562Y-11013984D02*
X14072562Y-11213984D01*
X14253515Y-11213984D02*
X14253515Y-11109222D01*
X14253515Y-11109222D02*
X14243991Y-11090174D01*
X14243991Y-11090174D02*
X14224943Y-11080650D01*
X14224943Y-11080650D02*
X14186848Y-11080650D01*
X14186848Y-11080650D02*
X14167801Y-11090174D01*
X14253515Y-11204460D02*
X14234467Y-11213984D01*
X14234467Y-11213984D02*
X14186848Y-11213984D01*
X14186848Y-11213984D02*
X14167801Y-11204460D01*
X14167801Y-11204460D02*
X14158277Y-11185412D01*
X14158277Y-11185412D02*
X14158277Y-11166365D01*
X14158277Y-11166365D02*
X14167801Y-11147317D01*
X14167801Y-11147317D02*
X14186848Y-11137793D01*
X14186848Y-11137793D02*
X14234467Y-11137793D01*
X14234467Y-11137793D02*
X14253515Y-11128270D01*
X14348753Y-11080650D02*
X14348753Y-11280650D01*
X14348753Y-11090174D02*
X14367801Y-11080650D01*
X14367801Y-11080650D02*
X14405896Y-11080650D01*
X14405896Y-11080650D02*
X14424943Y-11090174D01*
X14424943Y-11090174D02*
X14434467Y-11099698D01*
X14434467Y-11099698D02*
X14443991Y-11118746D01*
X14443991Y-11118746D02*
X14443991Y-11175889D01*
X14443991Y-11175889D02*
X14434467Y-11194936D01*
X14434467Y-11194936D02*
X14424943Y-11204460D01*
X14424943Y-11204460D02*
X14405896Y-11213984D01*
X14405896Y-11213984D02*
X14367801Y-11213984D01*
X14367801Y-11213984D02*
X14348753Y-11204460D01*
X14529705Y-11194936D02*
X14539229Y-11204460D01*
X14539229Y-11204460D02*
X14529705Y-11213984D01*
X14529705Y-11213984D02*
X14520182Y-11204460D01*
X14520182Y-11204460D02*
X14529705Y-11194936D01*
X14529705Y-11194936D02*
X14529705Y-11213984D01*
X14529705Y-11090174D02*
X14539229Y-11099698D01*
X14539229Y-11099698D02*
X14529705Y-11109222D01*
X14529705Y-11109222D02*
X14520182Y-11099698D01*
X14520182Y-11099698D02*
X14529705Y-11090174D01*
X14529705Y-11090174D02*
X14529705Y-11109222D01*
D12*
X12797500Y-11492500D02*
X12897500Y-11592500D01*
X12897500Y-11492500D02*
X12797500Y-11592500D01*
D11*
X13263039Y-11633984D02*
X13148753Y-11633984D01*
X13205896Y-11633984D02*
X13205896Y-11433984D01*
X13205896Y-11433984D02*
X13186848Y-11462555D01*
X13186848Y-11462555D02*
X13167801Y-11481603D01*
X13167801Y-11481603D02*
X13148753Y-11491127D01*
X13348753Y-11614936D02*
X13358277Y-11624460D01*
X13358277Y-11624460D02*
X13348753Y-11633984D01*
X13348753Y-11633984D02*
X13339229Y-11624460D01*
X13339229Y-11624460D02*
X13348753Y-11614936D01*
X13348753Y-11614936D02*
X13348753Y-11633984D01*
X13482086Y-11433984D02*
X13501134Y-11433984D01*
X13501134Y-11433984D02*
X13520182Y-11443508D01*
X13520182Y-11443508D02*
X13529705Y-11453031D01*
X13529705Y-11453031D02*
X13539229Y-11472079D01*
X13539229Y-11472079D02*
X13548753Y-11510174D01*
X13548753Y-11510174D02*
X13548753Y-11557793D01*
X13548753Y-11557793D02*
X13539229Y-11595888D01*
X13539229Y-11595888D02*
X13529705Y-11614936D01*
X13529705Y-11614936D02*
X13520182Y-11624460D01*
X13520182Y-11624460D02*
X13501134Y-11633984D01*
X13501134Y-11633984D02*
X13482086Y-11633984D01*
X13482086Y-11633984D02*
X13463039Y-11624460D01*
X13463039Y-11624460D02*
X13453515Y-11614936D01*
X13453515Y-11614936D02*
X13443991Y-11595888D01*
X13443991Y-11595888D02*
X13434467Y-11557793D01*
X13434467Y-11557793D02*
X13434467Y-11510174D01*
X13434467Y-11510174D02*
X13443991Y-11472079D01*
X13443991Y-11472079D02*
X13453515Y-11453031D01*
X13453515Y-11453031D02*
X13463039Y-11443508D01*
X13463039Y-11443508D02*
X13482086Y-11433984D01*
X13672562Y-11433984D02*
X13691610Y-11433984D01*
X13691610Y-11433984D02*
X13710658Y-11443508D01*
X13710658Y-11443508D02*
X13720182Y-11453031D01*
X13720182Y-11453031D02*
X13729705Y-11472079D01*
X13729705Y-11472079D02*
X13739229Y-11510174D01*
X13739229Y-11510174D02*
X13739229Y-11557793D01*
X13739229Y-11557793D02*
X13729705Y-11595888D01*
X13729705Y-11595888D02*
X13720182Y-11614936D01*
X13720182Y-11614936D02*
X13710658Y-11624460D01*
X13710658Y-11624460D02*
X13691610Y-11633984D01*
X13691610Y-11633984D02*
X13672562Y-11633984D01*
X13672562Y-11633984D02*
X13653515Y-11624460D01*
X13653515Y-11624460D02*
X13643991Y-11614936D01*
X13643991Y-11614936D02*
X13634467Y-11595888D01*
X13634467Y-11595888D02*
X13624943Y-11557793D01*
X13624943Y-11557793D02*
X13624943Y-11510174D01*
X13624943Y-11510174D02*
X13634467Y-11472079D01*
X13634467Y-11472079D02*
X13643991Y-11453031D01*
X13643991Y-11453031D02*
X13653515Y-11443508D01*
X13653515Y-11443508D02*
X13672562Y-11433984D01*
X13863039Y-11433984D02*
X13882086Y-11433984D01*
X13882086Y-11433984D02*
X13901134Y-11443508D01*
X13901134Y-11443508D02*
X13910658Y-11453031D01*
X13910658Y-11453031D02*
X13920182Y-11472079D01*
X13920182Y-11472079D02*
X13929705Y-11510174D01*
X13929705Y-11510174D02*
X13929705Y-11557793D01*
X13929705Y-11557793D02*
X13920182Y-11595888D01*
X13920182Y-11595888D02*
X13910658Y-11614936D01*
X13910658Y-11614936D02*
X13901134Y-11624460D01*
X13901134Y-11624460D02*
X13882086Y-11633984D01*
X13882086Y-11633984D02*
X13863039Y-11633984D01*
X13863039Y-11633984D02*
X13843991Y-11624460D01*
X13843991Y-11624460D02*
X13834467Y-11614936D01*
X13834467Y-11614936D02*
X13824943Y-11595888D01*
X13824943Y-11595888D02*
X13815420Y-11557793D01*
X13815420Y-11557793D02*
X13815420Y-11510174D01*
X13815420Y-11510174D02*
X13824943Y-11472079D01*
X13824943Y-11472079D02*
X13834467Y-11453031D01*
X13834467Y-11453031D02*
X13843991Y-11443508D01*
X13843991Y-11443508D02*
X13863039Y-11433984D01*
X14015420Y-11633984D02*
X14015420Y-11500650D01*
X14015420Y-11519698D02*
X14024943Y-11510174D01*
X14024943Y-11510174D02*
X14043991Y-11500650D01*
X14043991Y-11500650D02*
X14072563Y-11500650D01*
X14072563Y-11500650D02*
X14091610Y-11510174D01*
X14091610Y-11510174D02*
X14101134Y-11529222D01*
X14101134Y-11529222D02*
X14101134Y-11633984D01*
X14101134Y-11529222D02*
X14110658Y-11510174D01*
X14110658Y-11510174D02*
X14129705Y-11500650D01*
X14129705Y-11500650D02*
X14158277Y-11500650D01*
X14158277Y-11500650D02*
X14177324Y-11510174D01*
X14177324Y-11510174D02*
X14186848Y-11529222D01*
X14186848Y-11529222D02*
X14186848Y-11633984D01*
X14282086Y-11633984D02*
X14282086Y-11500650D01*
X14282086Y-11519698D02*
X14291610Y-11510174D01*
X14291610Y-11510174D02*
X14310658Y-11500650D01*
X14310658Y-11500650D02*
X14339229Y-11500650D01*
X14339229Y-11500650D02*
X14358277Y-11510174D01*
X14358277Y-11510174D02*
X14367801Y-11529222D01*
X14367801Y-11529222D02*
X14367801Y-11633984D01*
X14367801Y-11529222D02*
X14377324Y-11510174D01*
X14377324Y-11510174D02*
X14396372Y-11500650D01*
X14396372Y-11500650D02*
X14424943Y-11500650D01*
X14424943Y-11500650D02*
X14443991Y-11510174D01*
X14443991Y-11510174D02*
X14453515Y-11529222D01*
X14453515Y-11529222D02*
X14453515Y-11633984D01*
X14843991Y-11424460D02*
X14672563Y-11681603D01*
X15101134Y-11433984D02*
X15120182Y-11433984D01*
X15120182Y-11433984D02*
X15139229Y-11443508D01*
X15139229Y-11443508D02*
X15148753Y-11453031D01*
X15148753Y-11453031D02*
X15158277Y-11472079D01*
X15158277Y-11472079D02*
X15167801Y-11510174D01*
X15167801Y-11510174D02*
X15167801Y-11557793D01*
X15167801Y-11557793D02*
X15158277Y-11595888D01*
X15158277Y-11595888D02*
X15148753Y-11614936D01*
X15148753Y-11614936D02*
X15139229Y-11624460D01*
X15139229Y-11624460D02*
X15120182Y-11633984D01*
X15120182Y-11633984D02*
X15101134Y-11633984D01*
X15101134Y-11633984D02*
X15082086Y-11624460D01*
X15082086Y-11624460D02*
X15072563Y-11614936D01*
X15072563Y-11614936D02*
X15063039Y-11595888D01*
X15063039Y-11595888D02*
X15053515Y-11557793D01*
X15053515Y-11557793D02*
X15053515Y-11510174D01*
X15053515Y-11510174D02*
X15063039Y-11472079D01*
X15063039Y-11472079D02*
X15072563Y-11453031D01*
X15072563Y-11453031D02*
X15082086Y-11443508D01*
X15082086Y-11443508D02*
X15101134Y-11433984D01*
X15253515Y-11614936D02*
X15263039Y-11624460D01*
X15263039Y-11624460D02*
X15253515Y-11633984D01*
X15253515Y-11633984D02*
X15243991Y-11624460D01*
X15243991Y-11624460D02*
X15253515Y-11614936D01*
X15253515Y-11614936D02*
X15253515Y-11633984D01*
X15386848Y-11433984D02*
X15405896Y-11433984D01*
X15405896Y-11433984D02*
X15424944Y-11443508D01*
X15424944Y-11443508D02*
X15434467Y-11453031D01*
X15434467Y-11453031D02*
X15443991Y-11472079D01*
X15443991Y-11472079D02*
X15453515Y-11510174D01*
X15453515Y-11510174D02*
X15453515Y-11557793D01*
X15453515Y-11557793D02*
X15443991Y-11595888D01*
X15443991Y-11595888D02*
X15434467Y-11614936D01*
X15434467Y-11614936D02*
X15424944Y-11624460D01*
X15424944Y-11624460D02*
X15405896Y-11633984D01*
X15405896Y-11633984D02*
X15386848Y-11633984D01*
X15386848Y-11633984D02*
X15367801Y-11624460D01*
X15367801Y-11624460D02*
X15358277Y-11614936D01*
X15358277Y-11614936D02*
X15348753Y-11595888D01*
X15348753Y-11595888D02*
X15339229Y-11557793D01*
X15339229Y-11557793D02*
X15339229Y-11510174D01*
X15339229Y-11510174D02*
X15348753Y-11472079D01*
X15348753Y-11472079D02*
X15358277Y-11453031D01*
X15358277Y-11453031D02*
X15367801Y-11443508D01*
X15367801Y-11443508D02*
X15386848Y-11433984D01*
X15520182Y-11433984D02*
X15643991Y-11433984D01*
X15643991Y-11433984D02*
X15577325Y-11510174D01*
X15577325Y-11510174D02*
X15605896Y-11510174D01*
X15605896Y-11510174D02*
X15624944Y-11519698D01*
X15624944Y-11519698D02*
X15634467Y-11529222D01*
X15634467Y-11529222D02*
X15643991Y-11548269D01*
X15643991Y-11548269D02*
X15643991Y-11595888D01*
X15643991Y-11595888D02*
X15634467Y-11614936D01*
X15634467Y-11614936D02*
X15624944Y-11624460D01*
X15624944Y-11624460D02*
X15605896Y-11633984D01*
X15605896Y-11633984D02*
X15548753Y-11633984D01*
X15548753Y-11633984D02*
X15529706Y-11624460D01*
X15529706Y-11624460D02*
X15520182Y-11614936D01*
X15739229Y-11633984D02*
X15777325Y-11633984D01*
X15777325Y-11633984D02*
X15796372Y-11624460D01*
X15796372Y-11624460D02*
X15805896Y-11614936D01*
X15805896Y-11614936D02*
X15824944Y-11586365D01*
X15824944Y-11586365D02*
X15834467Y-11548269D01*
X15834467Y-11548269D02*
X15834467Y-11472079D01*
X15834467Y-11472079D02*
X15824944Y-11453031D01*
X15824944Y-11453031D02*
X15815420Y-11443508D01*
X15815420Y-11443508D02*
X15796372Y-11433984D01*
X15796372Y-11433984D02*
X15758277Y-11433984D01*
X15758277Y-11433984D02*
X15739229Y-11443508D01*
X15739229Y-11443508D02*
X15729706Y-11453031D01*
X15729706Y-11453031D02*
X15720182Y-11472079D01*
X15720182Y-11472079D02*
X15720182Y-11519698D01*
X15720182Y-11519698D02*
X15729706Y-11538746D01*
X15729706Y-11538746D02*
X15739229Y-11548269D01*
X15739229Y-11548269D02*
X15758277Y-11557793D01*
X15758277Y-11557793D02*
X15796372Y-11557793D01*
X15796372Y-11557793D02*
X15815420Y-11548269D01*
X15815420Y-11548269D02*
X15824944Y-11538746D01*
X15824944Y-11538746D02*
X15834467Y-11519698D01*
X16005896Y-11500650D02*
X16005896Y-11633984D01*
X15958277Y-11424460D02*
X15910658Y-11567317D01*
X15910658Y-11567317D02*
X16034467Y-11567317D01*
X16101134Y-11433984D02*
X16101134Y-11472079D01*
X16177325Y-11433984D02*
X16177325Y-11472079D01*
X16472563Y-11710174D02*
X16463039Y-11700650D01*
X16463039Y-11700650D02*
X16443991Y-11672079D01*
X16443991Y-11672079D02*
X16434468Y-11653031D01*
X16434468Y-11653031D02*
X16424944Y-11624460D01*
X16424944Y-11624460D02*
X16415420Y-11576841D01*
X16415420Y-11576841D02*
X16415420Y-11538746D01*
X16415420Y-11538746D02*
X16424944Y-11491127D01*
X16424944Y-11491127D02*
X16434468Y-11462555D01*
X16434468Y-11462555D02*
X16443991Y-11443508D01*
X16443991Y-11443508D02*
X16463039Y-11414936D01*
X16463039Y-11414936D02*
X16472563Y-11405412D01*
X16558277Y-11633984D02*
X16596372Y-11633984D01*
X16596372Y-11633984D02*
X16615420Y-11624460D01*
X16615420Y-11624460D02*
X16624944Y-11614936D01*
X16624944Y-11614936D02*
X16643991Y-11586365D01*
X16643991Y-11586365D02*
X16653515Y-11548269D01*
X16653515Y-11548269D02*
X16653515Y-11472079D01*
X16653515Y-11472079D02*
X16643991Y-11453031D01*
X16643991Y-11453031D02*
X16634468Y-11443508D01*
X16634468Y-11443508D02*
X16615420Y-11433984D01*
X16615420Y-11433984D02*
X16577325Y-11433984D01*
X16577325Y-11433984D02*
X16558277Y-11443508D01*
X16558277Y-11443508D02*
X16548753Y-11453031D01*
X16548753Y-11453031D02*
X16539229Y-11472079D01*
X16539229Y-11472079D02*
X16539229Y-11519698D01*
X16539229Y-11519698D02*
X16548753Y-11538746D01*
X16548753Y-11538746D02*
X16558277Y-11548269D01*
X16558277Y-11548269D02*
X16577325Y-11557793D01*
X16577325Y-11557793D02*
X16615420Y-11557793D01*
X16615420Y-11557793D02*
X16634468Y-11548269D01*
X16634468Y-11548269D02*
X16643991Y-11538746D01*
X16643991Y-11538746D02*
X16653515Y-11519698D01*
X16891611Y-11633984D02*
X16891611Y-11433984D01*
X16977325Y-11633984D02*
X16977325Y-11529222D01*
X16977325Y-11529222D02*
X16967801Y-11510174D01*
X16967801Y-11510174D02*
X16948753Y-11500650D01*
X16948753Y-11500650D02*
X16920182Y-11500650D01*
X16920182Y-11500650D02*
X16901134Y-11510174D01*
X16901134Y-11510174D02*
X16891611Y-11519698D01*
X17101134Y-11633984D02*
X17082087Y-11624460D01*
X17082087Y-11624460D02*
X17072563Y-11614936D01*
X17072563Y-11614936D02*
X17063039Y-11595888D01*
X17063039Y-11595888D02*
X17063039Y-11538746D01*
X17063039Y-11538746D02*
X17072563Y-11519698D01*
X17072563Y-11519698D02*
X17082087Y-11510174D01*
X17082087Y-11510174D02*
X17101134Y-11500650D01*
X17101134Y-11500650D02*
X17129706Y-11500650D01*
X17129706Y-11500650D02*
X17148753Y-11510174D01*
X17148753Y-11510174D02*
X17158277Y-11519698D01*
X17158277Y-11519698D02*
X17167801Y-11538746D01*
X17167801Y-11538746D02*
X17167801Y-11595888D01*
X17167801Y-11595888D02*
X17158277Y-11614936D01*
X17158277Y-11614936D02*
X17148753Y-11624460D01*
X17148753Y-11624460D02*
X17129706Y-11633984D01*
X17129706Y-11633984D02*
X17101134Y-11633984D01*
X17282087Y-11633984D02*
X17263039Y-11624460D01*
X17263039Y-11624460D02*
X17253515Y-11605412D01*
X17253515Y-11605412D02*
X17253515Y-11433984D01*
X17434468Y-11624460D02*
X17415420Y-11633984D01*
X17415420Y-11633984D02*
X17377325Y-11633984D01*
X17377325Y-11633984D02*
X17358277Y-11624460D01*
X17358277Y-11624460D02*
X17348753Y-11605412D01*
X17348753Y-11605412D02*
X17348753Y-11529222D01*
X17348753Y-11529222D02*
X17358277Y-11510174D01*
X17358277Y-11510174D02*
X17377325Y-11500650D01*
X17377325Y-11500650D02*
X17415420Y-11500650D01*
X17415420Y-11500650D02*
X17434468Y-11510174D01*
X17434468Y-11510174D02*
X17443992Y-11529222D01*
X17443992Y-11529222D02*
X17443992Y-11548269D01*
X17443992Y-11548269D02*
X17348753Y-11567317D01*
X17520182Y-11624460D02*
X17539230Y-11633984D01*
X17539230Y-11633984D02*
X17577325Y-11633984D01*
X17577325Y-11633984D02*
X17596373Y-11624460D01*
X17596373Y-11624460D02*
X17605896Y-11605412D01*
X17605896Y-11605412D02*
X17605896Y-11595888D01*
X17605896Y-11595888D02*
X17596373Y-11576841D01*
X17596373Y-11576841D02*
X17577325Y-11567317D01*
X17577325Y-11567317D02*
X17548753Y-11567317D01*
X17548753Y-11567317D02*
X17529706Y-11557793D01*
X17529706Y-11557793D02*
X17520182Y-11538746D01*
X17520182Y-11538746D02*
X17520182Y-11529222D01*
X17520182Y-11529222D02*
X17529706Y-11510174D01*
X17529706Y-11510174D02*
X17548753Y-11500650D01*
X17548753Y-11500650D02*
X17577325Y-11500650D01*
X17577325Y-11500650D02*
X17596373Y-11510174D01*
X17672563Y-11710174D02*
X17682087Y-11700650D01*
X17682087Y-11700650D02*
X17701134Y-11672079D01*
X17701134Y-11672079D02*
X17710658Y-11653031D01*
X17710658Y-11653031D02*
X17720182Y-11624460D01*
X17720182Y-11624460D02*
X17729706Y-11576841D01*
X17729706Y-11576841D02*
X17729706Y-11538746D01*
X17729706Y-11538746D02*
X17720182Y-11491127D01*
X17720182Y-11491127D02*
X17710658Y-11462555D01*
X17710658Y-11462555D02*
X17701134Y-11443508D01*
X17701134Y-11443508D02*
X17682087Y-11414936D01*
X17682087Y-11414936D02*
X17672563Y-11405412D01*
D13*
X12897500Y-11806500D02*
G75*
G02*
X12775500Y-11806500I-61000J0D01*
G01*
X12775500Y-11806500D02*
G75*
G02*
X12897500Y-11806500I61000J0D01*
G01*
D11*
X13263039Y-11897984D02*
X13148753Y-11897984D01*
X13205896Y-11897984D02*
X13205896Y-11697984D01*
X13205896Y-11697984D02*
X13186848Y-11726555D01*
X13186848Y-11726555D02*
X13167801Y-11745603D01*
X13167801Y-11745603D02*
X13148753Y-11755127D01*
X13348753Y-11878936D02*
X13358277Y-11888460D01*
X13358277Y-11888460D02*
X13348753Y-11897984D01*
X13348753Y-11897984D02*
X13339229Y-11888460D01*
X13339229Y-11888460D02*
X13348753Y-11878936D01*
X13348753Y-11878936D02*
X13348753Y-11897984D01*
X13434467Y-11717031D02*
X13443991Y-11707508D01*
X13443991Y-11707508D02*
X13463039Y-11697984D01*
X13463039Y-11697984D02*
X13510658Y-11697984D01*
X13510658Y-11697984D02*
X13529705Y-11707508D01*
X13529705Y-11707508D02*
X13539229Y-11717031D01*
X13539229Y-11717031D02*
X13548753Y-11736079D01*
X13548753Y-11736079D02*
X13548753Y-11755127D01*
X13548753Y-11755127D02*
X13539229Y-11783698D01*
X13539229Y-11783698D02*
X13424943Y-11897984D01*
X13424943Y-11897984D02*
X13548753Y-11897984D01*
X13624943Y-11717031D02*
X13634467Y-11707508D01*
X13634467Y-11707508D02*
X13653515Y-11697984D01*
X13653515Y-11697984D02*
X13701134Y-11697984D01*
X13701134Y-11697984D02*
X13720182Y-11707508D01*
X13720182Y-11707508D02*
X13729705Y-11717031D01*
X13729705Y-11717031D02*
X13739229Y-11736079D01*
X13739229Y-11736079D02*
X13739229Y-11755127D01*
X13739229Y-11755127D02*
X13729705Y-11783698D01*
X13729705Y-11783698D02*
X13615420Y-11897984D01*
X13615420Y-11897984D02*
X13739229Y-11897984D01*
X13863039Y-11697984D02*
X13882086Y-11697984D01*
X13882086Y-11697984D02*
X13901134Y-11707508D01*
X13901134Y-11707508D02*
X13910658Y-11717031D01*
X13910658Y-11717031D02*
X13920182Y-11736079D01*
X13920182Y-11736079D02*
X13929705Y-11774174D01*
X13929705Y-11774174D02*
X13929705Y-11821793D01*
X13929705Y-11821793D02*
X13920182Y-11859888D01*
X13920182Y-11859888D02*
X13910658Y-11878936D01*
X13910658Y-11878936D02*
X13901134Y-11888460D01*
X13901134Y-11888460D02*
X13882086Y-11897984D01*
X13882086Y-11897984D02*
X13863039Y-11897984D01*
X13863039Y-11897984D02*
X13843991Y-11888460D01*
X13843991Y-11888460D02*
X13834467Y-11878936D01*
X13834467Y-11878936D02*
X13824943Y-11859888D01*
X13824943Y-11859888D02*
X13815420Y-11821793D01*
X13815420Y-11821793D02*
X13815420Y-11774174D01*
X13815420Y-11774174D02*
X13824943Y-11736079D01*
X13824943Y-11736079D02*
X13834467Y-11717031D01*
X13834467Y-11717031D02*
X13843991Y-11707508D01*
X13843991Y-11707508D02*
X13863039Y-11697984D01*
X14015420Y-11897984D02*
X14015420Y-11764650D01*
X14015420Y-11783698D02*
X14024943Y-11774174D01*
X14024943Y-11774174D02*
X14043991Y-11764650D01*
X14043991Y-11764650D02*
X14072563Y-11764650D01*
X14072563Y-11764650D02*
X14091610Y-11774174D01*
X14091610Y-11774174D02*
X14101134Y-11793222D01*
X14101134Y-11793222D02*
X14101134Y-11897984D01*
X14101134Y-11793222D02*
X14110658Y-11774174D01*
X14110658Y-11774174D02*
X14129705Y-11764650D01*
X14129705Y-11764650D02*
X14158277Y-11764650D01*
X14158277Y-11764650D02*
X14177324Y-11774174D01*
X14177324Y-11774174D02*
X14186848Y-11793222D01*
X14186848Y-11793222D02*
X14186848Y-11897984D01*
X14282086Y-11897984D02*
X14282086Y-11764650D01*
X14282086Y-11783698D02*
X14291610Y-11774174D01*
X14291610Y-11774174D02*
X14310658Y-11764650D01*
X14310658Y-11764650D02*
X14339229Y-11764650D01*
X14339229Y-11764650D02*
X14358277Y-11774174D01*
X14358277Y-11774174D02*
X14367801Y-11793222D01*
X14367801Y-11793222D02*
X14367801Y-11897984D01*
X14367801Y-11793222D02*
X14377324Y-11774174D01*
X14377324Y-11774174D02*
X14396372Y-11764650D01*
X14396372Y-11764650D02*
X14424943Y-11764650D01*
X14424943Y-11764650D02*
X14443991Y-11774174D01*
X14443991Y-11774174D02*
X14453515Y-11793222D01*
X14453515Y-11793222D02*
X14453515Y-11897984D01*
X14843991Y-11688460D02*
X14672563Y-11945603D01*
X15101134Y-11697984D02*
X15120182Y-11697984D01*
X15120182Y-11697984D02*
X15139229Y-11707508D01*
X15139229Y-11707508D02*
X15148753Y-11717031D01*
X15148753Y-11717031D02*
X15158277Y-11736079D01*
X15158277Y-11736079D02*
X15167801Y-11774174D01*
X15167801Y-11774174D02*
X15167801Y-11821793D01*
X15167801Y-11821793D02*
X15158277Y-11859888D01*
X15158277Y-11859888D02*
X15148753Y-11878936D01*
X15148753Y-11878936D02*
X15139229Y-11888460D01*
X15139229Y-11888460D02*
X15120182Y-11897984D01*
X15120182Y-11897984D02*
X15101134Y-11897984D01*
X15101134Y-11897984D02*
X15082086Y-11888460D01*
X15082086Y-11888460D02*
X15072563Y-11878936D01*
X15072563Y-11878936D02*
X15063039Y-11859888D01*
X15063039Y-11859888D02*
X15053515Y-11821793D01*
X15053515Y-11821793D02*
X15053515Y-11774174D01*
X15053515Y-11774174D02*
X15063039Y-11736079D01*
X15063039Y-11736079D02*
X15072563Y-11717031D01*
X15072563Y-11717031D02*
X15082086Y-11707508D01*
X15082086Y-11707508D02*
X15101134Y-11697984D01*
X15253515Y-11878936D02*
X15263039Y-11888460D01*
X15263039Y-11888460D02*
X15253515Y-11897984D01*
X15253515Y-11897984D02*
X15243991Y-11888460D01*
X15243991Y-11888460D02*
X15253515Y-11878936D01*
X15253515Y-11878936D02*
X15253515Y-11897984D01*
X15386848Y-11697984D02*
X15405896Y-11697984D01*
X15405896Y-11697984D02*
X15424944Y-11707508D01*
X15424944Y-11707508D02*
X15434467Y-11717031D01*
X15434467Y-11717031D02*
X15443991Y-11736079D01*
X15443991Y-11736079D02*
X15453515Y-11774174D01*
X15453515Y-11774174D02*
X15453515Y-11821793D01*
X15453515Y-11821793D02*
X15443991Y-11859888D01*
X15443991Y-11859888D02*
X15434467Y-11878936D01*
X15434467Y-11878936D02*
X15424944Y-11888460D01*
X15424944Y-11888460D02*
X15405896Y-11897984D01*
X15405896Y-11897984D02*
X15386848Y-11897984D01*
X15386848Y-11897984D02*
X15367801Y-11888460D01*
X15367801Y-11888460D02*
X15358277Y-11878936D01*
X15358277Y-11878936D02*
X15348753Y-11859888D01*
X15348753Y-11859888D02*
X15339229Y-11821793D01*
X15339229Y-11821793D02*
X15339229Y-11774174D01*
X15339229Y-11774174D02*
X15348753Y-11736079D01*
X15348753Y-11736079D02*
X15358277Y-11717031D01*
X15358277Y-11717031D02*
X15367801Y-11707508D01*
X15367801Y-11707508D02*
X15386848Y-11697984D01*
X15624944Y-11764650D02*
X15624944Y-11897984D01*
X15577325Y-11688460D02*
X15529706Y-11831317D01*
X15529706Y-11831317D02*
X15653515Y-11831317D01*
X15758277Y-11783698D02*
X15739229Y-11774174D01*
X15739229Y-11774174D02*
X15729706Y-11764650D01*
X15729706Y-11764650D02*
X15720182Y-11745603D01*
X15720182Y-11745603D02*
X15720182Y-11736079D01*
X15720182Y-11736079D02*
X15729706Y-11717031D01*
X15729706Y-11717031D02*
X15739229Y-11707508D01*
X15739229Y-11707508D02*
X15758277Y-11697984D01*
X15758277Y-11697984D02*
X15796372Y-11697984D01*
X15796372Y-11697984D02*
X15815420Y-11707508D01*
X15815420Y-11707508D02*
X15824944Y-11717031D01*
X15824944Y-11717031D02*
X15834467Y-11736079D01*
X15834467Y-11736079D02*
X15834467Y-11745603D01*
X15834467Y-11745603D02*
X15824944Y-11764650D01*
X15824944Y-11764650D02*
X15815420Y-11774174D01*
X15815420Y-11774174D02*
X15796372Y-11783698D01*
X15796372Y-11783698D02*
X15758277Y-11783698D01*
X15758277Y-11783698D02*
X15739229Y-11793222D01*
X15739229Y-11793222D02*
X15729706Y-11802746D01*
X15729706Y-11802746D02*
X15720182Y-11821793D01*
X15720182Y-11821793D02*
X15720182Y-11859888D01*
X15720182Y-11859888D02*
X15729706Y-11878936D01*
X15729706Y-11878936D02*
X15739229Y-11888460D01*
X15739229Y-11888460D02*
X15758277Y-11897984D01*
X15758277Y-11897984D02*
X15796372Y-11897984D01*
X15796372Y-11897984D02*
X15815420Y-11888460D01*
X15815420Y-11888460D02*
X15824944Y-11878936D01*
X15824944Y-11878936D02*
X15834467Y-11859888D01*
X15834467Y-11859888D02*
X15834467Y-11821793D01*
X15834467Y-11821793D02*
X15824944Y-11802746D01*
X15824944Y-11802746D02*
X15815420Y-11793222D01*
X15815420Y-11793222D02*
X15796372Y-11783698D01*
X15958277Y-11697984D02*
X15977325Y-11697984D01*
X15977325Y-11697984D02*
X15996372Y-11707508D01*
X15996372Y-11707508D02*
X16005896Y-11717031D01*
X16005896Y-11717031D02*
X16015420Y-11736079D01*
X16015420Y-11736079D02*
X16024944Y-11774174D01*
X16024944Y-11774174D02*
X16024944Y-11821793D01*
X16024944Y-11821793D02*
X16015420Y-11859888D01*
X16015420Y-11859888D02*
X16005896Y-11878936D01*
X16005896Y-11878936D02*
X15996372Y-11888460D01*
X15996372Y-11888460D02*
X15977325Y-11897984D01*
X15977325Y-11897984D02*
X15958277Y-11897984D01*
X15958277Y-11897984D02*
X15939229Y-11888460D01*
X15939229Y-11888460D02*
X15929706Y-11878936D01*
X15929706Y-11878936D02*
X15920182Y-11859888D01*
X15920182Y-11859888D02*
X15910658Y-11821793D01*
X15910658Y-11821793D02*
X15910658Y-11774174D01*
X15910658Y-11774174D02*
X15920182Y-11736079D01*
X15920182Y-11736079D02*
X15929706Y-11717031D01*
X15929706Y-11717031D02*
X15939229Y-11707508D01*
X15939229Y-11707508D02*
X15958277Y-11697984D01*
X16101134Y-11697984D02*
X16101134Y-11736079D01*
X16177325Y-11697984D02*
X16177325Y-11736079D01*
X16472563Y-11974174D02*
X16463039Y-11964650D01*
X16463039Y-11964650D02*
X16443991Y-11936079D01*
X16443991Y-11936079D02*
X16434468Y-11917031D01*
X16434468Y-11917031D02*
X16424944Y-11888460D01*
X16424944Y-11888460D02*
X16415420Y-11840841D01*
X16415420Y-11840841D02*
X16415420Y-11802746D01*
X16415420Y-11802746D02*
X16424944Y-11755127D01*
X16424944Y-11755127D02*
X16434468Y-11726555D01*
X16434468Y-11726555D02*
X16443991Y-11707508D01*
X16443991Y-11707508D02*
X16463039Y-11678936D01*
X16463039Y-11678936D02*
X16472563Y-11669412D01*
X16529706Y-11697984D02*
X16653515Y-11697984D01*
X16653515Y-11697984D02*
X16586848Y-11774174D01*
X16586848Y-11774174D02*
X16615420Y-11774174D01*
X16615420Y-11774174D02*
X16634468Y-11783698D01*
X16634468Y-11783698D02*
X16643991Y-11793222D01*
X16643991Y-11793222D02*
X16653515Y-11812269D01*
X16653515Y-11812269D02*
X16653515Y-11859888D01*
X16653515Y-11859888D02*
X16643991Y-11878936D01*
X16643991Y-11878936D02*
X16634468Y-11888460D01*
X16634468Y-11888460D02*
X16615420Y-11897984D01*
X16615420Y-11897984D02*
X16558277Y-11897984D01*
X16558277Y-11897984D02*
X16539229Y-11888460D01*
X16539229Y-11888460D02*
X16529706Y-11878936D01*
X16891611Y-11897984D02*
X16891611Y-11697984D01*
X16977325Y-11897984D02*
X16977325Y-11793222D01*
X16977325Y-11793222D02*
X16967801Y-11774174D01*
X16967801Y-11774174D02*
X16948753Y-11764650D01*
X16948753Y-11764650D02*
X16920182Y-11764650D01*
X16920182Y-11764650D02*
X16901134Y-11774174D01*
X16901134Y-11774174D02*
X16891611Y-11783698D01*
X17101134Y-11897984D02*
X17082087Y-11888460D01*
X17082087Y-11888460D02*
X17072563Y-11878936D01*
X17072563Y-11878936D02*
X17063039Y-11859888D01*
X17063039Y-11859888D02*
X17063039Y-11802746D01*
X17063039Y-11802746D02*
X17072563Y-11783698D01*
X17072563Y-11783698D02*
X17082087Y-11774174D01*
X17082087Y-11774174D02*
X17101134Y-11764650D01*
X17101134Y-11764650D02*
X17129706Y-11764650D01*
X17129706Y-11764650D02*
X17148753Y-11774174D01*
X17148753Y-11774174D02*
X17158277Y-11783698D01*
X17158277Y-11783698D02*
X17167801Y-11802746D01*
X17167801Y-11802746D02*
X17167801Y-11859888D01*
X17167801Y-11859888D02*
X17158277Y-11878936D01*
X17158277Y-11878936D02*
X17148753Y-11888460D01*
X17148753Y-11888460D02*
X17129706Y-11897984D01*
X17129706Y-11897984D02*
X17101134Y-11897984D01*
X17282087Y-11897984D02*
X17263039Y-11888460D01*
X17263039Y-11888460D02*
X17253515Y-11869412D01*
X17253515Y-11869412D02*
X17253515Y-11697984D01*
X17434468Y-11888460D02*
X17415420Y-11897984D01*
X17415420Y-11897984D02*
X17377325Y-11897984D01*
X17377325Y-11897984D02*
X17358277Y-11888460D01*
X17358277Y-11888460D02*
X17348753Y-11869412D01*
X17348753Y-11869412D02*
X17348753Y-11793222D01*
X17348753Y-11793222D02*
X17358277Y-11774174D01*
X17358277Y-11774174D02*
X17377325Y-11764650D01*
X17377325Y-11764650D02*
X17415420Y-11764650D01*
X17415420Y-11764650D02*
X17434468Y-11774174D01*
X17434468Y-11774174D02*
X17443992Y-11793222D01*
X17443992Y-11793222D02*
X17443992Y-11812269D01*
X17443992Y-11812269D02*
X17348753Y-11831317D01*
X17520182Y-11888460D02*
X17539230Y-11897984D01*
X17539230Y-11897984D02*
X17577325Y-11897984D01*
X17577325Y-11897984D02*
X17596373Y-11888460D01*
X17596373Y-11888460D02*
X17605896Y-11869412D01*
X17605896Y-11869412D02*
X17605896Y-11859888D01*
X17605896Y-11859888D02*
X17596373Y-11840841D01*
X17596373Y-11840841D02*
X17577325Y-11831317D01*
X17577325Y-11831317D02*
X17548753Y-11831317D01*
X17548753Y-11831317D02*
X17529706Y-11821793D01*
X17529706Y-11821793D02*
X17520182Y-11802746D01*
X17520182Y-11802746D02*
X17520182Y-11793222D01*
X17520182Y-11793222D02*
X17529706Y-11774174D01*
X17529706Y-11774174D02*
X17548753Y-11764650D01*
X17548753Y-11764650D02*
X17577325Y-11764650D01*
X17577325Y-11764650D02*
X17596373Y-11774174D01*
X17672563Y-11974174D02*
X17682087Y-11964650D01*
X17682087Y-11964650D02*
X17701134Y-11936079D01*
X17701134Y-11936079D02*
X17710658Y-11917031D01*
X17710658Y-11917031D02*
X17720182Y-11888460D01*
X17720182Y-11888460D02*
X17729706Y-11840841D01*
X17729706Y-11840841D02*
X17729706Y-11802746D01*
X17729706Y-11802746D02*
X17720182Y-11755127D01*
X17720182Y-11755127D02*
X17710658Y-11726555D01*
X17710658Y-11726555D02*
X17701134Y-11707508D01*
X17701134Y-11707508D02*
X17682087Y-11678936D01*
X17682087Y-11678936D02*
X17672563Y-11669412D01*
D14*
X12826500Y-11999500D02*
X12826500Y-12141500D01*
X12755500Y-12070500D02*
X12897500Y-12070500D01*
D11*
X13263039Y-12161984D02*
X13148753Y-12161984D01*
X13205896Y-12161984D02*
X13205896Y-11961984D01*
X13205896Y-11961984D02*
X13186848Y-11990555D01*
X13186848Y-11990555D02*
X13167801Y-12009603D01*
X13167801Y-12009603D02*
X13148753Y-12019127D01*
X13348753Y-12142936D02*
X13358277Y-12152460D01*
X13358277Y-12152460D02*
X13348753Y-12161984D01*
X13348753Y-12161984D02*
X13339229Y-12152460D01*
X13339229Y-12152460D02*
X13348753Y-12142936D01*
X13348753Y-12142936D02*
X13348753Y-12161984D01*
X13529705Y-12028650D02*
X13529705Y-12161984D01*
X13482086Y-11952460D02*
X13434467Y-12095317D01*
X13434467Y-12095317D02*
X13558277Y-12095317D01*
X13624943Y-11981031D02*
X13634467Y-11971508D01*
X13634467Y-11971508D02*
X13653515Y-11961984D01*
X13653515Y-11961984D02*
X13701134Y-11961984D01*
X13701134Y-11961984D02*
X13720182Y-11971508D01*
X13720182Y-11971508D02*
X13729705Y-11981031D01*
X13729705Y-11981031D02*
X13739229Y-12000079D01*
X13739229Y-12000079D02*
X13739229Y-12019127D01*
X13739229Y-12019127D02*
X13729705Y-12047698D01*
X13729705Y-12047698D02*
X13615420Y-12161984D01*
X13615420Y-12161984D02*
X13739229Y-12161984D01*
X13863039Y-11961984D02*
X13882086Y-11961984D01*
X13882086Y-11961984D02*
X13901134Y-11971508D01*
X13901134Y-11971508D02*
X13910658Y-11981031D01*
X13910658Y-11981031D02*
X13920182Y-12000079D01*
X13920182Y-12000079D02*
X13929705Y-12038174D01*
X13929705Y-12038174D02*
X13929705Y-12085793D01*
X13929705Y-12085793D02*
X13920182Y-12123888D01*
X13920182Y-12123888D02*
X13910658Y-12142936D01*
X13910658Y-12142936D02*
X13901134Y-12152460D01*
X13901134Y-12152460D02*
X13882086Y-12161984D01*
X13882086Y-12161984D02*
X13863039Y-12161984D01*
X13863039Y-12161984D02*
X13843991Y-12152460D01*
X13843991Y-12152460D02*
X13834467Y-12142936D01*
X13834467Y-12142936D02*
X13824943Y-12123888D01*
X13824943Y-12123888D02*
X13815420Y-12085793D01*
X13815420Y-12085793D02*
X13815420Y-12038174D01*
X13815420Y-12038174D02*
X13824943Y-12000079D01*
X13824943Y-12000079D02*
X13834467Y-11981031D01*
X13834467Y-11981031D02*
X13843991Y-11971508D01*
X13843991Y-11971508D02*
X13863039Y-11961984D01*
X14015420Y-12161984D02*
X14015420Y-12028650D01*
X14015420Y-12047698D02*
X14024943Y-12038174D01*
X14024943Y-12038174D02*
X14043991Y-12028650D01*
X14043991Y-12028650D02*
X14072563Y-12028650D01*
X14072563Y-12028650D02*
X14091610Y-12038174D01*
X14091610Y-12038174D02*
X14101134Y-12057222D01*
X14101134Y-12057222D02*
X14101134Y-12161984D01*
X14101134Y-12057222D02*
X14110658Y-12038174D01*
X14110658Y-12038174D02*
X14129705Y-12028650D01*
X14129705Y-12028650D02*
X14158277Y-12028650D01*
X14158277Y-12028650D02*
X14177324Y-12038174D01*
X14177324Y-12038174D02*
X14186848Y-12057222D01*
X14186848Y-12057222D02*
X14186848Y-12161984D01*
X14282086Y-12161984D02*
X14282086Y-12028650D01*
X14282086Y-12047698D02*
X14291610Y-12038174D01*
X14291610Y-12038174D02*
X14310658Y-12028650D01*
X14310658Y-12028650D02*
X14339229Y-12028650D01*
X14339229Y-12028650D02*
X14358277Y-12038174D01*
X14358277Y-12038174D02*
X14367801Y-12057222D01*
X14367801Y-12057222D02*
X14367801Y-12161984D01*
X14367801Y-12057222D02*
X14377324Y-12038174D01*
X14377324Y-12038174D02*
X14396372Y-12028650D01*
X14396372Y-12028650D02*
X14424943Y-12028650D01*
X14424943Y-12028650D02*
X14443991Y-12038174D01*
X14443991Y-12038174D02*
X14453515Y-12057222D01*
X14453515Y-12057222D02*
X14453515Y-12161984D01*
X14843991Y-11952460D02*
X14672563Y-12209603D01*
X15101134Y-11961984D02*
X15120182Y-11961984D01*
X15120182Y-11961984D02*
X15139229Y-11971508D01*
X15139229Y-11971508D02*
X15148753Y-11981031D01*
X15148753Y-11981031D02*
X15158277Y-12000079D01*
X15158277Y-12000079D02*
X15167801Y-12038174D01*
X15167801Y-12038174D02*
X15167801Y-12085793D01*
X15167801Y-12085793D02*
X15158277Y-12123888D01*
X15158277Y-12123888D02*
X15148753Y-12142936D01*
X15148753Y-12142936D02*
X15139229Y-12152460D01*
X15139229Y-12152460D02*
X15120182Y-12161984D01*
X15120182Y-12161984D02*
X15101134Y-12161984D01*
X15101134Y-12161984D02*
X15082086Y-12152460D01*
X15082086Y-12152460D02*
X15072563Y-12142936D01*
X15072563Y-12142936D02*
X15063039Y-12123888D01*
X15063039Y-12123888D02*
X15053515Y-12085793D01*
X15053515Y-12085793D02*
X15053515Y-12038174D01*
X15053515Y-12038174D02*
X15063039Y-12000079D01*
X15063039Y-12000079D02*
X15072563Y-11981031D01*
X15072563Y-11981031D02*
X15082086Y-11971508D01*
X15082086Y-11971508D02*
X15101134Y-11961984D01*
X15253515Y-12142936D02*
X15263039Y-12152460D01*
X15263039Y-12152460D02*
X15253515Y-12161984D01*
X15253515Y-12161984D02*
X15243991Y-12152460D01*
X15243991Y-12152460D02*
X15253515Y-12142936D01*
X15253515Y-12142936D02*
X15253515Y-12161984D01*
X15386848Y-11961984D02*
X15405896Y-11961984D01*
X15405896Y-11961984D02*
X15424944Y-11971508D01*
X15424944Y-11971508D02*
X15434467Y-11981031D01*
X15434467Y-11981031D02*
X15443991Y-12000079D01*
X15443991Y-12000079D02*
X15453515Y-12038174D01*
X15453515Y-12038174D02*
X15453515Y-12085793D01*
X15453515Y-12085793D02*
X15443991Y-12123888D01*
X15443991Y-12123888D02*
X15434467Y-12142936D01*
X15434467Y-12142936D02*
X15424944Y-12152460D01*
X15424944Y-12152460D02*
X15405896Y-12161984D01*
X15405896Y-12161984D02*
X15386848Y-12161984D01*
X15386848Y-12161984D02*
X15367801Y-12152460D01*
X15367801Y-12152460D02*
X15358277Y-12142936D01*
X15358277Y-12142936D02*
X15348753Y-12123888D01*
X15348753Y-12123888D02*
X15339229Y-12085793D01*
X15339229Y-12085793D02*
X15339229Y-12038174D01*
X15339229Y-12038174D02*
X15348753Y-12000079D01*
X15348753Y-12000079D02*
X15358277Y-11981031D01*
X15358277Y-11981031D02*
X15367801Y-11971508D01*
X15367801Y-11971508D02*
X15386848Y-11961984D01*
X15634467Y-11961984D02*
X15539229Y-11961984D01*
X15539229Y-11961984D02*
X15529706Y-12057222D01*
X15529706Y-12057222D02*
X15539229Y-12047698D01*
X15539229Y-12047698D02*
X15558277Y-12038174D01*
X15558277Y-12038174D02*
X15605896Y-12038174D01*
X15605896Y-12038174D02*
X15624944Y-12047698D01*
X15624944Y-12047698D02*
X15634467Y-12057222D01*
X15634467Y-12057222D02*
X15643991Y-12076269D01*
X15643991Y-12076269D02*
X15643991Y-12123888D01*
X15643991Y-12123888D02*
X15634467Y-12142936D01*
X15634467Y-12142936D02*
X15624944Y-12152460D01*
X15624944Y-12152460D02*
X15605896Y-12161984D01*
X15605896Y-12161984D02*
X15558277Y-12161984D01*
X15558277Y-12161984D02*
X15539229Y-12152460D01*
X15539229Y-12152460D02*
X15529706Y-12142936D01*
X15824944Y-11961984D02*
X15729706Y-11961984D01*
X15729706Y-11961984D02*
X15720182Y-12057222D01*
X15720182Y-12057222D02*
X15729706Y-12047698D01*
X15729706Y-12047698D02*
X15748753Y-12038174D01*
X15748753Y-12038174D02*
X15796372Y-12038174D01*
X15796372Y-12038174D02*
X15815420Y-12047698D01*
X15815420Y-12047698D02*
X15824944Y-12057222D01*
X15824944Y-12057222D02*
X15834467Y-12076269D01*
X15834467Y-12076269D02*
X15834467Y-12123888D01*
X15834467Y-12123888D02*
X15824944Y-12142936D01*
X15824944Y-12142936D02*
X15815420Y-12152460D01*
X15815420Y-12152460D02*
X15796372Y-12161984D01*
X15796372Y-12161984D02*
X15748753Y-12161984D01*
X15748753Y-12161984D02*
X15729706Y-12152460D01*
X15729706Y-12152460D02*
X15720182Y-12142936D01*
X15929706Y-12161984D02*
X15967801Y-12161984D01*
X15967801Y-12161984D02*
X15986848Y-12152460D01*
X15986848Y-12152460D02*
X15996372Y-12142936D01*
X15996372Y-12142936D02*
X16015420Y-12114365D01*
X16015420Y-12114365D02*
X16024944Y-12076269D01*
X16024944Y-12076269D02*
X16024944Y-12000079D01*
X16024944Y-12000079D02*
X16015420Y-11981031D01*
X16015420Y-11981031D02*
X16005896Y-11971508D01*
X16005896Y-11971508D02*
X15986848Y-11961984D01*
X15986848Y-11961984D02*
X15948753Y-11961984D01*
X15948753Y-11961984D02*
X15929706Y-11971508D01*
X15929706Y-11971508D02*
X15920182Y-11981031D01*
X15920182Y-11981031D02*
X15910658Y-12000079D01*
X15910658Y-12000079D02*
X15910658Y-12047698D01*
X15910658Y-12047698D02*
X15920182Y-12066746D01*
X15920182Y-12066746D02*
X15929706Y-12076269D01*
X15929706Y-12076269D02*
X15948753Y-12085793D01*
X15948753Y-12085793D02*
X15986848Y-12085793D01*
X15986848Y-12085793D02*
X16005896Y-12076269D01*
X16005896Y-12076269D02*
X16015420Y-12066746D01*
X16015420Y-12066746D02*
X16024944Y-12047698D01*
X16101134Y-11961984D02*
X16101134Y-12000079D01*
X16177325Y-11961984D02*
X16177325Y-12000079D01*
X16472563Y-12238174D02*
X16463039Y-12228650D01*
X16463039Y-12228650D02*
X16443991Y-12200079D01*
X16443991Y-12200079D02*
X16434468Y-12181031D01*
X16434468Y-12181031D02*
X16424944Y-12152460D01*
X16424944Y-12152460D02*
X16415420Y-12104841D01*
X16415420Y-12104841D02*
X16415420Y-12066746D01*
X16415420Y-12066746D02*
X16424944Y-12019127D01*
X16424944Y-12019127D02*
X16434468Y-11990555D01*
X16434468Y-11990555D02*
X16443991Y-11971508D01*
X16443991Y-11971508D02*
X16463039Y-11942936D01*
X16463039Y-11942936D02*
X16472563Y-11933412D01*
X16529706Y-11961984D02*
X16653515Y-11961984D01*
X16653515Y-11961984D02*
X16586848Y-12038174D01*
X16586848Y-12038174D02*
X16615420Y-12038174D01*
X16615420Y-12038174D02*
X16634468Y-12047698D01*
X16634468Y-12047698D02*
X16643991Y-12057222D01*
X16643991Y-12057222D02*
X16653515Y-12076269D01*
X16653515Y-12076269D02*
X16653515Y-12123888D01*
X16653515Y-12123888D02*
X16643991Y-12142936D01*
X16643991Y-12142936D02*
X16634468Y-12152460D01*
X16634468Y-12152460D02*
X16615420Y-12161984D01*
X16615420Y-12161984D02*
X16558277Y-12161984D01*
X16558277Y-12161984D02*
X16539229Y-12152460D01*
X16539229Y-12152460D02*
X16529706Y-12142936D01*
X16891611Y-12161984D02*
X16891611Y-11961984D01*
X16977325Y-12161984D02*
X16977325Y-12057222D01*
X16977325Y-12057222D02*
X16967801Y-12038174D01*
X16967801Y-12038174D02*
X16948753Y-12028650D01*
X16948753Y-12028650D02*
X16920182Y-12028650D01*
X16920182Y-12028650D02*
X16901134Y-12038174D01*
X16901134Y-12038174D02*
X16891611Y-12047698D01*
X17101134Y-12161984D02*
X17082087Y-12152460D01*
X17082087Y-12152460D02*
X17072563Y-12142936D01*
X17072563Y-12142936D02*
X17063039Y-12123888D01*
X17063039Y-12123888D02*
X17063039Y-12066746D01*
X17063039Y-12066746D02*
X17072563Y-12047698D01*
X17072563Y-12047698D02*
X17082087Y-12038174D01*
X17082087Y-12038174D02*
X17101134Y-12028650D01*
X17101134Y-12028650D02*
X17129706Y-12028650D01*
X17129706Y-12028650D02*
X17148753Y-12038174D01*
X17148753Y-12038174D02*
X17158277Y-12047698D01*
X17158277Y-12047698D02*
X17167801Y-12066746D01*
X17167801Y-12066746D02*
X17167801Y-12123888D01*
X17167801Y-12123888D02*
X17158277Y-12142936D01*
X17158277Y-12142936D02*
X17148753Y-12152460D01*
X17148753Y-12152460D02*
X17129706Y-12161984D01*
X17129706Y-12161984D02*
X17101134Y-12161984D01*
X17282087Y-12161984D02*
X17263039Y-12152460D01*
X17263039Y-12152460D02*
X17253515Y-12133412D01*
X17253515Y-12133412D02*
X17253515Y-11961984D01*
X17434468Y-12152460D02*
X17415420Y-12161984D01*
X17415420Y-12161984D02*
X17377325Y-12161984D01*
X17377325Y-12161984D02*
X17358277Y-12152460D01*
X17358277Y-12152460D02*
X17348753Y-12133412D01*
X17348753Y-12133412D02*
X17348753Y-12057222D01*
X17348753Y-12057222D02*
X17358277Y-12038174D01*
X17358277Y-12038174D02*
X17377325Y-12028650D01*
X17377325Y-12028650D02*
X17415420Y-12028650D01*
X17415420Y-12028650D02*
X17434468Y-12038174D01*
X17434468Y-12038174D02*
X17443992Y-12057222D01*
X17443992Y-12057222D02*
X17443992Y-12076269D01*
X17443992Y-12076269D02*
X17348753Y-12095317D01*
X17520182Y-12152460D02*
X17539230Y-12161984D01*
X17539230Y-12161984D02*
X17577325Y-12161984D01*
X17577325Y-12161984D02*
X17596373Y-12152460D01*
X17596373Y-12152460D02*
X17605896Y-12133412D01*
X17605896Y-12133412D02*
X17605896Y-12123888D01*
X17605896Y-12123888D02*
X17596373Y-12104841D01*
X17596373Y-12104841D02*
X17577325Y-12095317D01*
X17577325Y-12095317D02*
X17548753Y-12095317D01*
X17548753Y-12095317D02*
X17529706Y-12085793D01*
X17529706Y-12085793D02*
X17520182Y-12066746D01*
X17520182Y-12066746D02*
X17520182Y-12057222D01*
X17520182Y-12057222D02*
X17529706Y-12038174D01*
X17529706Y-12038174D02*
X17548753Y-12028650D01*
X17548753Y-12028650D02*
X17577325Y-12028650D01*
X17577325Y-12028650D02*
X17596373Y-12038174D01*
X17672563Y-12238174D02*
X17682087Y-12228650D01*
X17682087Y-12228650D02*
X17701134Y-12200079D01*
X17701134Y-12200079D02*
X17710658Y-12181031D01*
X17710658Y-12181031D02*
X17720182Y-12152460D01*
X17720182Y-12152460D02*
X17729706Y-12104841D01*
X17729706Y-12104841D02*
X17729706Y-12066746D01*
X17729706Y-12066746D02*
X17720182Y-12019127D01*
X17720182Y-12019127D02*
X17710658Y-11990555D01*
X17710658Y-11990555D02*
X17701134Y-11971508D01*
X17701134Y-11971508D02*
X17682087Y-11942936D01*
X17682087Y-11942936D02*
X17672563Y-11933412D01*
D15*
X12876559Y-12385059D02*
X12876559Y-12283941D01*
X12775441Y-12283941D01*
X12775441Y-12385059D01*
X12876559Y-12385059D01*
D11*
X13263039Y-12425984D02*
X13148753Y-12425984D01*
X13205896Y-12425984D02*
X13205896Y-12225984D01*
X13205896Y-12225984D02*
X13186848Y-12254555D01*
X13186848Y-12254555D02*
X13167801Y-12273603D01*
X13167801Y-12273603D02*
X13148753Y-12283127D01*
X13348753Y-12406936D02*
X13358277Y-12416460D01*
X13358277Y-12416460D02*
X13348753Y-12425984D01*
X13348753Y-12425984D02*
X13339229Y-12416460D01*
X13339229Y-12416460D02*
X13348753Y-12406936D01*
X13348753Y-12406936D02*
X13348753Y-12425984D01*
X13529705Y-12292650D02*
X13529705Y-12425984D01*
X13482086Y-12216460D02*
X13434467Y-12359317D01*
X13434467Y-12359317D02*
X13558277Y-12359317D01*
X13615420Y-12225984D02*
X13739229Y-12225984D01*
X13739229Y-12225984D02*
X13672562Y-12302174D01*
X13672562Y-12302174D02*
X13701134Y-12302174D01*
X13701134Y-12302174D02*
X13720182Y-12311698D01*
X13720182Y-12311698D02*
X13729705Y-12321222D01*
X13729705Y-12321222D02*
X13739229Y-12340269D01*
X13739229Y-12340269D02*
X13739229Y-12387888D01*
X13739229Y-12387888D02*
X13729705Y-12406936D01*
X13729705Y-12406936D02*
X13720182Y-12416460D01*
X13720182Y-12416460D02*
X13701134Y-12425984D01*
X13701134Y-12425984D02*
X13643991Y-12425984D01*
X13643991Y-12425984D02*
X13624943Y-12416460D01*
X13624943Y-12416460D02*
X13615420Y-12406936D01*
X13863039Y-12225984D02*
X13882086Y-12225984D01*
X13882086Y-12225984D02*
X13901134Y-12235508D01*
X13901134Y-12235508D02*
X13910658Y-12245031D01*
X13910658Y-12245031D02*
X13920182Y-12264079D01*
X13920182Y-12264079D02*
X13929705Y-12302174D01*
X13929705Y-12302174D02*
X13929705Y-12349793D01*
X13929705Y-12349793D02*
X13920182Y-12387888D01*
X13920182Y-12387888D02*
X13910658Y-12406936D01*
X13910658Y-12406936D02*
X13901134Y-12416460D01*
X13901134Y-12416460D02*
X13882086Y-12425984D01*
X13882086Y-12425984D02*
X13863039Y-12425984D01*
X13863039Y-12425984D02*
X13843991Y-12416460D01*
X13843991Y-12416460D02*
X13834467Y-12406936D01*
X13834467Y-12406936D02*
X13824943Y-12387888D01*
X13824943Y-12387888D02*
X13815420Y-12349793D01*
X13815420Y-12349793D02*
X13815420Y-12302174D01*
X13815420Y-12302174D02*
X13824943Y-12264079D01*
X13824943Y-12264079D02*
X13834467Y-12245031D01*
X13834467Y-12245031D02*
X13843991Y-12235508D01*
X13843991Y-12235508D02*
X13863039Y-12225984D01*
X14015420Y-12425984D02*
X14015420Y-12292650D01*
X14015420Y-12311698D02*
X14024943Y-12302174D01*
X14024943Y-12302174D02*
X14043991Y-12292650D01*
X14043991Y-12292650D02*
X14072563Y-12292650D01*
X14072563Y-12292650D02*
X14091610Y-12302174D01*
X14091610Y-12302174D02*
X14101134Y-12321222D01*
X14101134Y-12321222D02*
X14101134Y-12425984D01*
X14101134Y-12321222D02*
X14110658Y-12302174D01*
X14110658Y-12302174D02*
X14129705Y-12292650D01*
X14129705Y-12292650D02*
X14158277Y-12292650D01*
X14158277Y-12292650D02*
X14177324Y-12302174D01*
X14177324Y-12302174D02*
X14186848Y-12321222D01*
X14186848Y-12321222D02*
X14186848Y-12425984D01*
X14282086Y-12425984D02*
X14282086Y-12292650D01*
X14282086Y-12311698D02*
X14291610Y-12302174D01*
X14291610Y-12302174D02*
X14310658Y-12292650D01*
X14310658Y-12292650D02*
X14339229Y-12292650D01*
X14339229Y-12292650D02*
X14358277Y-12302174D01*
X14358277Y-12302174D02*
X14367801Y-12321222D01*
X14367801Y-12321222D02*
X14367801Y-12425984D01*
X14367801Y-12321222D02*
X14377324Y-12302174D01*
X14377324Y-12302174D02*
X14396372Y-12292650D01*
X14396372Y-12292650D02*
X14424943Y-12292650D01*
X14424943Y-12292650D02*
X14443991Y-12302174D01*
X14443991Y-12302174D02*
X14453515Y-12321222D01*
X14453515Y-12321222D02*
X14453515Y-12425984D01*
X14843991Y-12216460D02*
X14672563Y-12473603D01*
X15101134Y-12225984D02*
X15120182Y-12225984D01*
X15120182Y-12225984D02*
X15139229Y-12235508D01*
X15139229Y-12235508D02*
X15148753Y-12245031D01*
X15148753Y-12245031D02*
X15158277Y-12264079D01*
X15158277Y-12264079D02*
X15167801Y-12302174D01*
X15167801Y-12302174D02*
X15167801Y-12349793D01*
X15167801Y-12349793D02*
X15158277Y-12387888D01*
X15158277Y-12387888D02*
X15148753Y-12406936D01*
X15148753Y-12406936D02*
X15139229Y-12416460D01*
X15139229Y-12416460D02*
X15120182Y-12425984D01*
X15120182Y-12425984D02*
X15101134Y-12425984D01*
X15101134Y-12425984D02*
X15082086Y-12416460D01*
X15082086Y-12416460D02*
X15072563Y-12406936D01*
X15072563Y-12406936D02*
X15063039Y-12387888D01*
X15063039Y-12387888D02*
X15053515Y-12349793D01*
X15053515Y-12349793D02*
X15053515Y-12302174D01*
X15053515Y-12302174D02*
X15063039Y-12264079D01*
X15063039Y-12264079D02*
X15072563Y-12245031D01*
X15072563Y-12245031D02*
X15082086Y-12235508D01*
X15082086Y-12235508D02*
X15101134Y-12225984D01*
X15253515Y-12406936D02*
X15263039Y-12416460D01*
X15263039Y-12416460D02*
X15253515Y-12425984D01*
X15253515Y-12425984D02*
X15243991Y-12416460D01*
X15243991Y-12416460D02*
X15253515Y-12406936D01*
X15253515Y-12406936D02*
X15253515Y-12425984D01*
X15386848Y-12225984D02*
X15405896Y-12225984D01*
X15405896Y-12225984D02*
X15424944Y-12235508D01*
X15424944Y-12235508D02*
X15434467Y-12245031D01*
X15434467Y-12245031D02*
X15443991Y-12264079D01*
X15443991Y-12264079D02*
X15453515Y-12302174D01*
X15453515Y-12302174D02*
X15453515Y-12349793D01*
X15453515Y-12349793D02*
X15443991Y-12387888D01*
X15443991Y-12387888D02*
X15434467Y-12406936D01*
X15434467Y-12406936D02*
X15424944Y-12416460D01*
X15424944Y-12416460D02*
X15405896Y-12425984D01*
X15405896Y-12425984D02*
X15386848Y-12425984D01*
X15386848Y-12425984D02*
X15367801Y-12416460D01*
X15367801Y-12416460D02*
X15358277Y-12406936D01*
X15358277Y-12406936D02*
X15348753Y-12387888D01*
X15348753Y-12387888D02*
X15339229Y-12349793D01*
X15339229Y-12349793D02*
X15339229Y-12302174D01*
X15339229Y-12302174D02*
X15348753Y-12264079D01*
X15348753Y-12264079D02*
X15358277Y-12245031D01*
X15358277Y-12245031D02*
X15367801Y-12235508D01*
X15367801Y-12235508D02*
X15386848Y-12225984D01*
X15634467Y-12225984D02*
X15539229Y-12225984D01*
X15539229Y-12225984D02*
X15529706Y-12321222D01*
X15529706Y-12321222D02*
X15539229Y-12311698D01*
X15539229Y-12311698D02*
X15558277Y-12302174D01*
X15558277Y-12302174D02*
X15605896Y-12302174D01*
X15605896Y-12302174D02*
X15624944Y-12311698D01*
X15624944Y-12311698D02*
X15634467Y-12321222D01*
X15634467Y-12321222D02*
X15643991Y-12340269D01*
X15643991Y-12340269D02*
X15643991Y-12387888D01*
X15643991Y-12387888D02*
X15634467Y-12406936D01*
X15634467Y-12406936D02*
X15624944Y-12416460D01*
X15624944Y-12416460D02*
X15605896Y-12425984D01*
X15605896Y-12425984D02*
X15558277Y-12425984D01*
X15558277Y-12425984D02*
X15539229Y-12416460D01*
X15539229Y-12416460D02*
X15529706Y-12406936D01*
X15815420Y-12225984D02*
X15777325Y-12225984D01*
X15777325Y-12225984D02*
X15758277Y-12235508D01*
X15758277Y-12235508D02*
X15748753Y-12245031D01*
X15748753Y-12245031D02*
X15729706Y-12273603D01*
X15729706Y-12273603D02*
X15720182Y-12311698D01*
X15720182Y-12311698D02*
X15720182Y-12387888D01*
X15720182Y-12387888D02*
X15729706Y-12406936D01*
X15729706Y-12406936D02*
X15739229Y-12416460D01*
X15739229Y-12416460D02*
X15758277Y-12425984D01*
X15758277Y-12425984D02*
X15796372Y-12425984D01*
X15796372Y-12425984D02*
X15815420Y-12416460D01*
X15815420Y-12416460D02*
X15824944Y-12406936D01*
X15824944Y-12406936D02*
X15834467Y-12387888D01*
X15834467Y-12387888D02*
X15834467Y-12340269D01*
X15834467Y-12340269D02*
X15824944Y-12321222D01*
X15824944Y-12321222D02*
X15815420Y-12311698D01*
X15815420Y-12311698D02*
X15796372Y-12302174D01*
X15796372Y-12302174D02*
X15758277Y-12302174D01*
X15758277Y-12302174D02*
X15739229Y-12311698D01*
X15739229Y-12311698D02*
X15729706Y-12321222D01*
X15729706Y-12321222D02*
X15720182Y-12340269D01*
X15901134Y-12225984D02*
X16024944Y-12225984D01*
X16024944Y-12225984D02*
X15958277Y-12302174D01*
X15958277Y-12302174D02*
X15986848Y-12302174D01*
X15986848Y-12302174D02*
X16005896Y-12311698D01*
X16005896Y-12311698D02*
X16015420Y-12321222D01*
X16015420Y-12321222D02*
X16024944Y-12340269D01*
X16024944Y-12340269D02*
X16024944Y-12387888D01*
X16024944Y-12387888D02*
X16015420Y-12406936D01*
X16015420Y-12406936D02*
X16005896Y-12416460D01*
X16005896Y-12416460D02*
X15986848Y-12425984D01*
X15986848Y-12425984D02*
X15929706Y-12425984D01*
X15929706Y-12425984D02*
X15910658Y-12416460D01*
X15910658Y-12416460D02*
X15901134Y-12406936D01*
X16101134Y-12225984D02*
X16101134Y-12264079D01*
X16177325Y-12225984D02*
X16177325Y-12264079D01*
X16472563Y-12502174D02*
X16463039Y-12492650D01*
X16463039Y-12492650D02*
X16443991Y-12464079D01*
X16443991Y-12464079D02*
X16434468Y-12445031D01*
X16434468Y-12445031D02*
X16424944Y-12416460D01*
X16424944Y-12416460D02*
X16415420Y-12368841D01*
X16415420Y-12368841D02*
X16415420Y-12330746D01*
X16415420Y-12330746D02*
X16424944Y-12283127D01*
X16424944Y-12283127D02*
X16434468Y-12254555D01*
X16434468Y-12254555D02*
X16443991Y-12235508D01*
X16443991Y-12235508D02*
X16463039Y-12206936D01*
X16463039Y-12206936D02*
X16472563Y-12197412D01*
X16529706Y-12225984D02*
X16653515Y-12225984D01*
X16653515Y-12225984D02*
X16586848Y-12302174D01*
X16586848Y-12302174D02*
X16615420Y-12302174D01*
X16615420Y-12302174D02*
X16634468Y-12311698D01*
X16634468Y-12311698D02*
X16643991Y-12321222D01*
X16643991Y-12321222D02*
X16653515Y-12340269D01*
X16653515Y-12340269D02*
X16653515Y-12387888D01*
X16653515Y-12387888D02*
X16643991Y-12406936D01*
X16643991Y-12406936D02*
X16634468Y-12416460D01*
X16634468Y-12416460D02*
X16615420Y-12425984D01*
X16615420Y-12425984D02*
X16558277Y-12425984D01*
X16558277Y-12425984D02*
X16539229Y-12416460D01*
X16539229Y-12416460D02*
X16529706Y-12406936D01*
X16891611Y-12425984D02*
X16891611Y-12225984D01*
X16977325Y-12425984D02*
X16977325Y-12321222D01*
X16977325Y-12321222D02*
X16967801Y-12302174D01*
X16967801Y-12302174D02*
X16948753Y-12292650D01*
X16948753Y-12292650D02*
X16920182Y-12292650D01*
X16920182Y-12292650D02*
X16901134Y-12302174D01*
X16901134Y-12302174D02*
X16891611Y-12311698D01*
X17101134Y-12425984D02*
X17082087Y-12416460D01*
X17082087Y-12416460D02*
X17072563Y-12406936D01*
X17072563Y-12406936D02*
X17063039Y-12387888D01*
X17063039Y-12387888D02*
X17063039Y-12330746D01*
X17063039Y-12330746D02*
X17072563Y-12311698D01*
X17072563Y-12311698D02*
X17082087Y-12302174D01*
X17082087Y-12302174D02*
X17101134Y-12292650D01*
X17101134Y-12292650D02*
X17129706Y-12292650D01*
X17129706Y-12292650D02*
X17148753Y-12302174D01*
X17148753Y-12302174D02*
X17158277Y-12311698D01*
X17158277Y-12311698D02*
X17167801Y-12330746D01*
X17167801Y-12330746D02*
X17167801Y-12387888D01*
X17167801Y-12387888D02*
X17158277Y-12406936D01*
X17158277Y-12406936D02*
X17148753Y-12416460D01*
X17148753Y-12416460D02*
X17129706Y-12425984D01*
X17129706Y-12425984D02*
X17101134Y-12425984D01*
X17282087Y-12425984D02*
X17263039Y-12416460D01*
X17263039Y-12416460D02*
X17253515Y-12397412D01*
X17253515Y-12397412D02*
X17253515Y-12225984D01*
X17434468Y-12416460D02*
X17415420Y-12425984D01*
X17415420Y-12425984D02*
X17377325Y-12425984D01*
X17377325Y-12425984D02*
X17358277Y-12416460D01*
X17358277Y-12416460D02*
X17348753Y-12397412D01*
X17348753Y-12397412D02*
X17348753Y-12321222D01*
X17348753Y-12321222D02*
X17358277Y-12302174D01*
X17358277Y-12302174D02*
X17377325Y-12292650D01*
X17377325Y-12292650D02*
X17415420Y-12292650D01*
X17415420Y-12292650D02*
X17434468Y-12302174D01*
X17434468Y-12302174D02*
X17443992Y-12321222D01*
X17443992Y-12321222D02*
X17443992Y-12340269D01*
X17443992Y-12340269D02*
X17348753Y-12359317D01*
X17520182Y-12416460D02*
X17539230Y-12425984D01*
X17539230Y-12425984D02*
X17577325Y-12425984D01*
X17577325Y-12425984D02*
X17596373Y-12416460D01*
X17596373Y-12416460D02*
X17605896Y-12397412D01*
X17605896Y-12397412D02*
X17605896Y-12387888D01*
X17605896Y-12387888D02*
X17596373Y-12368841D01*
X17596373Y-12368841D02*
X17577325Y-12359317D01*
X17577325Y-12359317D02*
X17548753Y-12359317D01*
X17548753Y-12359317D02*
X17529706Y-12349793D01*
X17529706Y-12349793D02*
X17520182Y-12330746D01*
X17520182Y-12330746D02*
X17520182Y-12321222D01*
X17520182Y-12321222D02*
X17529706Y-12302174D01*
X17529706Y-12302174D02*
X17548753Y-12292650D01*
X17548753Y-12292650D02*
X17577325Y-12292650D01*
X17577325Y-12292650D02*
X17596373Y-12302174D01*
X17672563Y-12502174D02*
X17682087Y-12492650D01*
X17682087Y-12492650D02*
X17701134Y-12464079D01*
X17701134Y-12464079D02*
X17710658Y-12445031D01*
X17710658Y-12445031D02*
X17720182Y-12416460D01*
X17720182Y-12416460D02*
X17729706Y-12368841D01*
X17729706Y-12368841D02*
X17729706Y-12330746D01*
X17729706Y-12330746D02*
X17720182Y-12283127D01*
X17720182Y-12283127D02*
X17710658Y-12254555D01*
X17710658Y-12254555D02*
X17701134Y-12235508D01*
X17701134Y-12235508D02*
X17682087Y-12206936D01*
X17682087Y-12206936D02*
X17672563Y-12197412D01*
M02*
