G04 #@! TF.GenerationSoftware,KiCad,Pcbnew,8.0.5*
G04 #@! TF.CreationDate,2024-10-02T23:49:05-05:00*
G04 #@! TF.ProjectId,OLED PCB,4f4c4544-2050-4434-922e-6b696361645f,rev?*
G04 #@! TF.SameCoordinates,Original*
G04 #@! TF.FileFunction,Legend,Top*
G04 #@! TF.FilePolarity,Positive*
%FSLAX46Y46*%
G04 Gerber Fmt 4.6, Leading zero omitted, Abs format (unit mm)*
G04 Created by KiCad (PCBNEW 8.0.5) date 2024-10-02 23:49:05*
%MOMM*%
%LPD*%
G01*
G04 APERTURE LIST*
%ADD10C,0.200000*%
%ADD11C,0.150000*%
%ADD12C,0.120000*%
%ADD13R,1.700000X1.700000*%
%ADD14O,1.700000X1.700000*%
G04 APERTURE END LIST*
D10*
X160500000Y-79000000D02*
X187500000Y-79000000D01*
X187500000Y-106000000D01*
X160500000Y-106000000D01*
X160500000Y-79000000D01*
X160500000Y-83500000D02*
X187500000Y-83500000D01*
X187500000Y-98500000D01*
X160500000Y-98500000D01*
X160500000Y-83500000D01*
G36*
X160500000Y-83500000D02*
G01*
X187500000Y-83500000D01*
X187500000Y-98500000D01*
X160500000Y-98500000D01*
X160500000Y-83500000D01*
G37*
D11*
X166874819Y-77333333D02*
X167589104Y-77333333D01*
X167589104Y-77333333D02*
X167731961Y-77380952D01*
X167731961Y-77380952D02*
X167827200Y-77476190D01*
X167827200Y-77476190D02*
X167874819Y-77619047D01*
X167874819Y-77619047D02*
X167874819Y-77714285D01*
X167874819Y-76333333D02*
X167874819Y-76904761D01*
X167874819Y-76619047D02*
X166874819Y-76619047D01*
X166874819Y-76619047D02*
X167017676Y-76714285D01*
X167017676Y-76714285D02*
X167112914Y-76809523D01*
X167112914Y-76809523D02*
X167160533Y-76904761D01*
X166874819Y-80833333D02*
X167589104Y-80833333D01*
X167589104Y-80833333D02*
X167731961Y-80880952D01*
X167731961Y-80880952D02*
X167827200Y-80976190D01*
X167827200Y-80976190D02*
X167874819Y-81119047D01*
X167874819Y-81119047D02*
X167874819Y-81214285D01*
X166970057Y-80404761D02*
X166922438Y-80357142D01*
X166922438Y-80357142D02*
X166874819Y-80261904D01*
X166874819Y-80261904D02*
X166874819Y-80023809D01*
X166874819Y-80023809D02*
X166922438Y-79928571D01*
X166922438Y-79928571D02*
X166970057Y-79880952D01*
X166970057Y-79880952D02*
X167065295Y-79833333D01*
X167065295Y-79833333D02*
X167160533Y-79833333D01*
X167160533Y-79833333D02*
X167303390Y-79880952D01*
X167303390Y-79880952D02*
X167874819Y-80452380D01*
X167874819Y-80452380D02*
X167874819Y-79833333D01*
X166684819Y-108833333D02*
X167399104Y-108833333D01*
X167399104Y-108833333D02*
X167541961Y-108880952D01*
X167541961Y-108880952D02*
X167637200Y-108976190D01*
X167637200Y-108976190D02*
X167684819Y-109119047D01*
X167684819Y-109119047D02*
X167684819Y-109214285D01*
X166684819Y-108452380D02*
X166684819Y-107833333D01*
X166684819Y-107833333D02*
X167065771Y-108166666D01*
X167065771Y-108166666D02*
X167065771Y-108023809D01*
X167065771Y-108023809D02*
X167113390Y-107928571D01*
X167113390Y-107928571D02*
X167161009Y-107880952D01*
X167161009Y-107880952D02*
X167256247Y-107833333D01*
X167256247Y-107833333D02*
X167494342Y-107833333D01*
X167494342Y-107833333D02*
X167589580Y-107880952D01*
X167589580Y-107880952D02*
X167637200Y-107928571D01*
X167637200Y-107928571D02*
X167684819Y-108023809D01*
X167684819Y-108023809D02*
X167684819Y-108309523D01*
X167684819Y-108309523D02*
X167637200Y-108404761D01*
X167637200Y-108404761D02*
X167589580Y-108452380D01*
D12*
X168860000Y-75670000D02*
X170190000Y-75670000D01*
X168860000Y-77000000D02*
X168860000Y-75670000D01*
X171460000Y-75670000D02*
X179140000Y-75670000D01*
X171460000Y-78330000D02*
X171460000Y-75670000D01*
X171460000Y-78330000D02*
X179140000Y-78330000D01*
X179140000Y-78330000D02*
X179140000Y-75670000D01*
X168670000Y-107170000D02*
X170000000Y-107170000D01*
X168670000Y-108500000D02*
X168670000Y-107170000D01*
X171270000Y-107170000D02*
X178950000Y-107170000D01*
X171270000Y-109830000D02*
X171270000Y-107170000D01*
X171270000Y-109830000D02*
X178950000Y-109830000D01*
X178950000Y-109830000D02*
X178950000Y-107170000D01*
%LPC*%
D13*
X170190000Y-77000000D03*
D14*
X172730000Y-77000000D03*
X175270000Y-77000000D03*
X177810000Y-77000000D03*
D13*
X170190000Y-80500000D03*
D14*
X172730000Y-80500000D03*
X175270000Y-80500000D03*
X177810000Y-80500000D03*
D13*
X170000000Y-108500000D03*
D14*
X172540000Y-108500000D03*
X175080000Y-108500000D03*
X177620000Y-108500000D03*
%LPD*%
M02*
