%TF.GenerationSoftware,KiCad,Pcbnew,8.0.5*%
%TF.CreationDate,2024-10-02T23:49:12-05:00*%
%TF.ProjectId,OLED PCB,4f4c4544-2050-4434-922e-6b696361645f,rev?*%
%TF.SameCoordinates,Original*%
%TF.FileFunction,Drillmap*%
%TF.FilePolarity,Positive*%
%FSLAX45Y45*%
G04 Gerber Fmt 4.5, Leading zero omitted, Abs format (unit mm)*
G04 Created by KiCad (PCBNEW 8.0.5) date 2024-10-02 23:49:12*
%MOMM*%
%LPD*%
G01*
G04 APERTURE LIST*
%ADD10C,0.050000*%
%ADD11C,0.200000*%
%ADD12C,0.100000*%
G04 APERTURE END LIST*
D10*
X18575000Y-10450000D02*
G75*
G02*
X18325000Y-10450000I-125000J0D01*
G01*
X18325000Y-10450000D02*
G75*
G02*
X18575000Y-10450000I125000J0D01*
G01*
X18575000Y-8150000D02*
G75*
G02*
X18325000Y-8150000I-125000J0D01*
G01*
X18325000Y-8150000D02*
G75*
G02*
X18575000Y-8150000I125000J0D01*
G01*
X16525000Y-8150000D02*
G75*
G02*
X16275000Y-8150000I-125000J0D01*
G01*
X16275000Y-8150000D02*
G75*
G02*
X16525000Y-8150000I125000J0D01*
G01*
X16525000Y-10450000D02*
G75*
G02*
X16275000Y-10450000I-125000J0D01*
G01*
X16275000Y-10450000D02*
G75*
G02*
X16525000Y-10450000I125000J0D01*
G01*
X16000000Y-7500000D02*
X18800000Y-7500000D01*
X18800000Y-11050000D01*
X16000000Y-11050000D01*
X16000000Y-7500000D01*
D11*
D12*
X16950000Y-10800000D02*
X17050000Y-10900000D01*
X17050000Y-10800000D02*
X16950000Y-10900000D01*
X16969000Y-7650000D02*
X17069000Y-7750000D01*
X17069000Y-7650000D02*
X16969000Y-7750000D01*
X16969000Y-8000000D02*
X17069000Y-8100000D01*
X17069000Y-8000000D02*
X16969000Y-8100000D01*
X17204000Y-10800000D02*
X17304000Y-10900000D01*
X17304000Y-10800000D02*
X17204000Y-10900000D01*
X17223000Y-7650000D02*
X17323000Y-7750000D01*
X17323000Y-7650000D02*
X17223000Y-7750000D01*
X17223000Y-8000000D02*
X17323000Y-8100000D01*
X17323000Y-8000000D02*
X17223000Y-8100000D01*
X17458000Y-10800000D02*
X17558000Y-10900000D01*
X17558000Y-10800000D02*
X17458000Y-10900000D01*
X17477000Y-7650000D02*
X17577000Y-7750000D01*
X17577000Y-7650000D02*
X17477000Y-7750000D01*
X17477000Y-8000000D02*
X17577000Y-8100000D01*
X17577000Y-8000000D02*
X17477000Y-8100000D01*
X17712000Y-10800000D02*
X17812000Y-10900000D01*
X17812000Y-10800000D02*
X17712000Y-10900000D01*
X17731000Y-7650000D02*
X17831000Y-7750000D01*
X17831000Y-7650000D02*
X17731000Y-7750000D01*
X17731000Y-8000000D02*
X17831000Y-8100000D01*
X17831000Y-8000000D02*
X17731000Y-8100000D01*
D11*
X16258277Y-11363984D02*
X16258277Y-11163984D01*
X16258277Y-11163984D02*
X16305896Y-11163984D01*
X16305896Y-11163984D02*
X16334467Y-11173508D01*
X16334467Y-11173508D02*
X16353515Y-11192555D01*
X16353515Y-11192555D02*
X16363039Y-11211603D01*
X16363039Y-11211603D02*
X16372562Y-11249698D01*
X16372562Y-11249698D02*
X16372562Y-11278269D01*
X16372562Y-11278269D02*
X16363039Y-11316365D01*
X16363039Y-11316365D02*
X16353515Y-11335412D01*
X16353515Y-11335412D02*
X16334467Y-11354460D01*
X16334467Y-11354460D02*
X16305896Y-11363984D01*
X16305896Y-11363984D02*
X16258277Y-11363984D01*
X16458277Y-11363984D02*
X16458277Y-11230650D01*
X16458277Y-11268746D02*
X16467801Y-11249698D01*
X16467801Y-11249698D02*
X16477324Y-11240174D01*
X16477324Y-11240174D02*
X16496372Y-11230650D01*
X16496372Y-11230650D02*
X16515420Y-11230650D01*
X16582086Y-11363984D02*
X16582086Y-11230650D01*
X16582086Y-11163984D02*
X16572562Y-11173508D01*
X16572562Y-11173508D02*
X16582086Y-11183031D01*
X16582086Y-11183031D02*
X16591610Y-11173508D01*
X16591610Y-11173508D02*
X16582086Y-11163984D01*
X16582086Y-11163984D02*
X16582086Y-11183031D01*
X16705896Y-11363984D02*
X16686848Y-11354460D01*
X16686848Y-11354460D02*
X16677324Y-11335412D01*
X16677324Y-11335412D02*
X16677324Y-11163984D01*
X16810658Y-11363984D02*
X16791610Y-11354460D01*
X16791610Y-11354460D02*
X16782086Y-11335412D01*
X16782086Y-11335412D02*
X16782086Y-11163984D01*
X17039229Y-11363984D02*
X17039229Y-11163984D01*
X17039229Y-11163984D02*
X17105896Y-11306841D01*
X17105896Y-11306841D02*
X17172563Y-11163984D01*
X17172563Y-11163984D02*
X17172563Y-11363984D01*
X17353515Y-11363984D02*
X17353515Y-11259222D01*
X17353515Y-11259222D02*
X17343991Y-11240174D01*
X17343991Y-11240174D02*
X17324944Y-11230650D01*
X17324944Y-11230650D02*
X17286848Y-11230650D01*
X17286848Y-11230650D02*
X17267801Y-11240174D01*
X17353515Y-11354460D02*
X17334467Y-11363984D01*
X17334467Y-11363984D02*
X17286848Y-11363984D01*
X17286848Y-11363984D02*
X17267801Y-11354460D01*
X17267801Y-11354460D02*
X17258277Y-11335412D01*
X17258277Y-11335412D02*
X17258277Y-11316365D01*
X17258277Y-11316365D02*
X17267801Y-11297317D01*
X17267801Y-11297317D02*
X17286848Y-11287793D01*
X17286848Y-11287793D02*
X17334467Y-11287793D01*
X17334467Y-11287793D02*
X17353515Y-11278269D01*
X17448753Y-11230650D02*
X17448753Y-11430650D01*
X17448753Y-11240174D02*
X17467801Y-11230650D01*
X17467801Y-11230650D02*
X17505896Y-11230650D01*
X17505896Y-11230650D02*
X17524944Y-11240174D01*
X17524944Y-11240174D02*
X17534467Y-11249698D01*
X17534467Y-11249698D02*
X17543991Y-11268746D01*
X17543991Y-11268746D02*
X17543991Y-11325888D01*
X17543991Y-11325888D02*
X17534467Y-11344936D01*
X17534467Y-11344936D02*
X17524944Y-11354460D01*
X17524944Y-11354460D02*
X17505896Y-11363984D01*
X17505896Y-11363984D02*
X17467801Y-11363984D01*
X17467801Y-11363984D02*
X17448753Y-11354460D01*
X17629705Y-11344936D02*
X17639229Y-11354460D01*
X17639229Y-11354460D02*
X17629705Y-11363984D01*
X17629705Y-11363984D02*
X17620182Y-11354460D01*
X17620182Y-11354460D02*
X17629705Y-11344936D01*
X17629705Y-11344936D02*
X17629705Y-11363984D01*
X17629705Y-11240174D02*
X17639229Y-11249698D01*
X17639229Y-11249698D02*
X17629705Y-11259222D01*
X17629705Y-11259222D02*
X17620182Y-11249698D01*
X17620182Y-11249698D02*
X17629705Y-11240174D01*
X17629705Y-11240174D02*
X17629705Y-11259222D01*
D12*
X15897500Y-11642500D02*
X15997500Y-11742500D01*
X15997500Y-11642500D02*
X15897500Y-11742500D01*
D11*
X16363039Y-11783984D02*
X16248753Y-11783984D01*
X16305896Y-11783984D02*
X16305896Y-11583984D01*
X16305896Y-11583984D02*
X16286848Y-11612555D01*
X16286848Y-11612555D02*
X16267801Y-11631603D01*
X16267801Y-11631603D02*
X16248753Y-11641127D01*
X16448753Y-11764936D02*
X16458277Y-11774460D01*
X16458277Y-11774460D02*
X16448753Y-11783984D01*
X16448753Y-11783984D02*
X16439229Y-11774460D01*
X16439229Y-11774460D02*
X16448753Y-11764936D01*
X16448753Y-11764936D02*
X16448753Y-11783984D01*
X16582086Y-11583984D02*
X16601134Y-11583984D01*
X16601134Y-11583984D02*
X16620182Y-11593508D01*
X16620182Y-11593508D02*
X16629705Y-11603031D01*
X16629705Y-11603031D02*
X16639229Y-11622079D01*
X16639229Y-11622079D02*
X16648753Y-11660174D01*
X16648753Y-11660174D02*
X16648753Y-11707793D01*
X16648753Y-11707793D02*
X16639229Y-11745888D01*
X16639229Y-11745888D02*
X16629705Y-11764936D01*
X16629705Y-11764936D02*
X16620182Y-11774460D01*
X16620182Y-11774460D02*
X16601134Y-11783984D01*
X16601134Y-11783984D02*
X16582086Y-11783984D01*
X16582086Y-11783984D02*
X16563039Y-11774460D01*
X16563039Y-11774460D02*
X16553515Y-11764936D01*
X16553515Y-11764936D02*
X16543991Y-11745888D01*
X16543991Y-11745888D02*
X16534467Y-11707793D01*
X16534467Y-11707793D02*
X16534467Y-11660174D01*
X16534467Y-11660174D02*
X16543991Y-11622079D01*
X16543991Y-11622079D02*
X16553515Y-11603031D01*
X16553515Y-11603031D02*
X16563039Y-11593508D01*
X16563039Y-11593508D02*
X16582086Y-11583984D01*
X16772562Y-11583984D02*
X16791610Y-11583984D01*
X16791610Y-11583984D02*
X16810658Y-11593508D01*
X16810658Y-11593508D02*
X16820182Y-11603031D01*
X16820182Y-11603031D02*
X16829705Y-11622079D01*
X16829705Y-11622079D02*
X16839229Y-11660174D01*
X16839229Y-11660174D02*
X16839229Y-11707793D01*
X16839229Y-11707793D02*
X16829705Y-11745888D01*
X16829705Y-11745888D02*
X16820182Y-11764936D01*
X16820182Y-11764936D02*
X16810658Y-11774460D01*
X16810658Y-11774460D02*
X16791610Y-11783984D01*
X16791610Y-11783984D02*
X16772562Y-11783984D01*
X16772562Y-11783984D02*
X16753515Y-11774460D01*
X16753515Y-11774460D02*
X16743991Y-11764936D01*
X16743991Y-11764936D02*
X16734467Y-11745888D01*
X16734467Y-11745888D02*
X16724943Y-11707793D01*
X16724943Y-11707793D02*
X16724943Y-11660174D01*
X16724943Y-11660174D02*
X16734467Y-11622079D01*
X16734467Y-11622079D02*
X16743991Y-11603031D01*
X16743991Y-11603031D02*
X16753515Y-11593508D01*
X16753515Y-11593508D02*
X16772562Y-11583984D01*
X16963039Y-11583984D02*
X16982086Y-11583984D01*
X16982086Y-11583984D02*
X17001134Y-11593508D01*
X17001134Y-11593508D02*
X17010658Y-11603031D01*
X17010658Y-11603031D02*
X17020182Y-11622079D01*
X17020182Y-11622079D02*
X17029705Y-11660174D01*
X17029705Y-11660174D02*
X17029705Y-11707793D01*
X17029705Y-11707793D02*
X17020182Y-11745888D01*
X17020182Y-11745888D02*
X17010658Y-11764936D01*
X17010658Y-11764936D02*
X17001134Y-11774460D01*
X17001134Y-11774460D02*
X16982086Y-11783984D01*
X16982086Y-11783984D02*
X16963039Y-11783984D01*
X16963039Y-11783984D02*
X16943991Y-11774460D01*
X16943991Y-11774460D02*
X16934467Y-11764936D01*
X16934467Y-11764936D02*
X16924944Y-11745888D01*
X16924944Y-11745888D02*
X16915420Y-11707793D01*
X16915420Y-11707793D02*
X16915420Y-11660174D01*
X16915420Y-11660174D02*
X16924944Y-11622079D01*
X16924944Y-11622079D02*
X16934467Y-11603031D01*
X16934467Y-11603031D02*
X16943991Y-11593508D01*
X16943991Y-11593508D02*
X16963039Y-11583984D01*
X17115420Y-11783984D02*
X17115420Y-11650650D01*
X17115420Y-11669698D02*
X17124944Y-11660174D01*
X17124944Y-11660174D02*
X17143991Y-11650650D01*
X17143991Y-11650650D02*
X17172563Y-11650650D01*
X17172563Y-11650650D02*
X17191610Y-11660174D01*
X17191610Y-11660174D02*
X17201134Y-11679222D01*
X17201134Y-11679222D02*
X17201134Y-11783984D01*
X17201134Y-11679222D02*
X17210658Y-11660174D01*
X17210658Y-11660174D02*
X17229705Y-11650650D01*
X17229705Y-11650650D02*
X17258277Y-11650650D01*
X17258277Y-11650650D02*
X17277325Y-11660174D01*
X17277325Y-11660174D02*
X17286848Y-11679222D01*
X17286848Y-11679222D02*
X17286848Y-11783984D01*
X17382086Y-11783984D02*
X17382086Y-11650650D01*
X17382086Y-11669698D02*
X17391610Y-11660174D01*
X17391610Y-11660174D02*
X17410658Y-11650650D01*
X17410658Y-11650650D02*
X17439229Y-11650650D01*
X17439229Y-11650650D02*
X17458277Y-11660174D01*
X17458277Y-11660174D02*
X17467801Y-11679222D01*
X17467801Y-11679222D02*
X17467801Y-11783984D01*
X17467801Y-11679222D02*
X17477325Y-11660174D01*
X17477325Y-11660174D02*
X17496372Y-11650650D01*
X17496372Y-11650650D02*
X17524944Y-11650650D01*
X17524944Y-11650650D02*
X17543991Y-11660174D01*
X17543991Y-11660174D02*
X17553515Y-11679222D01*
X17553515Y-11679222D02*
X17553515Y-11783984D01*
X17943991Y-11574460D02*
X17772563Y-11831603D01*
X18201134Y-11583984D02*
X18220182Y-11583984D01*
X18220182Y-11583984D02*
X18239229Y-11593508D01*
X18239229Y-11593508D02*
X18248753Y-11603031D01*
X18248753Y-11603031D02*
X18258277Y-11622079D01*
X18258277Y-11622079D02*
X18267801Y-11660174D01*
X18267801Y-11660174D02*
X18267801Y-11707793D01*
X18267801Y-11707793D02*
X18258277Y-11745888D01*
X18258277Y-11745888D02*
X18248753Y-11764936D01*
X18248753Y-11764936D02*
X18239229Y-11774460D01*
X18239229Y-11774460D02*
X18220182Y-11783984D01*
X18220182Y-11783984D02*
X18201134Y-11783984D01*
X18201134Y-11783984D02*
X18182087Y-11774460D01*
X18182087Y-11774460D02*
X18172563Y-11764936D01*
X18172563Y-11764936D02*
X18163039Y-11745888D01*
X18163039Y-11745888D02*
X18153515Y-11707793D01*
X18153515Y-11707793D02*
X18153515Y-11660174D01*
X18153515Y-11660174D02*
X18163039Y-11622079D01*
X18163039Y-11622079D02*
X18172563Y-11603031D01*
X18172563Y-11603031D02*
X18182087Y-11593508D01*
X18182087Y-11593508D02*
X18201134Y-11583984D01*
X18353515Y-11764936D02*
X18363039Y-11774460D01*
X18363039Y-11774460D02*
X18353515Y-11783984D01*
X18353515Y-11783984D02*
X18343991Y-11774460D01*
X18343991Y-11774460D02*
X18353515Y-11764936D01*
X18353515Y-11764936D02*
X18353515Y-11783984D01*
X18486848Y-11583984D02*
X18505896Y-11583984D01*
X18505896Y-11583984D02*
X18524944Y-11593508D01*
X18524944Y-11593508D02*
X18534468Y-11603031D01*
X18534468Y-11603031D02*
X18543991Y-11622079D01*
X18543991Y-11622079D02*
X18553515Y-11660174D01*
X18553515Y-11660174D02*
X18553515Y-11707793D01*
X18553515Y-11707793D02*
X18543991Y-11745888D01*
X18543991Y-11745888D02*
X18534468Y-11764936D01*
X18534468Y-11764936D02*
X18524944Y-11774460D01*
X18524944Y-11774460D02*
X18505896Y-11783984D01*
X18505896Y-11783984D02*
X18486848Y-11783984D01*
X18486848Y-11783984D02*
X18467801Y-11774460D01*
X18467801Y-11774460D02*
X18458277Y-11764936D01*
X18458277Y-11764936D02*
X18448753Y-11745888D01*
X18448753Y-11745888D02*
X18439229Y-11707793D01*
X18439229Y-11707793D02*
X18439229Y-11660174D01*
X18439229Y-11660174D02*
X18448753Y-11622079D01*
X18448753Y-11622079D02*
X18458277Y-11603031D01*
X18458277Y-11603031D02*
X18467801Y-11593508D01*
X18467801Y-11593508D02*
X18486848Y-11583984D01*
X18620182Y-11583984D02*
X18743991Y-11583984D01*
X18743991Y-11583984D02*
X18677325Y-11660174D01*
X18677325Y-11660174D02*
X18705896Y-11660174D01*
X18705896Y-11660174D02*
X18724944Y-11669698D01*
X18724944Y-11669698D02*
X18734468Y-11679222D01*
X18734468Y-11679222D02*
X18743991Y-11698269D01*
X18743991Y-11698269D02*
X18743991Y-11745888D01*
X18743991Y-11745888D02*
X18734468Y-11764936D01*
X18734468Y-11764936D02*
X18724944Y-11774460D01*
X18724944Y-11774460D02*
X18705896Y-11783984D01*
X18705896Y-11783984D02*
X18648753Y-11783984D01*
X18648753Y-11783984D02*
X18629706Y-11774460D01*
X18629706Y-11774460D02*
X18620182Y-11764936D01*
X18839229Y-11783984D02*
X18877325Y-11783984D01*
X18877325Y-11783984D02*
X18896372Y-11774460D01*
X18896372Y-11774460D02*
X18905896Y-11764936D01*
X18905896Y-11764936D02*
X18924944Y-11736365D01*
X18924944Y-11736365D02*
X18934468Y-11698269D01*
X18934468Y-11698269D02*
X18934468Y-11622079D01*
X18934468Y-11622079D02*
X18924944Y-11603031D01*
X18924944Y-11603031D02*
X18915420Y-11593508D01*
X18915420Y-11593508D02*
X18896372Y-11583984D01*
X18896372Y-11583984D02*
X18858277Y-11583984D01*
X18858277Y-11583984D02*
X18839229Y-11593508D01*
X18839229Y-11593508D02*
X18829706Y-11603031D01*
X18829706Y-11603031D02*
X18820182Y-11622079D01*
X18820182Y-11622079D02*
X18820182Y-11669698D01*
X18820182Y-11669698D02*
X18829706Y-11688746D01*
X18829706Y-11688746D02*
X18839229Y-11698269D01*
X18839229Y-11698269D02*
X18858277Y-11707793D01*
X18858277Y-11707793D02*
X18896372Y-11707793D01*
X18896372Y-11707793D02*
X18915420Y-11698269D01*
X18915420Y-11698269D02*
X18924944Y-11688746D01*
X18924944Y-11688746D02*
X18934468Y-11669698D01*
X19105896Y-11650650D02*
X19105896Y-11783984D01*
X19058277Y-11574460D02*
X19010658Y-11717317D01*
X19010658Y-11717317D02*
X19134468Y-11717317D01*
X19201134Y-11583984D02*
X19201134Y-11622079D01*
X19277325Y-11583984D02*
X19277325Y-11622079D01*
X19572563Y-11860174D02*
X19563039Y-11850650D01*
X19563039Y-11850650D02*
X19543991Y-11822079D01*
X19543991Y-11822079D02*
X19534468Y-11803031D01*
X19534468Y-11803031D02*
X19524944Y-11774460D01*
X19524944Y-11774460D02*
X19515420Y-11726841D01*
X19515420Y-11726841D02*
X19515420Y-11688746D01*
X19515420Y-11688746D02*
X19524944Y-11641127D01*
X19524944Y-11641127D02*
X19534468Y-11612555D01*
X19534468Y-11612555D02*
X19543991Y-11593508D01*
X19543991Y-11593508D02*
X19563039Y-11564936D01*
X19563039Y-11564936D02*
X19572563Y-11555412D01*
X19753515Y-11783984D02*
X19639230Y-11783984D01*
X19696372Y-11783984D02*
X19696372Y-11583984D01*
X19696372Y-11583984D02*
X19677325Y-11612555D01*
X19677325Y-11612555D02*
X19658277Y-11631603D01*
X19658277Y-11631603D02*
X19639230Y-11641127D01*
X19829706Y-11603031D02*
X19839230Y-11593508D01*
X19839230Y-11593508D02*
X19858277Y-11583984D01*
X19858277Y-11583984D02*
X19905896Y-11583984D01*
X19905896Y-11583984D02*
X19924944Y-11593508D01*
X19924944Y-11593508D02*
X19934468Y-11603031D01*
X19934468Y-11603031D02*
X19943991Y-11622079D01*
X19943991Y-11622079D02*
X19943991Y-11641127D01*
X19943991Y-11641127D02*
X19934468Y-11669698D01*
X19934468Y-11669698D02*
X19820182Y-11783984D01*
X19820182Y-11783984D02*
X19943991Y-11783984D01*
X20182087Y-11783984D02*
X20182087Y-11583984D01*
X20267801Y-11783984D02*
X20267801Y-11679222D01*
X20267801Y-11679222D02*
X20258277Y-11660174D01*
X20258277Y-11660174D02*
X20239230Y-11650650D01*
X20239230Y-11650650D02*
X20210658Y-11650650D01*
X20210658Y-11650650D02*
X20191611Y-11660174D01*
X20191611Y-11660174D02*
X20182087Y-11669698D01*
X20391611Y-11783984D02*
X20372563Y-11774460D01*
X20372563Y-11774460D02*
X20363039Y-11764936D01*
X20363039Y-11764936D02*
X20353515Y-11745888D01*
X20353515Y-11745888D02*
X20353515Y-11688746D01*
X20353515Y-11688746D02*
X20363039Y-11669698D01*
X20363039Y-11669698D02*
X20372563Y-11660174D01*
X20372563Y-11660174D02*
X20391611Y-11650650D01*
X20391611Y-11650650D02*
X20420182Y-11650650D01*
X20420182Y-11650650D02*
X20439230Y-11660174D01*
X20439230Y-11660174D02*
X20448753Y-11669698D01*
X20448753Y-11669698D02*
X20458277Y-11688746D01*
X20458277Y-11688746D02*
X20458277Y-11745888D01*
X20458277Y-11745888D02*
X20448753Y-11764936D01*
X20448753Y-11764936D02*
X20439230Y-11774460D01*
X20439230Y-11774460D02*
X20420182Y-11783984D01*
X20420182Y-11783984D02*
X20391611Y-11783984D01*
X20572563Y-11783984D02*
X20553515Y-11774460D01*
X20553515Y-11774460D02*
X20543992Y-11755412D01*
X20543992Y-11755412D02*
X20543992Y-11583984D01*
X20724944Y-11774460D02*
X20705896Y-11783984D01*
X20705896Y-11783984D02*
X20667801Y-11783984D01*
X20667801Y-11783984D02*
X20648753Y-11774460D01*
X20648753Y-11774460D02*
X20639230Y-11755412D01*
X20639230Y-11755412D02*
X20639230Y-11679222D01*
X20639230Y-11679222D02*
X20648753Y-11660174D01*
X20648753Y-11660174D02*
X20667801Y-11650650D01*
X20667801Y-11650650D02*
X20705896Y-11650650D01*
X20705896Y-11650650D02*
X20724944Y-11660174D01*
X20724944Y-11660174D02*
X20734468Y-11679222D01*
X20734468Y-11679222D02*
X20734468Y-11698269D01*
X20734468Y-11698269D02*
X20639230Y-11717317D01*
X20810658Y-11774460D02*
X20829706Y-11783984D01*
X20829706Y-11783984D02*
X20867801Y-11783984D01*
X20867801Y-11783984D02*
X20886849Y-11774460D01*
X20886849Y-11774460D02*
X20896373Y-11755412D01*
X20896373Y-11755412D02*
X20896373Y-11745888D01*
X20896373Y-11745888D02*
X20886849Y-11726841D01*
X20886849Y-11726841D02*
X20867801Y-11717317D01*
X20867801Y-11717317D02*
X20839230Y-11717317D01*
X20839230Y-11717317D02*
X20820182Y-11707793D01*
X20820182Y-11707793D02*
X20810658Y-11688746D01*
X20810658Y-11688746D02*
X20810658Y-11679222D01*
X20810658Y-11679222D02*
X20820182Y-11660174D01*
X20820182Y-11660174D02*
X20839230Y-11650650D01*
X20839230Y-11650650D02*
X20867801Y-11650650D01*
X20867801Y-11650650D02*
X20886849Y-11660174D01*
X20963039Y-11860174D02*
X20972563Y-11850650D01*
X20972563Y-11850650D02*
X20991611Y-11822079D01*
X20991611Y-11822079D02*
X21001134Y-11803031D01*
X21001134Y-11803031D02*
X21010658Y-11774460D01*
X21010658Y-11774460D02*
X21020182Y-11726841D01*
X21020182Y-11726841D02*
X21020182Y-11688746D01*
X21020182Y-11688746D02*
X21010658Y-11641127D01*
X21010658Y-11641127D02*
X21001134Y-11612555D01*
X21001134Y-11612555D02*
X20991611Y-11593508D01*
X20991611Y-11593508D02*
X20972563Y-11564936D01*
X20972563Y-11564936D02*
X20963039Y-11555412D01*
M02*
