%TF.GenerationSoftware,KiCad,Pcbnew,8.0.5*%
%TF.CreationDate,2024-10-02T23:49:12-05:00*%
%TF.ProjectId,OLED PCB,4f4c4544-2050-4434-922e-6b696361645f,rev?*%
%TF.SameCoordinates,Original*%
%TF.FileFunction,Drillmap*%
%TF.FilePolarity,Positive*%
%FSLAX45Y45*%
G04 Gerber Fmt 4.5, Leading zero omitted, Abs format (unit mm)*
G04 Created by KiCad (PCBNEW 8.0.5) date 2024-10-02 23:49:12*
%MOMM*%
%LPD*%
G01*
G04 APERTURE LIST*
%ADD10C,0.050000*%
%ADD11C,0.200000*%
G04 APERTURE END LIST*
D10*
X18575000Y-10450000D02*
G75*
G02*
X18325000Y-10450000I-125000J0D01*
G01*
X18325000Y-10450000D02*
G75*
G02*
X18575000Y-10450000I125000J0D01*
G01*
X18575000Y-8150000D02*
G75*
G02*
X18325000Y-8150000I-125000J0D01*
G01*
X18325000Y-8150000D02*
G75*
G02*
X18575000Y-8150000I125000J0D01*
G01*
X16525000Y-8150000D02*
G75*
G02*
X16275000Y-8150000I-125000J0D01*
G01*
X16275000Y-8150000D02*
G75*
G02*
X16525000Y-8150000I125000J0D01*
G01*
X16525000Y-10450000D02*
G75*
G02*
X16275000Y-10450000I-125000J0D01*
G01*
X16275000Y-10450000D02*
G75*
G02*
X16525000Y-10450000I125000J0D01*
G01*
X16000000Y-7500000D02*
X18800000Y-7500000D01*
X18800000Y-11050000D01*
X16000000Y-11050000D01*
X16000000Y-7500000D01*
D11*
X16258277Y-11363984D02*
X16258277Y-11163984D01*
X16258277Y-11163984D02*
X16305896Y-11163984D01*
X16305896Y-11163984D02*
X16334467Y-11173508D01*
X16334467Y-11173508D02*
X16353515Y-11192555D01*
X16353515Y-11192555D02*
X16363039Y-11211603D01*
X16363039Y-11211603D02*
X16372562Y-11249698D01*
X16372562Y-11249698D02*
X16372562Y-11278269D01*
X16372562Y-11278269D02*
X16363039Y-11316365D01*
X16363039Y-11316365D02*
X16353515Y-11335412D01*
X16353515Y-11335412D02*
X16334467Y-11354460D01*
X16334467Y-11354460D02*
X16305896Y-11363984D01*
X16305896Y-11363984D02*
X16258277Y-11363984D01*
X16458277Y-11363984D02*
X16458277Y-11230650D01*
X16458277Y-11268746D02*
X16467801Y-11249698D01*
X16467801Y-11249698D02*
X16477324Y-11240174D01*
X16477324Y-11240174D02*
X16496372Y-11230650D01*
X16496372Y-11230650D02*
X16515420Y-11230650D01*
X16582086Y-11363984D02*
X16582086Y-11230650D01*
X16582086Y-11163984D02*
X16572562Y-11173508D01*
X16572562Y-11173508D02*
X16582086Y-11183031D01*
X16582086Y-11183031D02*
X16591610Y-11173508D01*
X16591610Y-11173508D02*
X16582086Y-11163984D01*
X16582086Y-11163984D02*
X16582086Y-11183031D01*
X16705896Y-11363984D02*
X16686848Y-11354460D01*
X16686848Y-11354460D02*
X16677324Y-11335412D01*
X16677324Y-11335412D02*
X16677324Y-11163984D01*
X16810658Y-11363984D02*
X16791610Y-11354460D01*
X16791610Y-11354460D02*
X16782086Y-11335412D01*
X16782086Y-11335412D02*
X16782086Y-11163984D01*
X17039229Y-11363984D02*
X17039229Y-11163984D01*
X17039229Y-11163984D02*
X17105896Y-11306841D01*
X17105896Y-11306841D02*
X17172563Y-11163984D01*
X17172563Y-11163984D02*
X17172563Y-11363984D01*
X17353515Y-11363984D02*
X17353515Y-11259222D01*
X17353515Y-11259222D02*
X17343991Y-11240174D01*
X17343991Y-11240174D02*
X17324944Y-11230650D01*
X17324944Y-11230650D02*
X17286848Y-11230650D01*
X17286848Y-11230650D02*
X17267801Y-11240174D01*
X17353515Y-11354460D02*
X17334467Y-11363984D01*
X17334467Y-11363984D02*
X17286848Y-11363984D01*
X17286848Y-11363984D02*
X17267801Y-11354460D01*
X17267801Y-11354460D02*
X17258277Y-11335412D01*
X17258277Y-11335412D02*
X17258277Y-11316365D01*
X17258277Y-11316365D02*
X17267801Y-11297317D01*
X17267801Y-11297317D02*
X17286848Y-11287793D01*
X17286848Y-11287793D02*
X17334467Y-11287793D01*
X17334467Y-11287793D02*
X17353515Y-11278269D01*
X17448753Y-11230650D02*
X17448753Y-11430650D01*
X17448753Y-11240174D02*
X17467801Y-11230650D01*
X17467801Y-11230650D02*
X17505896Y-11230650D01*
X17505896Y-11230650D02*
X17524944Y-11240174D01*
X17524944Y-11240174D02*
X17534467Y-11249698D01*
X17534467Y-11249698D02*
X17543991Y-11268746D01*
X17543991Y-11268746D02*
X17543991Y-11325888D01*
X17543991Y-11325888D02*
X17534467Y-11344936D01*
X17534467Y-11344936D02*
X17524944Y-11354460D01*
X17524944Y-11354460D02*
X17505896Y-11363984D01*
X17505896Y-11363984D02*
X17467801Y-11363984D01*
X17467801Y-11363984D02*
X17448753Y-11354460D01*
X17629705Y-11344936D02*
X17639229Y-11354460D01*
X17639229Y-11354460D02*
X17629705Y-11363984D01*
X17629705Y-11363984D02*
X17620182Y-11354460D01*
X17620182Y-11354460D02*
X17629705Y-11344936D01*
X17629705Y-11344936D02*
X17629705Y-11363984D01*
X17629705Y-11240174D02*
X17639229Y-11249698D01*
X17639229Y-11249698D02*
X17629705Y-11259222D01*
X17629705Y-11259222D02*
X17620182Y-11249698D01*
X17620182Y-11249698D02*
X17629705Y-11240174D01*
X17629705Y-11240174D02*
X17629705Y-11259222D01*
M02*
